<svg xmlns="http://www.w3.org/2000/svg" xmlns:svg="http://www.w3.org/2000/svg" id="svg2" width="485.707" height="114.827" version="1.1" viewBox="0 0 485.707 114.827" xml:space="preserve"><metadata id="metadata8"/><g id="g10" transform="matrix(1.3333333,0,0,-1.3333333,0,114.82667)"><g id="g12" transform="scale(0.1)"><g id="g14" transform="scale(10)"><text id="text18" transform="matrix(1,0,0,-1,47.1098,3.54609)" style="font-variant:normal;font-weight:400;font-size:8.27999973px;font-family:'Times New Roman';-inkscape-font-specification:Times-Roman;writing-mode:lr-tb;fill:#231f20;fill-opacity:1;fill-rule:nonzero;stroke:none"><tspan id="tspan16" x="0 2.757 5.059 131.141 133.898 136.2 138.499 258.756 261.513 263.814 266.115 268.416" y="0">(i)(ii)(iii)</tspan></text></g><path id="path20" d="m 3341.67,748.406 c 0,59.524 -96.6,107.824 -215.63,107.824 -119.05,0 -215.67,-48.3 -215.67,-107.824 0,-59.519 96.62,-107.824 215.67,-107.824 119.03,0 215.63,48.305 215.63,107.824 v 0" style="fill:#fff;fill-opacity:1;fill-rule:evenodd;stroke:none"/><path id="path22" d="m 3341.67,748.406 c 0,59.524 -96.6,107.824 -215.63,107.824 -119.05,0 -215.67,-48.3 -215.67,-107.824 0,-59.519 96.62,-107.824 215.67,-107.824 119.03,0 215.63,48.305 215.63,107.824 z" style="fill:none;stroke:#231f20;stroke-width:10;stroke-linecap:butt;stroke-linejoin:miter;stroke-miterlimit:10;stroke-dasharray:none;stroke-opacity:1"/><g id="g24" transform="scale(10)"><text id="text28" transform="matrix(1,0,0,-1,298.943,72.4121)" style="font-style:italic;font-variant:normal;font-size:10px;font-family:'Times New Roman';-inkscape-font-specification:Times-Italic;writing-mode:lr-tb;fill:#231f20;fill-opacity:1;fill-rule:nonzero;stroke:none"><tspan id="tspan26" x="0 6.11 8.89 13.89 18.33 23.33" y="0">Flavor</tspan></text></g><path id="path30" d="m 3047.57,291.367 c 0,59.512 -96.6,107.813 -215.65,107.813 -119.04,0 -215.66,-48.301 -215.66,-107.813 0,-59.531 96.62,-107.832 215.66,-107.832 119.05,0 215.65,48.301 215.65,107.832 v 0" style="fill:#fff;fill-opacity:1;fill-rule:evenodd;stroke:none"/><path id="path32" d="m 3047.57,291.367 c 0,59.512 -96.6,107.813 -215.65,107.813 -119.04,0 -215.66,-48.301 -215.66,-107.813 0,-59.531 96.62,-107.832 215.66,-107.832 119.05,0 215.65,48.301 215.65,107.832 z" style="fill:none;stroke:#231f20;stroke-width:10;stroke-linecap:butt;stroke-linejoin:miter;stroke-miterlimit:10;stroke-dasharray:none;stroke-opacity:1"/><g id="g34" transform="scale(10)"><text id="text38" transform="matrix(1,0,0,-1,265.673,26.1434)" style="font-style:italic;font-variant:normal;font-size:10px;font-family:'Times New Roman';-inkscape-font-specification:Times-Italic;writing-mode:lr-tb;fill:#231f20;fill-opacity:1;fill-rule:nonzero;stroke:none"><tspan id="tspan36" x="0 8.33 12.22 17.22 22.22 27.22 31.66" y="0">Wrapper</tspan></text></g><path id="path40" d="m 3637.76,291.367 c 0,59.512 -96.6,107.813 -215.64,107.813 -119.04,0 -215.66,-48.301 -215.66,-107.813 0,-59.531 96.62,-107.832 215.66,-107.832 119.04,0 215.64,48.301 215.64,107.832 v 0" style="fill:#fff;fill-opacity:1;fill-rule:evenodd;stroke:none"/><path id="path42" d="m 3637.76,291.367 c 0,59.512 -96.6,107.813 -215.64,107.813 -119.04,0 -215.66,-48.301 -215.66,-107.813 0,-59.531 96.62,-107.832 215.66,-107.832 119.04,0 215.64,48.301 215.64,107.832 z" style="fill:none;stroke:#231f20;stroke-width:10;stroke-linecap:butt;stroke-linejoin:miter;stroke-miterlimit:10;stroke-dasharray:none;stroke-opacity:1"/><g id="g44" transform="scale(10)"><text id="text48" transform="matrix(1,0,0,-1,329.499,26.1016)" style="font-style:italic;font-variant:normal;font-size:10px;font-family:'Times New Roman';-inkscape-font-specification:Times-Italic;writing-mode:lr-tb;fill:#231f20;fill-opacity:1;fill-rule:nonzero;stroke:none"><tspan id="tspan46" x="0 5 10 15 20" y="0">Shape</tspan></text></g><path id="path50" d="M 3125.48,639.828 2885.63,434.316" style="fill:none;stroke:#231f20;stroke-width:10;stroke-linecap:butt;stroke-linejoin:miter;stroke-miterlimit:10;stroke-dasharray:none;stroke-opacity:1"/><path id="path52" d="m 2948.36,446.715 -98.08,-43.231 66.2,84.297" style="fill:#231f20;fill-opacity:1;fill-rule:evenodd;stroke:none"/><path id="path54" d="M 3127.65,639.828 3368.56,434.316" style="fill:none;stroke:#231f20;stroke-width:10;stroke-linecap:butt;stroke-linejoin:miter;stroke-miterlimit:10;stroke-dasharray:none;stroke-opacity:1"/><path id="path56" d="m 3344.38,485.234 66.2,-84.296 -98.09,43.238" style="fill:#231f20;fill-opacity:1;fill-rule:evenodd;stroke:none"/><path id="path58" d="m 436.309,748.406 c 0,59.524 -96.614,107.824 -215.657,107.824 C 101.609,856.23 5,807.93 5,748.406 5,688.887 101.609,640.582 220.652,640.582 c 119.043,0 215.657,48.305 215.657,107.824 v 0" style="fill:#fff;fill-opacity:1;fill-rule:evenodd;stroke:none"/><path id="path60" d="m 436.309,748.406 c 0,59.524 -96.614,107.824 -215.657,107.824 C 101.609,856.23 5,807.93 5,748.406 5,688.887 101.609,640.582 220.652,640.582 c 119.043,0 215.657,48.305 215.657,107.824 z" style="fill:none;stroke:#231f20;stroke-width:10;stroke-linecap:butt;stroke-linejoin:miter;stroke-miterlimit:10;stroke-dasharray:none;stroke-opacity:1"/><g id="g62" transform="scale(10)"><text id="text66" transform="matrix(1,0,0,-1,4.49453,72.4121)" style="font-style:italic;font-variant:normal;font-size:10px;font-family:'Times New Roman';-inkscape-font-specification:Times-Italic;writing-mode:lr-tb;fill:#231f20;fill-opacity:1;fill-rule:nonzero;stroke:none"><tspan id="tspan64" x="0 8.33 12.22 17.22 22.22 27.22 31.66" y="0">Wrapper</tspan></text></g><path id="path68" d="m 1028.5,748.406 c 0,59.524 -96.621,107.824 -215.656,107.824 -119.043,0 -215.656,-48.3 -215.656,-107.824 0,-59.519 96.613,-107.824 215.656,-107.824 119.035,0 215.656,48.305 215.656,107.824 v 0" style="fill:#fff;fill-opacity:1;fill-rule:evenodd;stroke:none"/><path id="path70" d="m 1028.5,748.406 c 0,59.524 -96.621,107.824 -215.656,107.824 -119.043,0 -215.656,-48.3 -215.656,-107.824 0,-59.519 96.613,-107.824 215.656,-107.824 119.035,0 215.656,48.305 215.656,107.824 z" style="fill:none;stroke:#231f20;stroke-width:10;stroke-linecap:butt;stroke-linejoin:miter;stroke-miterlimit:10;stroke-dasharray:none;stroke-opacity:1"/><g id="g72" transform="scale(10)"><text id="text76" transform="matrix(1,0,0,-1,68.6934,72.2055)" style="font-style:italic;font-variant:normal;font-size:10px;font-family:'Times New Roman';-inkscape-font-specification:Times-Italic;writing-mode:lr-tb;fill:#231f20;fill-opacity:1;fill-rule:nonzero;stroke:none"><tspan id="tspan74" x="0 5 10 15 20" y="0">Shape</tspan></text></g><path id="path78" d="M 461.855,424.707 214.723,639.195" style="fill:none;stroke:#231f20;stroke-width:10;stroke-linecap:butt;stroke-linejoin:miter;stroke-miterlimit:10;stroke-dasharray:none;stroke-opacity:1"/><path id="path80" d="m 425.867,483.48 66.203,-84.3 -98.082,43.23" style="fill:#231f20;fill-opacity:1;fill-rule:evenodd;stroke:none"/><path id="path82" d="M 578.129,427.348 818.051,639.195" style="fill:none;stroke:#231f20;stroke-width:10;stroke-linecap:butt;stroke-linejoin:miter;stroke-miterlimit:10;stroke-dasharray:none;stroke-opacity:1"/><path id="path84" d="m 638.777,442.41 -98.078,-43.23 66.196,84.3" style="fill:#231f20;fill-opacity:1;fill-rule:evenodd;stroke:none"/><path id="path86" d="m 732.398,291.367 c 0,59.512 -96.605,107.813 -215.652,107.813 -119.035,0 -215.656,-48.301 -215.656,-107.813 0,-59.531 96.621,-107.832 215.656,-107.832 119.047,0 215.652,48.301 215.652,107.832 v 0" style="fill:#fff;fill-opacity:1;fill-rule:evenodd;stroke:none"/><path id="path88" d="m 732.398,291.367 c 0,59.512 -96.605,107.813 -215.652,107.813 -119.035,0 -215.656,-48.301 -215.656,-107.813 0,-59.531 96.621,-107.832 215.656,-107.832 119.047,0 215.652,48.301 215.652,107.832 z" style="fill:none;stroke:#231f20;stroke-width:10;stroke-linecap:butt;stroke-linejoin:miter;stroke-miterlimit:10;stroke-dasharray:none;stroke-opacity:1"/><g id="g90" transform="scale(10)"><text id="text94" transform="matrix(1,0,0,-1,37.7145,26.7305)" style="font-style:italic;font-variant:normal;font-size:10px;font-family:'Times New Roman';-inkscape-font-specification:Times-Italic;writing-mode:lr-tb;fill:#231f20;fill-opacity:1;fill-rule:nonzero;stroke:none"><tspan id="tspan92" x="0 6.11 8.89 13.89 18.33 23.33" y="0">Flavor</tspan></text></g><path id="path96" d="m 1882.18,746.609 h -160.4" style="fill:none;stroke:#231f20;stroke-width:10;stroke-linecap:butt;stroke-linejoin:miter;stroke-miterlimit:10;stroke-dasharray:none;stroke-opacity:1"/><path id="path98" d="m 1813.39,771.391 103.98,-25.996 -103.98,-25.997" style="fill:#231f20;fill-opacity:1;fill-rule:evenodd;stroke:none"/><path id="path100" d="m 1759.54,748.406 c 0,59.524 -96.62,107.824 -215.66,107.824 -119.04,0 -215.65,-48.3 -215.65,-107.824 0,-59.519 96.61,-107.824 215.65,-107.824 119.04,0 215.66,48.305 215.66,107.824 v 0" style="fill:#fff;fill-opacity:1;fill-rule:evenodd;stroke:none"/><path id="path102" d="m 1759.54,748.406 c 0,59.524 -96.62,107.824 -215.66,107.824 -119.04,0 -215.65,-48.3 -215.65,-107.824 0,-59.519 96.61,-107.824 215.65,-107.824 119.04,0 215.66,48.305 215.66,107.824 z" style="fill:none;stroke:#231f20;stroke-width:10;stroke-linecap:butt;stroke-linejoin:miter;stroke-miterlimit:10;stroke-dasharray:none;stroke-opacity:1"/><g id="g104" transform="scale(10)"><text id="text108" transform="matrix(1,0,0,-1,136.468,72.3262)" style="font-style:italic;font-variant:normal;font-size:10px;font-family:'Times New Roman';-inkscape-font-specification:Times-Italic;writing-mode:lr-tb;fill:#231f20;fill-opacity:1;fill-rule:nonzero;stroke:none"><tspan id="tspan106" x="0 8.33 12.22 17.22 22.22 27.22 31.66" y="0">Wrapper</tspan></text></g><path id="path110" d="m 2349.74,748.406 c 0,59.524 -96.62,107.824 -215.67,107.824 -119.04,0 -215.64,-48.3 -215.64,-107.824 0,-59.519 96.6,-107.824 215.64,-107.824 119.05,0 215.67,48.305 215.67,107.824 v 0" style="fill:#fff;fill-opacity:1;fill-rule:evenodd;stroke:none"/><path id="path112" d="m 2349.74,748.406 c 0,59.524 -96.62,107.824 -215.67,107.824 -119.04,0 -215.64,-48.3 -215.64,-107.824 0,-59.519 96.6,-107.824 215.64,-107.824 119.05,0 215.67,48.305 215.67,107.824 z" style="fill:none;stroke:#231f20;stroke-width:10;stroke-linecap:butt;stroke-linejoin:miter;stroke-miterlimit:10;stroke-dasharray:none;stroke-opacity:1"/><g id="g114" transform="scale(10)"><text id="text118" transform="matrix(1,0,0,-1,200.96,72.8262)" style="font-style:italic;font-variant:normal;font-size:10px;font-family:'Times New Roman';-inkscape-font-specification:Times-Italic;writing-mode:lr-tb;fill:#231f20;fill-opacity:1;fill-rule:nonzero;stroke:none"><tspan id="tspan116" x="0 5 10 15 20" y="0">Shape</tspan></text></g><path id="path120" d="m 2055.63,291.367 c 0,59.512 -96.62,107.813 -215.65,107.813 -119.04,0 -215.66,-48.301 -215.66,-107.813 0,-59.531 96.62,-107.832 215.66,-107.832 119.03,0 215.65,48.301 215.65,107.832 v 0" style="fill:#fff;fill-opacity:1;fill-rule:evenodd;stroke:none"/><path id="path122" d="m 2055.63,291.367 c 0,59.512 -96.62,107.813 -215.65,107.813 -119.04,0 -215.66,-48.301 -215.66,-107.813 0,-59.531 96.62,-107.832 215.66,-107.832 119.03,0 215.65,48.301 215.65,107.832 z" style="fill:none;stroke:#231f20;stroke-width:10;stroke-linecap:butt;stroke-linejoin:miter;stroke-miterlimit:10;stroke-dasharray:none;stroke-opacity:1"/><g id="g124" transform="scale(10)"><text id="text128" transform="matrix(1,0,0,-1,169.609,26.2305)" style="font-style:italic;font-variant:normal;font-size:10px;font-family:'Times New Roman';-inkscape-font-specification:Times-Italic;writing-mode:lr-tb;fill:#231f20;fill-opacity:1;fill-rule:nonzero;stroke:none"><tspan id="tspan126" x="0 6.11 8.89 13.89 18.33 23.33" y="0">Flavor</tspan></text></g><path id="path130" d="M 1786.01,424.707 1538.88,639.195" style="fill:none;stroke:#231f20;stroke-width:10;stroke-linecap:butt;stroke-linejoin:miter;stroke-miterlimit:10;stroke-dasharray:none;stroke-opacity:1"/><path id="path132" d="m 1750.02,483.48 66.21,-84.3 -98.09,43.23" style="fill:#231f20;fill-opacity:1;fill-rule:evenodd;stroke:none"/><path id="path134" d="m 1902.29,427.348 239.92,211.847" style="fill:none;stroke:#231f20;stroke-width:10;stroke-linecap:butt;stroke-linejoin:miter;stroke-miterlimit:10;stroke-dasharray:none;stroke-opacity:1"/><path id="path136" d="m 1962.94,442.41 -98.1,-43.23 66.2,84.3" style="fill:#231f20;fill-opacity:1;fill-rule:evenodd;stroke:none"/></g></g></svg>