<svg xmlns="http://www.w3.org/2000/svg" xmlns:svg="http://www.w3.org/2000/svg" id="svg2" width="384.867" height="193.867" version="1.1" viewBox="0 0 384.867 193.867" xml:space="preserve"><metadata id="metadata8"/><g id="g10" transform="matrix(1.3333333,0,0,-1.3333333,0,193.86667)"><g id="g12" transform="scale(0.1)"><path id="path14" d="M 187.555,6.03125 V 1447.93 H 1629.45 V 6.03125 Z" style="fill:none;stroke:#231f20;stroke-width:12.06599998;stroke-linecap:butt;stroke-linejoin:miter;stroke-miterlimit:10;stroke-dasharray:none;stroke-opacity:1"/><path id="path16" d="m 1520.84,229.25 h 168.92 m -500.73,331.82 h 54.3 V 168.922 h 54.3 M 857.219,892.887 h 54.297 V 500.738 h 54.3 M 525.398,1224.7 h 54.297 V 838.582 H 634 m 886.84,-555.031 h 168.92 m -500.73,331.816 h 500.73 M 857.219,947.184 H 1689.76 M 525.398,1279 H 1689.76 M 133.254,229.25 H 1297.63 M 133.254,283.551 H 1297.63 M 133.254,561.07 H 965.816 M 133.254,615.367 H 965.816 M 133.254,892.887 H 634 M 133.254,947.184 H 634 M 133.254,1224.7 H 302.18 M 133.254,1279 H 302.18" style="fill:none;stroke:#231f20;stroke-width:6.03299999;stroke-linecap:butt;stroke-linejoin:miter;stroke-miterlimit:10;stroke-dasharray:none;stroke-opacity:1"/><g id="g18" transform="scale(10)"><text id="text22" transform="matrix(1,0,0,-1,171.843,125.694)" style="font-style:italic;font-variant:normal;font-size:8px;font-family:'Times New Roman';-inkscape-font-specification:Times-Italic;writing-mode:lr-tb;fill:#231f20;fill-opacity:1;fill-rule:nonzero;stroke:none"><tspan id="tspan20" x="0" y="0">Z</tspan></text><text id="text26" transform="matrix(1,0,0,-1,176.29222,123.694)" style="font-variant:normal;font-weight:400;font-size:6px;font-family:'Times New Roman';-inkscape-font-specification:Times-Roman;writing-mode:lr-tb;fill:#231f20;fill-opacity:1;fill-rule:nonzero;stroke:none"><tspan id="tspan24" x="0" y="0">0</tspan></text><text id="text30" transform="matrix(1,0,0,-1,171.843,92.5128)" style="font-style:italic;font-variant:normal;font-size:8px;font-family:'Times New Roman';-inkscape-font-specification:Times-Italic;writing-mode:lr-tb;fill:#231f20;fill-opacity:1;fill-rule:nonzero;stroke:none"><tspan id="tspan28" x="0" y="0">Z</tspan></text><text id="text34" transform="matrix(1,0,0,-1,176.29222,90.5128)" style="font-variant:normal;font-weight:400;font-size:6px;font-family:'Times New Roman';-inkscape-font-specification:Times-Roman;writing-mode:lr-tb;fill:#231f20;fill-opacity:1;fill-rule:nonzero;stroke:none"><tspan id="tspan32" x="0" y="0">1</tspan></text><text id="text38" transform="matrix(1,0,0,-1,171.843,58.3316)" style="font-style:italic;font-variant:normal;font-size:8px;font-family:'Times New Roman';-inkscape-font-specification:Times-Italic;writing-mode:lr-tb;fill:#231f20;fill-opacity:1;fill-rule:nonzero;stroke:none"><tspan id="tspan36" x="0" y="0">Z</tspan></text><text id="text42" transform="matrix(1,0,0,-1,176.29222,56.3316)" style="font-variant:normal;font-weight:400;font-size:6px;font-family:'Times New Roman';-inkscape-font-specification:Times-Roman;writing-mode:lr-tb;fill:#231f20;fill-opacity:1;fill-rule:nonzero;stroke:none"><tspan id="tspan40" x="0" y="0">2</tspan></text><text id="text46" transform="matrix(1,0,0,-1,171.843,27.355)" style="font-style:italic;font-variant:normal;font-size:8px;font-family:'Times New Roman';-inkscape-font-specification:Times-Italic;writing-mode:lr-tb;fill:#231f20;fill-opacity:1;fill-rule:nonzero;stroke:none"><tspan id="tspan44" x="0" y="0">Z</tspan></text><text id="text50" transform="matrix(1,0,0,-1,176.29222,25.355)" style="font-variant:normal;font-weight:400;font-size:6px;font-family:'Times New Roman';-inkscape-font-specification:Times-Roman;writing-mode:lr-tb;fill:#231f20;fill-opacity:1;fill-rule:nonzero;stroke:none"><tspan id="tspan48" x="0" y="0">3</tspan></text><text id="text54" transform="matrix(1,0,0,-1,171.843,18.49602)" style="font-style:italic;font-variant:normal;font-size:8px;font-family:'Times New Roman';-inkscape-font-specification:Times-Italic;writing-mode:lr-tb;fill:#231f20;fill-opacity:1;fill-rule:nonzero;stroke:none"><tspan id="tspan52" x="0" y="0">Z</tspan></text><text id="text58" transform="matrix(1,0,0,-1,176.29222,16.49602)" style="font-variant:normal;font-weight:400;font-size:6px;font-family:'Times New Roman';-inkscape-font-specification:Times-Roman;writing-mode:lr-tb;fill:#231f20;fill-opacity:1;fill-rule:nonzero;stroke:none"><tspan id="tspan56" x="0" y="0">4</tspan></text><text id="text62" transform="matrix(1,0,0,-1,0.24222,126.90002)" style="font-style:italic;font-variant:normal;font-size:8px;font-family:'Times New Roman';-inkscape-font-specification:Times-Italic;writing-mode:lr-tb;fill:#231f20;fill-opacity:1;fill-rule:nonzero;stroke:none"><tspan id="tspan60" x="0" y="0">X</tspan></text><text id="text66" transform="matrix(1,0,0,-1,5.12894,124.90002)" style="font-variant:normal;font-weight:400;font-size:6px;font-family:'Times New Roman';-inkscape-font-specification:Times-Roman;writing-mode:lr-tb;fill:#231f20;fill-opacity:1;fill-rule:nonzero;stroke:none"><tspan id="tspan64" x="0" y="0">0</tspan></text><text id="text70" transform="matrix(1,0,0,-1,0.24222,118.03986)" style="font-style:italic;font-variant:normal;font-size:8px;font-family:'Times New Roman';-inkscape-font-specification:Times-Italic;writing-mode:lr-tb;fill:#231f20;fill-opacity:1;fill-rule:nonzero;stroke:none"><tspan id="tspan68" x="0" y="0">Y</tspan></text><text id="text74" transform="matrix(1,0,0,-1,4.69144,116.03986)" style="font-variant:normal;font-weight:400;font-size:6px;font-family:'Times New Roman';-inkscape-font-specification:Times-Roman;writing-mode:lr-tb;fill:#231f20;fill-opacity:1;fill-rule:nonzero;stroke:none"><tspan id="tspan72" x="0" y="0">0</tspan></text><text id="text78" transform="matrix(1,0,0,-1,0.24222,93.71836)" style="font-style:italic;font-variant:normal;font-size:8px;font-family:'Times New Roman';-inkscape-font-specification:Times-Italic;writing-mode:lr-tb;fill:#231f20;fill-opacity:1;fill-rule:nonzero;stroke:none"><tspan id="tspan76" x="0" y="0">X</tspan></text><text id="text82" transform="matrix(1,0,0,-1,5.12894,91.71836)" style="font-variant:normal;font-weight:400;font-size:6px;font-family:'Times New Roman';-inkscape-font-specification:Times-Roman;writing-mode:lr-tb;fill:#231f20;fill-opacity:1;fill-rule:nonzero;stroke:none"><tspan id="tspan80" x="0" y="0">1</tspan></text><text id="text86" transform="matrix(1,0,0,-1,0.24222,84.8582)" style="font-style:italic;font-variant:normal;font-size:8px;font-family:'Times New Roman';-inkscape-font-specification:Times-Italic;writing-mode:lr-tb;fill:#231f20;fill-opacity:1;fill-rule:nonzero;stroke:none"><tspan id="tspan84" x="0" y="0">Y</tspan></text><text id="text90" transform="matrix(1,0,0,-1,4.69144,82.8582)" style="font-variant:normal;font-weight:400;font-size:6px;font-family:'Times New Roman';-inkscape-font-specification:Times-Roman;writing-mode:lr-tb;fill:#231f20;fill-opacity:1;fill-rule:nonzero;stroke:none"><tspan id="tspan88" x="0" y="0">1</tspan></text><text id="text94" transform="matrix(1,0,0,-1,0.24222,60.5367)" style="font-style:italic;font-variant:normal;font-size:8px;font-family:'Times New Roman';-inkscape-font-specification:Times-Italic;writing-mode:lr-tb;fill:#231f20;fill-opacity:1;fill-rule:nonzero;stroke:none"><tspan id="tspan92" x="0" y="0">X</tspan></text><text id="text98" transform="matrix(1,0,0,-1,5.12894,58.5367)" style="font-variant:normal;font-weight:400;font-size:6px;font-family:'Times New Roman';-inkscape-font-specification:Times-Roman;writing-mode:lr-tb;fill:#231f20;fill-opacity:1;fill-rule:nonzero;stroke:none"><tspan id="tspan96" x="0" y="0">2</tspan></text><text id="text102" transform="matrix(1,0,0,-1,0.24222,51.67615)" style="font-style:italic;font-variant:normal;font-size:8px;font-family:'Times New Roman';-inkscape-font-specification:Times-Italic;writing-mode:lr-tb;fill:#231f20;fill-opacity:1;fill-rule:nonzero;stroke:none"><tspan id="tspan100" x="0" y="0">Y</tspan></text><text id="text106" transform="matrix(1,0,0,-1,4.69144,49.67615)" style="font-variant:normal;font-weight:400;font-size:6px;font-family:'Times New Roman';-inkscape-font-specification:Times-Roman;writing-mode:lr-tb;fill:#231f20;fill-opacity:1;fill-rule:nonzero;stroke:none"><tspan id="tspan104" x="0" y="0">2</tspan></text><text id="text110" transform="matrix(1,0,0,-1,0.24222,27.35505)" style="font-style:italic;font-variant:normal;font-size:8px;font-family:'Times New Roman';-inkscape-font-specification:Times-Italic;writing-mode:lr-tb;fill:#231f20;fill-opacity:1;fill-rule:nonzero;stroke:none"><tspan id="tspan108" x="0" y="0">X</tspan></text><text id="text114" transform="matrix(1,0,0,-1,5.12894,25.35505)" style="font-variant:normal;font-weight:400;font-size:6px;font-family:'Times New Roman';-inkscape-font-specification:Times-Roman;writing-mode:lr-tb;fill:#231f20;fill-opacity:1;fill-rule:nonzero;stroke:none"><tspan id="tspan112" x="0" y="0">3</tspan></text><text id="text118" transform="matrix(1,0,0,-1,0.24222,18.49607)" style="font-style:italic;font-variant:normal;font-size:8px;font-family:'Times New Roman';-inkscape-font-specification:Times-Italic;writing-mode:lr-tb;fill:#231f20;fill-opacity:1;fill-rule:nonzero;stroke:none"><tspan id="tspan116" x="0" y="0">Y</tspan></text><text id="text122" transform="matrix(1,0,0,-1,4.69144,16.49607)" style="font-variant:normal;font-weight:400;font-size:6px;font-family:'Times New Roman';-inkscape-font-specification:Times-Roman;writing-mode:lr-tb;fill:#231f20;fill-opacity:1;fill-rule:nonzero;stroke:none"><tspan id="tspan120" x="0" y="0">3</tspan></text></g><path id="path124" d="M 302.18,1116.11 V 1333.3 H 525.398 V 1116.11 H 302.18" style="fill:#fff;fill-opacity:1;fill-rule:evenodd;stroke:none"/><path id="path126" d="M 302.18,1116.11 V 1333.3 H 525.398 V 1116.11 Z" style="fill:none;stroke:#231f20;stroke-width:12.06599998;stroke-linecap:butt;stroke-linejoin:miter;stroke-miterlimit:10;stroke-dasharray:none;stroke-opacity:1"/><g id="g128" transform="scale(10)"><text id="text132" transform="matrix(1,0,0,-1,35.6477,120.47)" style="font-style:italic;font-variant:normal;font-size:8px;font-family:'Times New Roman';-inkscape-font-specification:Times-Italic;writing-mode:lr-tb;fill:#231f20;fill-opacity:1;fill-rule:nonzero;stroke:none"><tspan id="tspan130" x="0 4.887" y="0">Ad</tspan></text><text id="text136" transform="matrix(1,0,0,-1,44.53442,118.47)" style="font-variant:normal;font-weight:400;font-size:6px;font-family:'Times New Roman';-inkscape-font-specification:Times-Roman;writing-mode:lr-tb;fill:#231f20;fill-opacity:1;fill-rule:nonzero;stroke:none"><tspan id="tspan134" x="0" y="0">0</tspan></text></g><path id="path138" d="M 634,778.258 V 1001.48 H 857.219 V 778.258 H 634" style="fill:#fff;fill-opacity:1;fill-rule:evenodd;stroke:none"/><path id="path140" d="M 634,778.258 V 1001.48 H 857.219 V 778.258 Z" style="fill:none;stroke:#231f20;stroke-width:12.06599998;stroke-linecap:butt;stroke-linejoin:miter;stroke-miterlimit:10;stroke-dasharray:none;stroke-opacity:1"/><g id="g142" transform="scale(10)"><text id="text146" transform="matrix(1,0,0,-1,68.8293,87.2887)" style="font-style:italic;font-variant:normal;font-size:8px;font-family:'Times New Roman';-inkscape-font-specification:Times-Italic;writing-mode:lr-tb;fill:#231f20;fill-opacity:1;fill-rule:nonzero;stroke:none"><tspan id="tspan144" x="0 4.887" y="0">Ad</tspan></text><text id="text150" transform="matrix(1,0,0,-1,77.71563,85.2887)" style="font-variant:normal;font-weight:400;font-size:6px;font-family:'Times New Roman';-inkscape-font-specification:Times-Roman;writing-mode:lr-tb;fill:#231f20;fill-opacity:1;fill-rule:nonzero;stroke:none"><tspan id="tspan148" x="0" y="0">1</tspan></text></g><path id="path152" d="M 965.816,446.43 V 669.664 H 1189.03 V 446.43 H 965.816" style="fill:#fff;fill-opacity:1;fill-rule:evenodd;stroke:none"/><path id="path154" d="M 965.816,446.43 V 669.664 H 1189.03 V 446.43 Z" style="fill:none;stroke:#231f20;stroke-width:12.06599998;stroke-linecap:butt;stroke-linejoin:miter;stroke-miterlimit:10;stroke-dasharray:none;stroke-opacity:1"/><g id="g156" transform="scale(10)"><text id="text160" transform="matrix(1,0,0,-1,102.011,54.107)" style="font-style:italic;font-variant:normal;font-size:8px;font-family:'Times New Roman';-inkscape-font-specification:Times-Italic;writing-mode:lr-tb;fill:#231f20;fill-opacity:1;fill-rule:nonzero;stroke:none"><tspan id="tspan158" x="0 4.887" y="0">Ad</tspan></text><text id="text164" transform="matrix(1,0,0,-1,110.89694,52.107)" style="font-variant:normal;font-weight:400;font-size:6px;font-family:'Times New Roman';-inkscape-font-specification:Times-Roman;writing-mode:lr-tb;fill:#231f20;fill-opacity:1;fill-rule:nonzero;stroke:none"><tspan id="tspan162" x="0" y="0">2</tspan></text></g><path id="path166" d="m 1297.63,114.621 v 223.231 h 223.21 V 114.621 h -223.21" style="fill:#fff;fill-opacity:1;fill-rule:evenodd;stroke:none"/><path id="path168" d="m 1297.63,114.621 v 223.231 h 223.21 V 114.621 Z" style="fill:none;stroke:#231f20;stroke-width:12.06599998;stroke-linecap:butt;stroke-linejoin:miter;stroke-miterlimit:10;stroke-dasharray:none;stroke-opacity:1"/><g id="g170" transform="scale(10)"><text id="text174" transform="matrix(1,0,0,-1,135.192,20.925)" style="font-style:italic;font-variant:normal;font-size:8px;font-family:'Times New Roman';-inkscape-font-specification:Times-Italic;writing-mode:lr-tb;fill:#231f20;fill-opacity:1;fill-rule:nonzero;stroke:none"><tspan id="tspan172" x="0 4.887" y="0">Ad</tspan></text><text id="text178" transform="matrix(1,0,0,-1,144.07872,18.925)" style="font-variant:normal;font-weight:400;font-size:6px;font-family:'Times New Roman';-inkscape-font-specification:Times-Roman;writing-mode:lr-tb;fill:#231f20;fill-opacity:1;fill-rule:nonzero;stroke:none"><tspan id="tspan176" x="0" y="0">3</tspan></text><text id="text182" transform="matrix(1,0,0,-1,279.62872,96.0023)" style="font-style:italic;font-variant:normal;font-size:8px;font-family:'Times New Roman';-inkscape-font-specification:Times-Italic;writing-mode:lr-tb;fill:#231f20;fill-opacity:1;fill-rule:nonzero;stroke:none"><tspan id="tspan180" x="0" y="0">X</tspan></text><text id="text186" transform="matrix(1,0,0,-1,284.51583,94.0023)" style="font-variant:normal;font-weight:400;font-size:6px;font-family:'Times New Roman';-inkscape-font-specification:Times-Roman;writing-mode:lr-tb;fill:#231f20;fill-opacity:1;fill-rule:nonzero;stroke:none"><tspan id="tspan184" x="0" y="0">0</tspan></text><text id="text190" transform="matrix(1,0,0,-1,264.24083,96.0023)" style="font-style:italic;font-variant:normal;font-size:8px;font-family:'Times New Roman';-inkscape-font-specification:Times-Italic;writing-mode:lr-tb;fill:#231f20;fill-opacity:1;fill-rule:nonzero;stroke:none"><tspan id="tspan188" x="0" y="0">X</tspan></text><text id="text194" transform="matrix(1,0,0,-1,269.12677,94.0023)" style="font-variant:normal;font-weight:400;font-size:6px;font-family:'Times New Roman';-inkscape-font-specification:Times-Roman;writing-mode:lr-tb;fill:#231f20;fill-opacity:1;fill-rule:nonzero;stroke:none"><tspan id="tspan192" x="0" y="0">1</tspan></text><text id="text198" transform="matrix(1,0,0,-1,248.85097,96.0023)" style="font-style:italic;font-variant:normal;font-size:8px;font-family:'Times New Roman';-inkscape-font-specification:Times-Italic;writing-mode:lr-tb;fill:#231f20;fill-opacity:1;fill-rule:nonzero;stroke:none"><tspan id="tspan196" x="0" y="0">X</tspan></text><text id="text202" transform="matrix(1,0,0,-1,253.73769,94.0023)" style="font-variant:normal;font-weight:400;font-size:6px;font-family:'Times New Roman';-inkscape-font-specification:Times-Roman;writing-mode:lr-tb;fill:#231f20;fill-opacity:1;fill-rule:nonzero;stroke:none"><tspan id="tspan200" x="0" y="0">2</tspan></text><text id="text206" transform="matrix(1,0,0,-1,233.46069,96.0023)" style="font-style:italic;font-variant:normal;font-size:8px;font-family:'Times New Roman';-inkscape-font-specification:Times-Italic;writing-mode:lr-tb;fill:#231f20;fill-opacity:1;fill-rule:nonzero;stroke:none"><tspan id="tspan204" x="0" y="0">X</tspan></text><text id="text210" transform="matrix(1,0,0,-1,238.3478,94.0023)" style="font-variant:normal;font-weight:400;font-size:6px;font-family:'Times New Roman';-inkscape-font-specification:Times-Roman;writing-mode:lr-tb;fill:#231f20;fill-opacity:1;fill-rule:nonzero;stroke:none"><tspan id="tspan208" x="0" y="0">3</tspan></text><text id="text214" transform="matrix(1,0,0,-1,279.8478,51.2777)" style="font-style:italic;font-variant:normal;font-size:8px;font-family:'Times New Roman';-inkscape-font-specification:Times-Italic;writing-mode:lr-tb;fill:#231f20;fill-opacity:1;fill-rule:nonzero;stroke:none"><tspan id="tspan212" x="0" y="0">Z</tspan></text><text id="text218" transform="matrix(1,0,0,-1,284.29663,49.2777)" style="font-variant:normal;font-weight:400;font-size:6px;font-family:'Times New Roman';-inkscape-font-specification:Times-Roman;writing-mode:lr-tb;fill:#231f20;fill-opacity:1;fill-rule:nonzero;stroke:none"><tspan id="tspan216" x="0" y="0">0</tspan></text><text id="text222" transform="matrix(1,0,0,-1,264.45873,51.2777)" style="font-style:italic;font-variant:normal;font-size:8px;font-family:'Times New Roman';-inkscape-font-specification:Times-Italic;writing-mode:lr-tb;fill:#231f20;fill-opacity:1;fill-rule:nonzero;stroke:none"><tspan id="tspan220" x="0" y="0">Z</tspan></text><text id="text226" transform="matrix(1,0,0,-1,268.90873,49.2777)" style="font-variant:normal;font-weight:400;font-size:6px;font-family:'Times New Roman';-inkscape-font-specification:Times-Roman;writing-mode:lr-tb;fill:#231f20;fill-opacity:1;fill-rule:nonzero;stroke:none"><tspan id="tspan224" x="0" y="0">1</tspan></text><text id="text230" transform="matrix(1,0,0,-1,249.06963,51.2777)" style="font-style:italic;font-variant:normal;font-size:8px;font-family:'Times New Roman';-inkscape-font-specification:Times-Italic;writing-mode:lr-tb;fill:#231f20;fill-opacity:1;fill-rule:nonzero;stroke:none"><tspan id="tspan228" x="0" y="0">Z</tspan></text><text id="text234" transform="matrix(1,0,0,-1,253.51885,49.2777)" style="font-variant:normal;font-weight:400;font-size:6px;font-family:'Times New Roman';-inkscape-font-specification:Times-Roman;writing-mode:lr-tb;fill:#231f20;fill-opacity:1;fill-rule:nonzero;stroke:none"><tspan id="tspan232" x="0" y="0">2</tspan></text><text id="text238" transform="matrix(1,0,0,-1,233.67975,51.2777)" style="font-style:italic;font-variant:normal;font-size:8px;font-family:'Times New Roman';-inkscape-font-specification:Times-Italic;writing-mode:lr-tb;fill:#231f20;fill-opacity:1;fill-rule:nonzero;stroke:none"><tspan id="tspan236" x="0" y="0">Z</tspan></text><text id="text242" transform="matrix(1,0,0,-1,238.12858,49.2777)" style="font-variant:normal;font-weight:400;font-size:6px;font-family:'Times New Roman';-inkscape-font-specification:Times-Roman;writing-mode:lr-tb;fill:#231f20;fill-opacity:1;fill-rule:nonzero;stroke:none"><tspan id="tspan240" x="0" y="0">3</tspan></text><text id="text246" transform="matrix(1,0,0,-1,218.50988,51.2777)" style="font-style:italic;font-variant:normal;font-size:8px;font-family:'Times New Roman';-inkscape-font-specification:Times-Italic;writing-mode:lr-tb;fill:#231f20;fill-opacity:1;fill-rule:nonzero;stroke:none"><tspan id="tspan244" x="0" y="0">Z</tspan></text><text id="text250" transform="matrix(1,0,0,-1,222.95871,49.2777)" style="font-variant:normal;font-weight:400;font-size:6px;font-family:'Times New Roman';-inkscape-font-specification:Times-Roman;writing-mode:lr-tb;fill:#231f20;fill-opacity:1;fill-rule:nonzero;stroke:none"><tspan id="tspan248" x="0" y="0">4</tspan></text><text id="text254" transform="matrix(1,0,0,-1,279.84781,77.3855)" style="font-style:italic;font-variant:normal;font-size:8px;font-family:'Times New Roman';-inkscape-font-specification:Times-Italic;writing-mode:lr-tb;fill:#231f20;fill-opacity:1;fill-rule:nonzero;stroke:none"><tspan id="tspan252" x="0" y="0">Y</tspan></text><text id="text258" transform="matrix(1,0,0,-1,284.29664,75.3855)" style="font-variant:normal;font-weight:400;font-size:6px;font-family:'Times New Roman';-inkscape-font-specification:Times-Roman;writing-mode:lr-tb;fill:#231f20;fill-opacity:1;fill-rule:nonzero;stroke:none"><tspan id="tspan256" x="0" y="0">0</tspan></text><text id="text262" transform="matrix(1,0,0,-1,264.45874,77.3855)" style="font-style:italic;font-variant:normal;font-size:8px;font-family:'Times New Roman';-inkscape-font-specification:Times-Italic;writing-mode:lr-tb;fill:#231f20;fill-opacity:1;fill-rule:nonzero;stroke:none"><tspan id="tspan260" x="0" y="0">Y</tspan></text><text id="text266" transform="matrix(1,0,0,-1,268.90874,75.3855)" style="font-variant:normal;font-weight:400;font-size:6px;font-family:'Times New Roman';-inkscape-font-specification:Times-Roman;writing-mode:lr-tb;fill:#231f20;fill-opacity:1;fill-rule:nonzero;stroke:none"><tspan id="tspan264" x="0" y="0">1</tspan></text><text id="text270" transform="matrix(1,0,0,-1,249.06964,77.3855)" style="font-style:italic;font-variant:normal;font-size:8px;font-family:'Times New Roman';-inkscape-font-specification:Times-Italic;writing-mode:lr-tb;fill:#231f20;fill-opacity:1;fill-rule:nonzero;stroke:none"><tspan id="tspan268" x="0" y="0">Y</tspan></text><text id="text274" transform="matrix(1,0,0,-1,253.51886,75.3855)" style="font-variant:normal;font-weight:400;font-size:6px;font-family:'Times New Roman';-inkscape-font-specification:Times-Roman;writing-mode:lr-tb;fill:#231f20;fill-opacity:1;fill-rule:nonzero;stroke:none"><tspan id="tspan272" x="0" y="0">2</tspan></text><text id="text278" transform="matrix(1,0,0,-1,233.67976,77.3855)" style="font-style:italic;font-variant:normal;font-size:8px;font-family:'Times New Roman';-inkscape-font-specification:Times-Italic;writing-mode:lr-tb;fill:#231f20;fill-opacity:1;fill-rule:nonzero;stroke:none"><tspan id="tspan276" x="0" y="0">Y</tspan></text><text id="text282" transform="matrix(1,0,0,-1,238.12859,75.3855)" style="font-variant:normal;font-weight:400;font-size:6px;font-family:'Times New Roman';-inkscape-font-specification:Times-Roman;writing-mode:lr-tb;fill:#231f20;fill-opacity:1;fill-rule:nonzero;stroke:none"><tspan id="tspan280" x="0" y="0">3</tspan></text><text id="text286" transform="matrix(1,0,0,-1,219.97859,75.331203)" style="font-variant:normal;font-weight:400;font-size:8px;font-family:'Times New Roman';-inkscape-font-specification:Times-Roman;writing-mode:lr-tb;fill:#231f20;fill-opacity:1;fill-rule:nonzero;stroke:none"><tspan id="tspan284" x="0" y="0">+</tspan></text></g><path id="path288" d="m 2161.47,658.395 h 725" style="fill:none;stroke:#231f20;stroke-width:12.06599998;stroke-linecap:butt;stroke-linejoin:miter;stroke-miterlimit:10;stroke-dasharray:none;stroke-opacity:1"/></g></g></svg>