<svg xmlns="http://www.w3.org/2000/svg" xmlns:svg="http://www.w3.org/2000/svg" id="svg2" width="193.72" height="254.4" version="1.1" viewBox="0 0 193.72 254.4" xml:space="preserve"><metadata id="metadata8"/><g id="g10" transform="matrix(1.3333333,0,0,-1.3333333,0,254.4)"><g id="g12" transform="scale(0.1)"><path id="path14" d="M 408.18,1222.46 730.715,876 M 412.418,1222.46 378.469,876 M 412.418,1222.46 5,876 m 1281.68,847.27 161.26,-70.31 m -161.26,70.31 -874.262,-351.55" style="fill:none;stroke:#231f20;stroke-width:10;stroke-linecap:round;stroke-linejoin:miter;stroke-miterlimit:10;stroke-dasharray:none;stroke-opacity:1"/><path id="path16" d="m 1288.18,1898.91 88.45,-167.08 h -176.91 l 88.46,167.08 v 0" style="fill:#c8c7c7;fill-opacity:1;fill-rule:evenodd;stroke:none"/><path id="path18" d="m 1288.18,1898.91 88.45,-167.08 h -176.91 l 88.46,167.08 z" style="fill:none;stroke:#231f20;stroke-width:8.48799992;stroke-linecap:butt;stroke-linejoin:miter;stroke-miterlimit:10;stroke-dasharray:none;stroke-opacity:1"/><path id="path20" d="m 412.418,1211.11 88.445,167.07 H 323.961 l 88.457,-167.07 v 0" style="fill:#c8c7c7;fill-opacity:1;fill-rule:evenodd;stroke:none"/><path id="path22" d="m 412.418,1211.11 88.445,167.07 H 323.961 l 88.457,-167.07 z" style="fill:none;stroke:#231f20;stroke-width:8.48799992;stroke-linecap:butt;stroke-linejoin:miter;stroke-miterlimit:10;stroke-dasharray:none;stroke-opacity:1"/><path id="path24" d="m 728.168,725.32 c 0,0 0,0 -2.117,-17.66 -2.121,-17.66 -6.36,-52.98 19.777,-58.629 26.125,-5.652 82.641,18.367 127.141,22.61 44.504,4.238 76.992,-11.313 65.691,-36.731 -11.297,-25.43 -66.402,-60.75 -81.238,-84.769 -14.824,-24.012 10.605,-36.731 43.098,-36.731 32.488,0 72.039,12.719 101.72,9.891 29.66,-2.832 49.44,-21.192 39.55,-43.09 -9.89,-21.891 -49.446,-47.32 -64.981,-70.629 -15.539,-23.312 -7.063,-44.512 16.953,-52.273 24.018,-7.778 63.568,-2.118 83.348,0.703 19.77,2.828 19.77,2.828 19.77,2.828" style="fill:none;stroke:#231f20;stroke-width:10;stroke-linecap:butt;stroke-linejoin:miter;stroke-miterlimit:10;stroke-dasharray:40,20;stroke-dashoffset:0;stroke-opacity:1"/><path id="path26" d="m 734.18,870.969 88.457,-167.09 H 645.723 l 88.457,167.09 v 0" style="fill:#c8c7c7;fill-opacity:1;fill-rule:evenodd;stroke:none"/><path id="path28" d="m 734.18,870.969 88.457,-167.09 H 645.723 l 88.457,167.09 z" style="fill:none;stroke:#231f20;stroke-width:8.48799992;stroke-linecap:butt;stroke-linejoin:miter;stroke-miterlimit:10;stroke-dasharray:none;stroke-opacity:1"/><path id="path30" d="m 1094.3,357.34 88.45,-167.078 h -176.9 l 88.45,167.078 v 0" style="fill:#c8c7c7;fill-opacity:1;fill-rule:evenodd;stroke:none"/><path id="path32" d="m 1094.3,357.34 88.45,-167.078 h -176.9 l 88.45,167.078 z" style="fill:none;stroke:#231f20;stroke-width:8.48799992;stroke-linecap:butt;stroke-linejoin:miter;stroke-miterlimit:10;stroke-dasharray:none;stroke-opacity:1"/><g id="g34" transform="scale(10)"><text id="text38" transform="matrix(1,0,0,-1,22.8867,126.376)" style="font-style:italic;font-variant:normal;font-size:10px;font-family:'Times New Roman';-inkscape-font-specification:Times-Italic;writing-mode:lr-tb;fill:#231f20;fill-opacity:1;fill-rule:nonzero;stroke:none"><tspan id="tspan36" x="0" y="0">n</tspan></text><text id="text42" transform="matrix(1,0,0,-1,27.8867,124.376)" style="font-variant:normal;font-weight:400;font-size:6px;font-family:'Times New Roman';-inkscape-font-specification:Times-Roman;writing-mode:lr-tb;fill:#231f20;fill-opacity:1;fill-rule:nonzero;stroke:none"><tspan id="tspan40" x="0" y="0">1</tspan></text><text id="text46" transform="matrix(1,0,0,-1,86.8867,78.8764)" style="font-style:italic;font-variant:normal;font-size:10px;font-family:'Times New Roman';-inkscape-font-specification:Times-Italic;writing-mode:lr-tb;fill:#231f20;fill-opacity:1;fill-rule:nonzero;stroke:none"><tspan id="tspan44" x="0" y="0">n</tspan></text><text id="text50" transform="matrix(1,0,0,-1,91.8867,76.8764)" style="font-variant:normal;font-weight:400;font-size:6px;font-family:'Times New Roman';-inkscape-font-specification:Times-Roman;writing-mode:lr-tb;fill:#231f20;fill-opacity:1;fill-rule:nonzero;stroke:none"><tspan id="tspan48" x="0" y="0">2</tspan></text><text id="text54" transform="matrix(1,0,0,-1,106.8031,6.1264)" style="font-style:italic;font-variant:normal;font-size:10px;font-family:'Times New Roman';-inkscape-font-specification:Times-Italic;writing-mode:lr-tb;fill:#231f20;fill-opacity:1;fill-rule:nonzero;stroke:none"><tspan id="tspan52" x="0" y="0">n</tspan></text><text id="text58" transform="matrix(1,0,0,-1,111.8031,4.1264)" style="font-style:italic;font-variant:normal;font-size:6px;font-family:'Times New Roman';-inkscape-font-specification:Times-Italic;writing-mode:lr-tb;fill:#231f20;fill-opacity:1;fill-rule:nonzero;stroke:none"><tspan id="tspan56" x="0" y="0">j</tspan></text></g></g></g></svg>