<svg xmlns="http://www.w3.org/2000/svg" xmlns:svg="http://www.w3.org/2000/svg" id="svg2" width="316.587" height="173.387" version="1.1" viewBox="0 0 316.587 173.387" xml:space="preserve"><metadata id="metadata8"/><g id="g10" transform="matrix(1.3333333,0,0,-1.3333333,0,173.38667)"><g id="g12" transform="scale(0.1)"><path id="path14" d="M 50.7852,5 V 1295.41 H 2356.88 L 2356.88,5 Z" style="fill:none;stroke:#231f20;stroke-width:10;stroke-linecap:butt;stroke-linejoin:miter;stroke-miterlimit:10;stroke-dasharray:none;stroke-opacity:1"/><path id="path16" d="m 1353.52,699.836 c 0,112.59 -91.38,203.969 -203.97,203.969 -112.6,0 -203.976,-91.379 -203.976,-203.969 0,-112.59 91.376,-203.973 203.976,-203.973 112.59,0 203.97,91.383 203.97,203.973 v 0" style="fill:#918f90;fill-opacity:1;fill-rule:evenodd;stroke:none"/><path id="path18" d="m 1353.52,699.836 c 0,112.59 -91.38,203.969 -203.97,203.969 -112.6,0 -203.976,-91.379 -203.976,-203.969 0,-112.59 91.376,-203.973 203.976,-203.973 112.59,0 203.97,91.383 203.97,203.973 z" style="fill:none;stroke:#231f20;stroke-width:10;stroke-linecap:butt;stroke-linejoin:miter;stroke-miterlimit:10;stroke-dasharray:none;stroke-opacity:1"/><path id="path20" d="m 2369.36,1020.84 c 0,6.9 -5.61,12.5 -12.49,12.5 -6.9,0 -12.49,-5.6 -12.49,-12.5 0,-6.89 5.59,-12.48 12.49,-12.48 6.88,0 12.49,5.59 12.49,12.48 v 0" style="fill:#231f20;fill-opacity:1;fill-rule:evenodd;stroke:none"/><path id="path22" d="m 2369.36,1020.84 c 0,6.9 -5.61,12.5 -12.49,12.5 -6.9,0 -12.49,-5.6 -12.49,-12.5 0,-6.89 5.59,-12.48 12.49,-12.48 6.88,0 12.49,5.59 12.49,12.48 z" style="fill:none;stroke:#231f20;stroke-width:10;stroke-linecap:butt;stroke-linejoin:miter;stroke-miterlimit:10;stroke-dasharray:none;stroke-opacity:1"/><path id="path24" d="m 1039.38,539.594 c 0,6.89 -5.6,12.484 -12.5,12.484 -6.89,0 -12.48,-5.594 -12.48,-12.484 0,-6.899 5.59,-12.489 12.48,-12.489 6.9,0 12.5,5.59 12.5,12.489 v 0" style="fill:#231f20;fill-opacity:1;fill-rule:evenodd;stroke:none"/><path id="path26" d="m 1039.38,539.594 c 0,6.89 -5.6,12.484 -12.5,12.484 -6.89,0 -12.48,-5.594 -12.48,-12.484 0,-6.899 5.59,-12.489 12.48,-12.489 6.9,0 12.5,5.59 12.5,12.489 z" style="fill:none;stroke:#231f20;stroke-width:10;stroke-linecap:butt;stroke-linejoin:miter;stroke-miterlimit:10;stroke-dasharray:none;stroke-opacity:1"/><path id="path28" d="m 1037.29,862.168 c 0,6.895 -5.6,12.484 -12.5,12.484 -6.89,0 -12.48,-5.589 -12.48,-12.484 0,-6.895 5.59,-12.488 12.48,-12.488 6.9,0 12.5,5.593 12.5,12.488 v 0" style="fill:#231f20;fill-opacity:1;fill-rule:evenodd;stroke:none"/><path id="path30" d="m 1037.29,862.168 c 0,6.895 -5.6,12.484 -12.5,12.484 -6.89,0 -12.48,-5.589 -12.48,-12.484 0,-6.895 5.59,-12.488 12.48,-12.488 6.9,0 12.5,5.593 12.5,12.488 z" style="fill:none;stroke:#231f20;stroke-width:10;stroke-linecap:butt;stroke-linejoin:miter;stroke-miterlimit:10;stroke-dasharray:none;stroke-opacity:1"/><path id="path32" d="m 957.949,704.531 c 0,6.895 -5.594,12.489 -12.488,12.489 -6.898,0 -12.492,-5.594 -12.492,-12.489 0,-6.894 5.594,-12.484 12.492,-12.484 6.894,0 12.488,5.59 12.488,12.484 v 0" style="fill:#231f20;fill-opacity:1;fill-rule:evenodd;stroke:none"/><path id="path34" d="m 957.949,704.531 c 0,6.895 -5.594,12.489 -12.488,12.489 -6.898,0 -12.492,-5.594 -12.492,-12.489 0,-6.894 5.594,-12.484 12.492,-12.484 6.894,0 12.488,5.59 12.488,12.484 z" style="fill:none;stroke:#231f20;stroke-width:10;stroke-linecap:butt;stroke-linejoin:miter;stroke-miterlimit:10;stroke-dasharray:none;stroke-opacity:1"/><path id="path36" d="m 63.2891,520.801 c 0,6.89 -5.5938,12.492 -12.4844,12.492 -6.8945,0 -12.4883,-5.602 -12.4883,-12.492 0,-6.891 5.5938,-12.492 12.4883,-12.492 6.8906,0 12.4844,5.601 12.4844,12.492 v 0" style="fill:#231f20;fill-opacity:1;fill-rule:evenodd;stroke:none"/><path id="path38" d="m 63.2891,520.801 c 0,6.89 -5.5938,12.492 -12.4844,12.492 -6.8945,0 -12.4883,-5.602 -12.4883,-12.492 0,-6.891 5.5938,-12.492 12.4883,-12.492 6.8906,0 12.4844,5.601 12.4844,12.492 z" style="fill:none;stroke:#231f20;stroke-width:10;stroke-linecap:butt;stroke-linejoin:miter;stroke-miterlimit:10;stroke-dasharray:none;stroke-opacity:1"/><path id="path40" d="m 63.2891,895.57 c 0,6.895 -5.5938,12.493 -12.4844,12.493 -6.8945,0 -12.4883,-5.598 -12.4883,-12.493 0,-6.89 5.5938,-12.484 12.4883,-12.484 6.8906,0 12.4844,5.594 12.4844,12.484 v 0" style="fill:#231f20;fill-opacity:1;fill-rule:evenodd;stroke:none"/><path id="path42" d="m 63.2891,895.57 c 0,6.895 -5.5938,12.493 -12.4844,12.493 -6.8945,0 -12.4883,-5.598 -12.4883,-12.493 0,-6.89 5.5938,-12.484 12.4883,-12.484 6.8906,0 12.4844,5.594 12.4844,12.484 z" style="fill:none;stroke:#231f20;stroke-width:10;stroke-linecap:butt;stroke-linejoin:miter;stroke-miterlimit:10;stroke-dasharray:none;stroke-opacity:1"/><path id="path44" d="m 2369.36,367.344 c 0,6.89 -5.61,12.48 -12.49,12.48 -6.9,0 -12.49,-5.59 -12.49,-12.48 0,-6.899 5.59,-12.485 12.49,-12.485 6.88,0 12.49,5.586 12.49,12.485 v 0" style="fill:#231f20;fill-opacity:1;fill-rule:evenodd;stroke:none"/><path id="path46" d="m 2369.36,367.344 c 0,6.89 -5.61,12.48 -12.49,12.48 -6.9,0 -12.49,-5.59 -12.49,-12.48 0,-6.899 5.59,-12.485 12.49,-12.485 6.88,0 12.49,5.586 12.49,12.485 z" style="fill:none;stroke:#231f20;stroke-width:10;stroke-linecap:butt;stroke-linejoin:miter;stroke-miterlimit:10;stroke-dasharray:none;stroke-opacity:1"/><path id="path48" d="m 5,487.859 v 66.61 h 83.2539 v -66.61 H 5" style="fill:#231f20;fill-opacity:1;fill-rule:evenodd;stroke:none"/><path id="path50" d="m 5,487.859 v 66.61 h 83.2539 v -66.61 z" style="fill:none;stroke:#231f20;stroke-width:10;stroke-linecap:butt;stroke-linejoin:miter;stroke-miterlimit:10;stroke-dasharray:none;stroke-opacity:1"/><path id="path52" d="m 88.2539,504.516 33.3011,-16.657 v 66.61 L 88.2539,537.816 v -33.3" style="fill:#231f20;fill-opacity:1;fill-rule:evenodd;stroke:none"/><path id="path54" d="m 88.2539,504.516 33.3011,-16.657 v 66.61 L 88.2539,537.816 Z" style="fill:none;stroke:#231f20;stroke-width:10;stroke-linecap:butt;stroke-linejoin:miter;stroke-miterlimit:10;stroke-dasharray:none;stroke-opacity:1"/><path id="path56" d="m 5,854.176 v 66.601 H 88.2539 V 854.176 H 5" style="fill:#231f20;fill-opacity:1;fill-rule:evenodd;stroke:none"/><path id="path58" d="m 5,854.176 v 66.601 h 83.2539 v -66.601 z" style="fill:none;stroke:#231f20;stroke-width:10;stroke-linecap:butt;stroke-linejoin:miter;stroke-miterlimit:10;stroke-dasharray:none;stroke-opacity:1"/><path id="path60" d="m 88.2539,870.824 33.3011,-16.648 v 66.601 L 88.2539,904.125 v -33.301" style="fill:#231f20;fill-opacity:1;fill-rule:evenodd;stroke:none"/><path id="path62" d="m 88.2539,870.824 33.3011,-16.648 v 66.601 L 88.2539,904.125 Z" style="fill:none;stroke:#231f20;stroke-width:10;stroke-linecap:butt;stroke-linejoin:miter;stroke-miterlimit:10;stroke-dasharray:none;stroke-opacity:1"/><g id="g64" transform="scale(10)"><text id="text80" transform="matrix(1,0,0,-1,224.174,27.7238)" style="font-variant:normal;font-weight:400;font-size:10px;font-family:Helvetica;-inkscape-font-specification:Helvetica;writing-mode:lr-tb;fill:#231f20;fill-opacity:1;fill-rule:nonzero;stroke:none"><tspan id="tspan66" x="0" y="0">E</tspan><tspan id="tspan68" x="-127.334" y="-63.666">A</tspan><tspan id="tspan70" x="-141.084" y="-39.166">B</tspan><tspan id="tspan72" x="-129.334" y="-14.166">C</tspan><tspan id="tspan74" x="-214.75" y="-46.5">X</tspan><tspan id="tspan76" x="-215" y="-9.75">Y</tspan><tspan id="tspan78" x="0" y="-75.25">D</tspan></text></g></g></g></svg>