<svg xmlns="http://www.w3.org/2000/svg" xmlns:svg="http://www.w3.org/2000/svg" id="svg2" width="368.84" height="202.267" version="1.1" viewBox="0 0 368.84 202.267" xml:space="preserve"><metadata id="metadata8"/><g id="g10" transform="matrix(1.3333333,0,0,-1.3333333,0,202.26667)"><g id="g12" transform="scale(0.1)"><path id="path14" d="M 646.848,1349.41 390.211,1116.1" style="fill:none;stroke:#231f20;stroke-width:8.78199959;stroke-linecap:butt;stroke-linejoin:miter;stroke-miterlimit:10;stroke-dasharray:none;stroke-opacity:1"/><path id="path16" d="m 476.992,1157.72 -100.179,-53.79 63.074,94.61" style="fill:#231f20;fill-opacity:1;fill-rule:evenodd;stroke:none"/><path id="path18" d="m 469.961,1158.93 -79.75,-42.83 50.215,75.33" style="fill:none;stroke:#231f20;stroke-width:8.78199959;stroke-linecap:butt;stroke-linejoin:miter;stroke-miterlimit:10;stroke-dasharray:none;stroke-opacity:1"/><path id="path20" d="m 933.91,1336.37 298.2,-232.93" style="fill:none;stroke:#231f20;stroke-width:8.78199959;stroke-linecap:butt;stroke-linejoin:miter;stroke-miterlimit:10;stroke-dasharray:none;stroke-opacity:1"/><path id="path22" d="m 1176.67,1182.11 69.67,-89.86 -103.76,46.51" style="fill:#231f20;fill-opacity:1;fill-rule:evenodd;stroke:none"/><path id="path24" d="m 1176.65,1174.98 55.46,-71.54 -82.6,37.03" style="fill:none;stroke:#231f20;stroke-width:8.78199959;stroke-linecap:butt;stroke-linejoin:miter;stroke-miterlimit:10;stroke-dasharray:none;stroke-opacity:1"/><path id="path26" d="m 1445.63,921.547 306.4,-234.895" style="fill:none;stroke:#231f20;stroke-width:8.78199959;stroke-linecap:butt;stroke-linejoin:miter;stroke-miterlimit:10;stroke-dasharray:none;stroke-opacity:1"/><path id="path28" d="m 1697.08,765.668 69.12,-90.293 -103.47,47.141" style="fill:#231f20;fill-opacity:1;fill-rule:evenodd;stroke:none"/><path id="path30" d="m 1697.01,758.535 55.02,-71.883 -82.37,37.532" style="fill:none;stroke:#231f20;stroke-width:8.78199959;stroke-linecap:butt;stroke-linejoin:miter;stroke-miterlimit:10;stroke-dasharray:none;stroke-opacity:1"/><path id="path32" d="M 1938.93,500.672 V 225.539" style="fill:none;stroke:#231f20;stroke-width:8.78199959;stroke-linecap:butt;stroke-linejoin:miter;stroke-miterlimit:10;stroke-dasharray:none;stroke-opacity:1"/><path id="path34" d="M 1966.51,317.738 1938.93,207.43 1911.36,317.738" style="fill:#231f20;fill-opacity:1;fill-rule:evenodd;stroke:none"/><path id="path36" d="m 1960.89,313.359 -21.96,-87.82 -21.97,87.82" style="fill:none;stroke:#231f20;stroke-width:8.78199959;stroke-linecap:butt;stroke-linejoin:miter;stroke-miterlimit:10;stroke-dasharray:none;stroke-opacity:1"/><path id="path38" d="M 2384.28,927.605 2098,686.813" style="fill:none;stroke:#231f20;stroke-width:8.78199959;stroke-linecap:butt;stroke-linejoin:miter;stroke-miterlimit:10;stroke-dasharray:none;stroke-opacity:1"/><path id="path40" d="m 2185.71,726.422 -101.38,-51.469 65.23,93.137" style="fill:#231f20;fill-opacity:1;fill-rule:evenodd;stroke:none"/><path id="path42" d="m 2178.71,727.809 -80.71,-40.996 51.93,74.152" style="fill:none;stroke:#231f20;stroke-width:8.78199959;stroke-linecap:butt;stroke-linejoin:miter;stroke-miterlimit:10;stroke-dasharray:none;stroke-opacity:1"/><path id="path44" d="m 478.617,1019.52 c 0,57.13 -106.23,103.51 -237.117,103.51 -130.887,0 -237.10937,-46.38 -237.10937,-103.51 0,-57.153 106.22237,-103.532 237.10937,-103.532 130.887,0 237.117,46.379 237.117,103.532" style="fill:#fff;fill-opacity:1;fill-rule:evenodd;stroke:none"/><path id="path46" d="m 478.617,1019.52 c 0,57.13 -106.23,103.51 -237.117,103.51 -130.887,0 -237.10937,-46.38 -237.10937,-103.51 0,-57.153 106.22237,-103.532 237.10937,-103.532 130.887,0 237.117,46.379 237.117,103.532" style="fill:none;stroke:#231f20;stroke-width:8.78199959;stroke-linecap:butt;stroke-linejoin:miter;stroke-miterlimit:10;stroke-dasharray:none;stroke-opacity:1"/><g id="g48" transform="scale(10)"><text id="text52" transform="matrix(1,0,0,-1,13.0684,99.0961)" style="font-style:italic;font-variant:normal;font-size:9px;font-family:'Times New Roman';-inkscape-font-specification:Times-Italic;writing-mode:lr-tb;fill:#231f20;fill-opacity:1;fill-rule:nonzero;stroke:none"><tspan id="tspan50" x="0 5.499 9.999 14.499 17.001" y="0">Radio</tspan></text></g><path id="path54" d="m 1049.45,1414.59 c 0,54.12 -110.157,98.06 -245.895,98.06 -135.735,0 -245.895,-43.94 -245.895,-98.06 0,-54.14 110.16,-98.08 245.895,-98.08 135.738,0 245.895,43.94 245.895,98.08" style="fill:#fff;fill-opacity:1;fill-rule:evenodd;stroke:none"/><path id="path56" d="m 1049.45,1414.59 c 0,54.12 -110.157,98.06 -245.895,98.06 -135.735,0 -245.895,-43.94 -245.895,-98.06 0,-54.14 110.16,-98.08 245.895,-98.08 135.738,0 245.895,43.94 245.895,98.08" style="fill:none;stroke:#231f20;stroke-width:8.78199959;stroke-linecap:butt;stroke-linejoin:miter;stroke-miterlimit:10;stroke-dasharray:none;stroke-opacity:1"/><g id="g58" transform="scale(10)"><text id="text62" transform="matrix(1,0,0,-1,65.9453,139.405)" style="font-style:italic;font-variant:normal;font-size:9px;font-family:'Times New Roman';-inkscape-font-specification:Times-Italic;writing-mode:lr-tb;fill:#231f20;fill-opacity:1;fill-rule:nonzero;stroke:none"><tspan id="tspan60" x="0 5.499 9.999 12.501 15.003 18.999 22.5" y="0">Battery</tspan></text></g><path id="path64" d="m 1612.54,1011.66 c 0,54.14 -110.16,98.07 -245.9,98.07 -135.74,0 -245.89,-43.93 -245.89,-98.07 0,-54.137 110.15,-98.062 245.89,-98.062 135.74,0 245.9,43.925 245.9,98.062" style="fill:#fff;fill-opacity:1;fill-rule:evenodd;stroke:none"/><path id="path66" d="m 1612.54,1011.66 c 0,54.14 -110.16,98.07 -245.9,98.07 -135.74,0 -245.89,-43.93 -245.89,-98.07 0,-54.137 110.15,-98.062 245.89,-98.062 135.74,0 245.9,43.925 245.9,98.062" style="fill:none;stroke:#231f20;stroke-width:8.78199959;stroke-linecap:butt;stroke-linejoin:miter;stroke-miterlimit:10;stroke-dasharray:none;stroke-opacity:1"/><g id="g68" transform="scale(10)"><text id="text72" transform="matrix(1,0,0,-1,120.916,99.0395)" style="font-style:italic;font-variant:normal;font-size:9px;font-family:'Times New Roman';-inkscape-font-specification:Times-Italic;writing-mode:lr-tb;fill:#231f20;fill-opacity:1;fill-rule:nonzero;stroke:none"><tspan id="tspan70" x="0 2.997 7.497 11.997 14.499 17.001 19.503 24.003" y="0">Ignition</tspan></text></g><path id="path74" d="m 2761.91,1005.92 c 0,54.13 -110.17,98.07 -245.89,98.07 -135.77,0 -245.9,-43.94 -245.9,-98.07 0,-54.131 110.13,-98.065 245.9,-98.065 135.72,0 245.89,43.934 245.89,98.065" style="fill:#fff;fill-opacity:1;fill-rule:evenodd;stroke:none"/><path id="path76" d="m 2761.91,1005.92 c 0,54.13 -110.17,98.07 -245.89,98.07 -135.77,0 -245.9,-43.94 -245.9,-98.07 0,-54.131 110.13,-98.065 245.9,-98.065 135.72,0 245.89,43.934 245.89,98.065" style="fill:none;stroke:#231f20;stroke-width:8.78199959;stroke-linecap:butt;stroke-linejoin:miter;stroke-miterlimit:10;stroke-dasharray:none;stroke-opacity:1"/><g id="g78" transform="scale(10)"><text id="text82" transform="matrix(1,0,0,-1,244.434,98.1145)" style="font-style:italic;font-variant:normal;font-size:9px;font-family:'Times New Roman';-inkscape-font-specification:Times-Italic;writing-mode:lr-tb;fill:#231f20;fill-opacity:1;fill-rule:nonzero;stroke:none"><tspan id="tspan80" x="0 6.498 10.998" y="0">Gas</tspan></text></g><path id="path84" d="m 2186.34,601.359 c 0,54.133 -110.16,98.071 -245.9,98.071 -135.73,0 -245.89,-43.938 -245.89,-98.071 0,-54.136 110.16,-98.07 245.89,-98.07 135.74,0 245.9,43.934 245.9,98.07" style="fill:#fff;fill-opacity:1;fill-rule:evenodd;stroke:none"/><path id="path86" d="m 2186.34,601.359 c 0,54.133 -110.16,98.071 -245.9,98.071 -135.73,0 -245.89,-43.938 -245.89,-98.071 0,-54.136 110.16,-98.07 245.89,-98.07 135.74,0 245.9,43.934 245.9,98.07" style="fill:none;stroke:#231f20;stroke-width:8.78199959;stroke-linecap:butt;stroke-linejoin:miter;stroke-miterlimit:10;stroke-dasharray:none;stroke-opacity:1"/><g id="g88" transform="scale(10)"><text id="text92" transform="matrix(1,0,0,-1,183.291,57.0824)" style="font-style:italic;font-variant:normal;font-size:9px;font-family:'Times New Roman';-inkscape-font-specification:Times-Italic;writing-mode:lr-tb;fill:#231f20;fill-opacity:1;fill-rule:nonzero;stroke:none"><tspan id="tspan90" x="0 4.5 7.002 11.502 15.003 17.505" y="0">Starts</tspan></text></g><path id="path94" d="m 2186.97,102.461 c 0,54.141 -110.15,98.078 -245.9,98.078 -135.73,0 -245.88,-43.937 -245.88,-98.078 0,-54.1329 110.15,-98.06256 245.88,-98.06256 135.75,0 245.9,43.92966 245.9,98.06256" style="fill:#fff;fill-opacity:1;fill-rule:evenodd;stroke:none"/><path id="path96" d="m 2186.97,102.461 c 0,54.141 -110.15,98.078 -245.9,98.078 -135.73,0 -245.88,-43.937 -245.88,-98.078 0,-54.1329 110.15,-98.06256 245.88,-98.06256 135.75,0 245.9,43.92966 245.9,98.06256" style="fill:none;stroke:#231f20;stroke-width:8.78199959;stroke-linecap:butt;stroke-linejoin:miter;stroke-miterlimit:10;stroke-dasharray:none;stroke-opacity:1"/><g id="g98" transform="scale(10)"><text id="text102" transform="matrix(1,0,0,-1,181.698,7.69492)" style="font-style:italic;font-variant:normal;font-size:9px;font-family:'Times New Roman';-inkscape-font-specification:Times-Italic;writing-mode:lr-tb;fill:#231f20;fill-opacity:1;fill-rule:nonzero;stroke:none"><tspan id="tspan100" x="0 7.497 11.997 15.993 19.989" y="0">Moves</tspan></text></g></g></g></svg>