<svg xmlns="http://www.w3.org/2000/svg" xmlns:svg="http://www.w3.org/2000/svg" id="svg2" width="344.52" height="146.027" version="1.1" viewBox="0 0 344.52 146.027" xml:space="preserve"><metadata id="metadata8"/><g id="g10" transform="matrix(1.3333333,0,0,-1.3333333,0,146.02667)"><g id="g12" transform="scale(0.1)"><g id="g14" transform="scale(10)"><text id="text22" transform="matrix(1,0,0,-1,135.881,3.74297)" style="font-variant:normal;font-weight:400;font-size:8px;font-family:'Times New Roman';-inkscape-font-specification:Times-Roman;writing-mode:lr-tb;fill:#231f20;fill-opacity:1;fill-rule:nonzero;stroke:none"><tspan id="tspan16" x="0 5.336 8.888 12.44 14.664 17.328 19.552 23.104" y="0">Beatrice</tspan><tspan id="tspan18" x="-.203 5.573 9.573 13.573 16.237 19.789" y="-36.947">Andrew</tspan><tspan id="tspan20" x="34.193 39.081 43.081 47.081 50.633 54.633 56.857" y="0">Eugenie</tspan></text></g><path id="path24" d="M 1666.53,393.953 1486.46,130.137" style="fill:none;stroke:#231f20;stroke-width:4.93300009;stroke-linecap:butt;stroke-linejoin:miter;stroke-miterlimit:10;stroke-dasharray:none;stroke-opacity:1"/><path id="path26" d="m 1528.46,164.18 -47.74,-42.442 22.15,59.91" style="fill:#231f20;fill-opacity:1;fill-rule:evenodd;stroke:none"/><path id="path28" d="m 1668.73,397.129 180.09,-266.992 m -324.37,33.789 -37.99,-33.789 17.62,47.695" style="fill:none;stroke:#231f20;stroke-width:4.93300009;stroke-linecap:butt;stroke-linejoin:miter;stroke-miterlimit:10;stroke-dasharray:none;stroke-opacity:1"/><path id="path30" d="m 1832.7,181.738 21.8,-60.039 -47.49,42.715" style="fill:#231f20;fill-opacity:1;fill-rule:evenodd;stroke:none"/><path id="path32" d="m 1831.46,177.93 17.36,-47.793 -37.81,34.004" style="fill:none;stroke:#231f20;stroke-width:4.93300009;stroke-linecap:butt;stroke-linejoin:miter;stroke-miterlimit:10;stroke-dasharray:none;stroke-opacity:1"/><g id="g34" transform="scale(10)"><text id="text42" transform="matrix(1,0,0,-1,16.6801,3.74297)" style="font-variant:normal;font-weight:400;font-size:8px;font-family:'Times New Roman';-inkscape-font-specification:Times-Roman;writing-mode:lr-tb;fill:#231f20;fill-opacity:1;fill-rule:nonzero;stroke:none"><tspan id="tspan36" x="0 7.552 9.776 12 14.224 16.448 20 31.572 37.348 40.9 43.564 46.228" y="0">WilliamHarry</tspan><tspan id="tspan38" x="29.451 34.787 38.787 42.339 45.003 47.227 50.779 1.219 6.995 9.219 12.771 16.771" y="-36.726">CharlesDiana</tspan><tspan id="tspan40" x="133.232 140.344 144.344" y="-99.121">Mum</tspan></text><text id="text46" transform="matrix(1,0,0,-1,116.1193,102.86407)" style="font-variant:normal;font-weight:400;font-size:8px;font-family:'Times New Roman';-inkscape-font-specification:TimesNewRomanPSMT;writing-mode:lr-tb;fill:#231f20;fill-opacity:1;fill-rule:nonzero;stroke:none"><tspan id="tspan44" x="0 5.776 9.328 13.328 15.992 19.992" y="0">George</tspan></text><text id="text50" transform="matrix(0.999946,0.0104,0.0104,-0.999946,135.186,73.2172)" style="font-variant:normal;font-weight:400;font-size:8.00003052px;font-family:'Times New Roman';-inkscape-font-specification:Times-Roman;writing-mode:lr-tb;fill:#231f20;fill-opacity:1;fill-rule:nonzero;stroke:none"><tspan id="tspan48" x="0 4.449 8.449 10.672 12.895 15.117" y="0">Philip</tspan></text><text id="text58" transform="matrix(1,0,0,-1,93.9402,73.3523)" style="font-variant:normal;font-weight:400;font-size:8px;font-family:'Times New Roman';-inkscape-font-specification:Times-Roman;writing-mode:lr-tb;fill:#231f20;fill-opacity:1;fill-rule:nonzero;stroke:none"><tspan id="tspan52" x="0 4.888 7.112 9.336 12.888 16.44 20.44 23.992 26.216" y="0">Elizabeth</tspan><tspan id="tspan54" x="85.629 92.741 96.293 98.957 102.957 106.509 109.173 112.725" y="-.052">Margaret</tspan><tspan id="tspan56" x="-58.141 -52.365 -48.365 -44.365 -93.94 -89.492 -85.492 -81.94 -77.94 -74.388 -70.836" y="0">KyddSpencer</tspan></text></g><path id="path60" d="M 1443.34,1014.34 1140.27,824.008" style="fill:none;stroke:#231f20;stroke-width:4.93300009;stroke-linecap:butt;stroke-linejoin:miter;stroke-miterlimit:10;stroke-dasharray:none;stroke-opacity:1"/><path id="path62" d="m 1192.38,838.438 -60.72,-19.84 44.24,46.078" style="fill:#231f20;fill-opacity:1;fill-rule:evenodd;stroke:none"/><path id="path64" d="m 1188.61,839.801 -48.34,-15.793 35.22,36.68" style="fill:none;stroke:#231f20;stroke-width:4.93300009;stroke-linecap:butt;stroke-linejoin:miter;stroke-miterlimit:10;stroke-dasharray:none;stroke-opacity:1"/><path id="path66" d="M 1443.34,1014.34 1867.18,824.008" style="fill:none;stroke:#231f20;stroke-width:4.93300009;stroke-linecap:butt;stroke-linejoin:miter;stroke-miterlimit:10;stroke-dasharray:none;stroke-opacity:1"/><path id="path68" d="m 1826.27,859.359 50.19,-39.515 -62.88,11.25" style="fill:#231f20;fill-opacity:1;fill-rule:evenodd;stroke:none"/><path id="path70" d="m 1827.23,855.469 39.95,-31.461 -50.05,8.957" style="fill:none;stroke:#231f20;stroke-width:4.93300009;stroke-linecap:butt;stroke-linejoin:miter;stroke-miterlimit:10;stroke-dasharray:none;stroke-opacity:1"/><path id="path72" d="M 1303.16,713.977 607.152,483.816" style="fill:none;stroke:#231f20;stroke-width:4.93300009;stroke-linecap:butt;stroke-linejoin:miter;stroke-miterlimit:10;stroke-dasharray:none;stroke-opacity:1"/><path id="path74" d="m 632.563,476.152 -63.254,-8.886 51.644,37.605" style="fill:#231f20;fill-opacity:1;fill-rule:evenodd;stroke:none"/><path id="path76" d="m 1306.36,720.75 182.5,-230.156" style="fill:none;stroke:#231f20;stroke-width:4.93300009;stroke-linecap:butt;stroke-linejoin:miter;stroke-miterlimit:10;stroke-dasharray:none;stroke-opacity:1"/><path id="path78" d="m 1482.29,524.727 24.98,-58.789 -49.71,40.101" style="fill:#231f20;fill-opacity:1;fill-rule:evenodd;stroke:none"/><path id="path80" d="M 1302.71,718.266 911.508,488.105" style="fill:none;stroke:#231f20;stroke-width:4.93300009;stroke-linecap:butt;stroke-linejoin:miter;stroke-miterlimit:10;stroke-dasharray:none;stroke-opacity:1"/><path id="path82" d="m 934.707,484.473 -61.988,-15.442 47.433,42.785" style="fill:#231f20;fill-opacity:1;fill-rule:evenodd;stroke:none"/><path id="path84" d="M 414.961,393.953 261.234,130.137" style="fill:none;stroke:#231f20;stroke-width:4.93300009;stroke-linecap:butt;stroke-linejoin:miter;stroke-miterlimit:10;stroke-dasharray:none;stroke-opacity:1"/><path id="path86" d="m 300.703,167.09 -44.586,-45.742 17.813,61.347" style="fill:#231f20;fill-opacity:1;fill-rule:evenodd;stroke:none"/><path id="path88" d="m 296.73,166.551 -35.496,-36.414 14.18,48.828" style="fill:none;stroke:#231f20;stroke-width:4.93300009;stroke-linecap:butt;stroke-linejoin:miter;stroke-miterlimit:10;stroke-dasharray:none;stroke-opacity:1"/><path id="path90" d="M 414.961,393.953 575.277,130.137" style="fill:none;stroke:#231f20;stroke-width:4.93300009;stroke-linecap:butt;stroke-linejoin:miter;stroke-miterlimit:10;stroke-dasharray:none;stroke-opacity:1"/><path id="path92" d="m 561.617,182.449 18.942,-61.004 -45.418,44.91" style="fill:#231f20;fill-opacity:1;fill-rule:evenodd;stroke:none"/><path id="path94" d="m 560.195,178.699 15.082,-48.562 -36.16,35.75" style="fill:none;stroke:#231f20;stroke-width:4.93300009;stroke-linecap:butt;stroke-linejoin:miter;stroke-miterlimit:10;stroke-dasharray:none;stroke-opacity:1"/><path id="path96" d="M 307.773,720.773 275.313,492.734" style="fill:none;stroke:#231f20;stroke-width:4.93300009;stroke-linecap:butt;stroke-linejoin:miter;stroke-miterlimit:10;stroke-dasharray:none;stroke-opacity:1"/><path id="path98" d="m 296.348,532.723 -22.309,-59.852 -8.48,63.309" style="fill:#231f20;fill-opacity:1;fill-rule:evenodd;stroke:none"/><path id="path100" d="M 1302.37,718.152 2026.44,479.637" style="fill:none;stroke:#231f20;stroke-width:4.93300009;stroke-linecap:butt;stroke-linejoin:miter;stroke-miterlimit:10;stroke-dasharray:none;stroke-opacity:1"/><path id="path102" d="m 1998.73,504.965 50.62,-38.942 -63,10.547" style="fill:#231f20;fill-opacity:1;fill-rule:evenodd;stroke:none"/><g id="g104" transform="scale(10)"><text id="text112" transform="matrix(1,0,0,-1,78.6047,3.74297)" style="font-variant:normal;font-weight:400;font-size:8px;font-family:'Times New Roman';-inkscape-font-specification:Times-Roman;writing-mode:lr-tb;fill:#231f20;fill-opacity:1;fill-rule:nonzero;stroke:none"><tspan id="tspan106" x="0 4.448 8 10.224 13.776" y="0">Peter</tspan><tspan id="tspan108" x="28.801 35.913 39.465 42.129" y="-36.836">Mark</tspan><tspan id="tspan110" x="35.573 40.461 44.013 46.677" y="0">Zara</tspan></text></g><path id="path114" d="M 1029.59,393.953 875.863,130.137" style="fill:none;stroke:#231f20;stroke-width:4.93300009;stroke-linecap:butt;stroke-linejoin:miter;stroke-miterlimit:10;stroke-dasharray:none;stroke-opacity:1"/><path id="path116" d="m 915.332,167.09 -44.586,-45.742 17.809,61.347" style="fill:#231f20;fill-opacity:1;fill-rule:evenodd;stroke:none"/><path id="path118" d="M 1029.59,393.953 1192.1,130.137 m -280.745,36.414 -35.492,-36.414 14.18,48.828" style="fill:none;stroke:#231f20;stroke-width:4.93300009;stroke-linecap:butt;stroke-linejoin:miter;stroke-miterlimit:10;stroke-dasharray:none;stroke-opacity:1"/><path id="path120" d="m 1178.12,182.363 19.31,-60.89 -45.69,44.64" style="fill:#231f20;fill-opacity:1;fill-rule:evenodd;stroke:none"/><path id="path122" d="m 1176.74,178.602 15.36,-48.465 -36.38,35.535" style="fill:none;stroke:#231f20;stroke-width:4.93300009;stroke-linecap:butt;stroke-linejoin:miter;stroke-miterlimit:10;stroke-dasharray:none;stroke-opacity:1"/><g id="g124" transform="scale(10)"><text id="text132" transform="matrix(1,0,0,-1,80.7457,40.5789)" style="font-variant:normal;font-weight:400;font-size:8px;font-family:'Times New Roman';-inkscape-font-specification:Times-Roman;writing-mode:lr-tb;fill:#231f20;fill-opacity:1;fill-rule:nonzero;stroke:none"><tspan id="tspan126" x="0 5.776 9.776 13.776" y="0">Anne</tspan><tspan id="tspan128" x="90.434 94.882 98.434 101.098 104.65" y="-.111">Sarah</tspan><tspan id="tspan130" x="117.856 122.743 126.743 132.519 136.071 138.736" y="0">Edward</tspan></text></g><path id="path134" d="m 1424.16,1077.01 v -45.05 l 47.42,45.16 v -44.82 l -47.42,44.71" style="fill:#fff;fill-opacity:1;fill-rule:nonzero;stroke:none"/><path id="path136" d="m 1424.16,1077.01 v -45.05 l 47.42,45.16 v -44.82 z" style="fill:none;stroke:#231f20;stroke-width:7.5;stroke-linecap:butt;stroke-linejoin:miter;stroke-miterlimit:4;stroke-dasharray:none;stroke-opacity:1"/><path id="path138" d="M 284.109,781.895 V 736.84 l 47.43,45.168 V 737.18 l -47.43,44.715" style="fill:#fff;fill-opacity:1;fill-rule:nonzero;stroke:none"/><path id="path140" d="M 284.109,781.895 V 736.84 l 47.43,45.168 V 737.18 Z" style="fill:none;stroke:#231f20;stroke-width:7.5;stroke-linecap:butt;stroke-linejoin:miter;stroke-miterlimit:4;stroke-dasharray:none;stroke-opacity:1"/><path id="path142" d="M 1272.68,781.895 V 736.84 l 47.42,45.168 V 737.18 l -47.42,44.715" style="fill:#fff;fill-opacity:1;fill-rule:nonzero;stroke:none"/><path id="path144" d="M 1272.68,781.895 V 736.84 l 47.42,45.168 V 737.18 Z" style="fill:none;stroke:#231f20;stroke-width:7.5;stroke-linecap:butt;stroke-linejoin:miter;stroke-miterlimit:4;stroke-dasharray:none;stroke-opacity:1"/><path id="path146" d="m 391.949,453.055 v -45.059 l 47.426,45.168 V 408.34 l -47.426,44.715" style="fill:#fff;fill-opacity:1;fill-rule:nonzero;stroke:none"/><path id="path148" d="m 391.949,453.055 v -45.059 l 47.426,45.168 V 408.34 Z" style="fill:none;stroke:#231f20;stroke-width:7.5;stroke-linecap:butt;stroke-linejoin:miter;stroke-miterlimit:4;stroke-dasharray:none;stroke-opacity:1"/><path id="path150" d="m 1003.69,454.168 v -45.059 l 47.42,45.168 v -44.824 l -47.42,44.715" style="fill:#fff;fill-opacity:1;fill-rule:nonzero;stroke:none"/><path id="path152" d="m 1003.69,454.168 v -45.059 l 47.42,45.168 v -44.824 z" style="fill:none;stroke:#231f20;stroke-width:7.5;stroke-linecap:butt;stroke-linejoin:miter;stroke-miterlimit:4;stroke-dasharray:none;stroke-opacity:1"/><path id="path154" d="m 1639.41,455.281 v -45.058 l 47.45,45.168 v -44.825 l -47.45,44.715" style="fill:#fff;fill-opacity:1;fill-rule:nonzero;stroke:none"/><path id="path156" d="m 1639.41,455.281 v -45.058 l 47.45,45.168 v -44.825 z" style="fill:none;stroke:#231f20;stroke-width:7.5;stroke-linecap:butt;stroke-linejoin:miter;stroke-miterlimit:4;stroke-dasharray:none;stroke-opacity:1"/><path id="path158" d="m 2259.41,455.281 v -45.058 l 47.45,45.168 v -44.825 l -47.45,44.715" style="fill:#fff;fill-opacity:1;fill-rule:nonzero;stroke:none"/><path id="path160" d="m 2259.41,455.281 v -45.058 l 47.45,45.168 v -44.825 z" style="fill:none;stroke:#231f20;stroke-width:7.5;stroke-linecap:butt;stroke-linejoin:miter;stroke-miterlimit:4;stroke-dasharray:none;stroke-opacity:1"/><g id="g162" transform="scale(10)"><text id="text170" transform="matrix(1,0,0,-1,233.601,40.2129)" style="font-variant:normal;font-weight:400;font-size:8px;font-family:'Times New Roman';-inkscape-font-specification:Times-Roman;writing-mode:lr-tb;fill:#231f20;fill-opacity:1;fill-rule:nonzero;stroke:none"><tspan id="tspan164" x="0 4.448 8.448 12.448 16.448 18.672" y="0">Sophie</tspan><tspan id="tspan166" x="-27.959 -23.071 -19.071 -15.071 -12.847 -9.735" y="36.787">Louise</tspan><tspan id="tspan168" x="5.234 8.346 11.898 18.122 21.674" y="36.287">James</tspan></text></g><path id="path172" d="M 2289.14,390.781 2171.02,129.746" style="fill:none;stroke:#231f20;stroke-width:4.93300009;stroke-linecap:butt;stroke-linejoin:miter;stroke-miterlimit:10;stroke-dasharray:none;stroke-opacity:1"/><path id="path174" d="m 2202.38,166.355 -36.19,-52.636 7.17,63.476" style="fill:#231f20;fill-opacity:1;fill-rule:evenodd;stroke:none"/><path id="path176" d="M 2291.34,393.953 2471.43,126.961" style="fill:none;stroke:#231f20;stroke-width:4.93300009;stroke-linecap:butt;stroke-linejoin:miter;stroke-miterlimit:10;stroke-dasharray:none;stroke-opacity:1"/><path id="path178" d="m 2455.3,178.563 21.81,-60.04 -47.49,42.715" style="fill:#231f20;fill-opacity:1;fill-rule:evenodd;stroke:none"/><path id="path180" d="m 2454.06,174.754 17.37,-47.793 -37.82,34.004" style="fill:none;stroke:#231f20;stroke-width:4.93300009;stroke-linecap:butt;stroke-linejoin:miter;stroke-miterlimit:10;stroke-dasharray:none;stroke-opacity:1"/></g></g></svg>