<svg xmlns="http://www.w3.org/2000/svg" xmlns:svg="http://www.w3.org/2000/svg" id="svg2" width="408.227" height="206.133" version="1.1" viewBox="0 0 408.227 206.133" xml:space="preserve"><metadata id="metadata8"/><g id="g10" transform="matrix(1.3333333,0,0,-1.3333333,0,206.13333)"><g id="g12" transform="scale(0.1)"><path id="path14" d="M 1255.16,585.992 1073.1,1214.09 909.242,585.992 Z m 337.04,206.766 123.9,-571.188 263.34,248.981 z m 286.51,-120.293 v 819.265 h 523.41 V 672.465 Z M 281.148,26.1602 V 422.141 H 1532.79 V 26.1602 Z M 221.973,717.98 656.637,617.848 893.313,1136.71 602.016,1537.24 146.875,1127.61 Z M 2677.48,444.898 2679.76,133.121 2424.87,5.67969 2179.1,151.328 v 291.293 l 282.19,191.16 z M 2661.84,1505.6 2807.69,1350.64 2734.77,584.961 2470.41,1387.1 Z m -1071.24,31.73 218.78,-227.89 -528.71,-309.92 v 501.34 z" style="fill:none;stroke:#231f20;stroke-width:10;stroke-linecap:butt;stroke-linejoin:miter;stroke-miterlimit:10;stroke-dasharray:none;stroke-opacity:1"/><g id="g16" transform="scale(10)"><text id="text22" transform="matrix(1,0,0,-1,0,16.777)" style="font-variant:normal;font-weight:700;font-size:12px;font-family:Helvetica;-inkscape-font-specification:Helvetica-Bold;writing-mode:lr-tb;fill:#231f20;fill-opacity:1;fill-rule:nonzero;stroke:none"><tspan id="tspan18" x="0" y="0">S</tspan><tspan id="tspan20" x="296.835" y="-127.5">G</tspan></text></g><path id="path24" d="m 182.52,204.059 c 0,-9.668 -7.836,-17.5 -17.5,-17.5 -9.665,0 -17.5,7.832 -17.5,17.5 0,9.671 7.835,17.5 17.5,17.5 9.664,0 17.5,-7.829 17.5,-17.5" style="fill:#231f20;fill-opacity:1;fill-rule:nonzero;stroke:none"/><path id="path26" d="m 2897.52,1479.07 c 0,-9.67 -7.83,-17.5 -17.5,-17.5 -9.67,0 -17.5,7.83 -17.5,17.5 0,9.66 7.83,17.5 17.5,17.5 9.67,0 17.5,-7.84 17.5,-17.5" style="fill:#231f20;fill-opacity:1;fill-rule:nonzero;stroke:none"/></g></g></svg>