<svg xmlns="http://www.w3.org/2000/svg" xmlns:svg="http://www.w3.org/2000/svg" id="svg2" width="487.44" height="137.893" version="1.1" viewBox="0 0 487.44 137.893" xml:space="preserve"><metadata id="metadata8"/><g id="g10" transform="matrix(1.3333333,0,0,-1.3333333,0,137.89333)"><g id="g12" transform="scale(0.1)"><g id="g14" transform="scale(10)"><text id="text20" transform="matrix(1,0,0,-1,110.972,35.6094)" style="font-variant:normal;font-weight:400;font-size:10px;font-family:'Times New Roman';-inkscape-font-specification:Times-Roman;writing-mode:lr-tb;fill:#231f20;fill-opacity:1;fill-rule:nonzero;stroke:none"><tspan id="tspan16" x="0 3.3 8.25" y="0">-50</tspan><tspan id="tspan18" x="28.161 33.781 54.868 60.487 81.747 87.367" y=".25">+1+1+1</tspan></text></g><path id="path22" d="M 1312.95,514.57 V 776.754 H 3649.59 V 514.57 H 1312.95" style="fill:#a7a5a6;fill-opacity:1;fill-rule:evenodd;stroke:none"/><path id="path24" d="M 1307.5,1026.72 V 264.309" style="fill:none;stroke:#231f20;stroke-width:10;stroke-linecap:butt;stroke-linejoin:miter;stroke-miterlimit:10;stroke-dasharray:none;stroke-opacity:1"/><path id="path26" d="M 1574.72,1027.61 V 265.207" style="fill:none;stroke:#231f20;stroke-width:10;stroke-linecap:butt;stroke-linejoin:miter;stroke-miterlimit:10;stroke-dasharray:none;stroke-opacity:1"/><path id="path28" d="M 1842.46,1025.27 V 262.852" style="fill:none;stroke:#231f20;stroke-width:10;stroke-linecap:butt;stroke-linejoin:miter;stroke-miterlimit:10;stroke-dasharray:none;stroke-opacity:1"/><path id="path30" d="M 2109.68,1026.16 V 263.746" style="fill:none;stroke:#231f20;stroke-width:10;stroke-linecap:butt;stroke-linejoin:miter;stroke-miterlimit:10;stroke-dasharray:none;stroke-opacity:1"/><path id="path32" d="M 2572.58,1025.85 V 263.43" style="fill:none;stroke:#231f20;stroke-width:10;stroke-linecap:butt;stroke-linejoin:miter;stroke-miterlimit:10;stroke-dasharray:none;stroke-opacity:1"/><path id="path34" d="M 2839.79,1026.74 V 264.32" style="fill:none;stroke:#231f20;stroke-width:10;stroke-linecap:butt;stroke-linejoin:miter;stroke-miterlimit:10;stroke-dasharray:none;stroke-opacity:1"/><path id="path36" d="M 3107.55,1024.39 V 261.98" style="fill:none;stroke:#231f20;stroke-width:10;stroke-linecap:butt;stroke-linejoin:miter;stroke-miterlimit:10;stroke-dasharray:none;stroke-opacity:1"/><path id="path38" d="M 3374.77,1025.28 V 262.875" style="fill:none;stroke:#231f20;stroke-width:10;stroke-linecap:butt;stroke-linejoin:miter;stroke-miterlimit:10;stroke-dasharray:none;stroke-opacity:1"/><path id="path40" d="M 1043.58,777.227 H 3648.72" style="fill:none;stroke:#231f20;stroke-width:10;stroke-linecap:butt;stroke-linejoin:miter;stroke-miterlimit:10;stroke-dasharray:none;stroke-opacity:1"/><path id="path42" d="M 1043.89,514.875 H 3649.02" style="fill:none;stroke:#231f20;stroke-width:10;stroke-linecap:butt;stroke-linejoin:miter;stroke-miterlimit:10;stroke-dasharray:none;stroke-opacity:1"/><path id="path44" d="M 1047.1,1027.47 H 3650.76 V 258.813 H 1047.1 Z" style="fill:none;stroke:#231f20;stroke-width:10;stroke-linecap:butt;stroke-linejoin:miter;stroke-miterlimit:10;stroke-dasharray:none;stroke-opacity:1"/><g id="g46" transform="scale(10)"><text id="text54" transform="matrix(1,0,0,-1,265.343,35.3594)" style="font-variant:normal;font-weight:400;font-size:10px;font-family:'Times New Roman';-inkscape-font-specification:Times-Roman;writing-mode:lr-tb;fill:#231f20;fill-opacity:1;fill-rule:nonzero;stroke:none"><tspan id="tspan48" x="0 5.62 26.706 32.326 53.586 59.206 81.482 87.102" y="0">+1+1+1+1</tspan><tspan id="tspan50" x="-155.412 -149.802 -144.852" y="-51.131">+50</tspan><tspan id="tspan52" x="-125.997 -122.687 -99.29 -95.98 -72.41 -69.1 .213 3.524 26.92 30.231 53.799 57.11 81.696 85.006" y="-51.694">-1-1-1-1-1-1-1</tspan></text><text id="text62" transform="matrix(1,0,0,-1,226.5462,54.410981)" style="font-variant:normal;font-weight:400;font-size:12.53740025px;font-family:Helvetica;-inkscape-font-specification:Helvetica;writing-mode:lr-tb;fill:#231f20;fill-opacity:1;fill-rule:nonzero;stroke:none"><tspan id="tspan56" x="0 5.515 11.03" y="0">···</tspan><tspan id="tspan58" x="-.417 5.097 10.612" y="-26.224">···</tspan><tspan id="tspan60" x="-.209 5.306 10.821" y="26.328">···</tspan></text><text id="text66" transform="matrix(1,0,0,-1,107.46422,61.394881)" style="font-style:italic;font-variant:normal;font-size:10.0298996px;font-family:'Times New Roman';-inkscape-font-specification:Times-Italic;writing-mode:lr-tb;fill:#231f20;fill-opacity:1;fill-rule:nonzero;stroke:none"><tspan id="tspan64" x="0 4.975 7.742 12.707 16.57" y="0">Start</tspan></text></g><path id="path68" d="m 3605.82,807.488 h -183.34 v 183.344 h 183.34 z" style="fill:none;stroke:#231f20;stroke-width:10;stroke-linecap:butt;stroke-linejoin:miter;stroke-miterlimit:10;stroke-dasharray:none;stroke-opacity:1"/><path id="path70" d="m 3606.66,294.988 h -183.34 v 183.344 h 183.34 z" style="fill:none;stroke:#231f20;stroke-width:10;stroke-linecap:butt;stroke-linejoin:miter;stroke-miterlimit:10;stroke-dasharray:none;stroke-opacity:1"/><path id="path72" d="M 5,1029.17 H 262.777 V 771.391 H 5 Z" style="fill:none;stroke:#231f20;stroke-width:10;stroke-linecap:butt;stroke-linejoin:miter;stroke-miterlimit:10;stroke-dasharray:none;stroke-opacity:1"/><path id="path74" d="M 262.777,1029.17 H 520.559 V 771.391 H 262.777 Z" style="fill:none;stroke:#231f20;stroke-width:10;stroke-linecap:butt;stroke-linejoin:miter;stroke-miterlimit:10;stroke-dasharray:none;stroke-opacity:1"/><path id="path76" d="M 520.559,1029.17 H 778.336 V 771.391 H 520.559 Z" style="fill:none;stroke:#231f20;stroke-width:10;stroke-linecap:butt;stroke-linejoin:miter;stroke-miterlimit:10;stroke-dasharray:none;stroke-opacity:1"/><path id="path78" d="M 5,771.391 H 262.777 V 513.617 H 5 Z" style="fill:none;stroke:#231f20;stroke-width:10;stroke-linecap:butt;stroke-linejoin:miter;stroke-miterlimit:10;stroke-dasharray:none;stroke-opacity:1"/><path id="path80" d="M 262.777,771.391 H 520.559 V 513.617 H 262.777 Z" style="fill:none;stroke:#231f20;stroke-width:10;stroke-linecap:butt;stroke-linejoin:miter;stroke-miterlimit:10;stroke-dasharray:none;stroke-opacity:1"/><path id="path82" d="M 520.559,771.391 H 778.336 V 513.617 H 520.559 Z" style="fill:none;stroke:#231f20;stroke-width:10;stroke-linecap:butt;stroke-linejoin:miter;stroke-miterlimit:10;stroke-dasharray:none;stroke-opacity:1"/><path id="path84" d="M 5,513.617 H 262.777 V 255.84 H 5 Z" style="fill:none;stroke:#231f20;stroke-width:10;stroke-linecap:butt;stroke-linejoin:miter;stroke-miterlimit:10;stroke-dasharray:none;stroke-opacity:1"/><path id="path86" d="M 262.777,513.617 H 520.559 V 255.84 H 262.777 Z" style="fill:none;stroke:#231f20;stroke-width:10;stroke-linecap:butt;stroke-linejoin:miter;stroke-miterlimit:10;stroke-dasharray:none;stroke-opacity:1"/><path id="path88" d="M 520.559,513.617 H 778.336 V 255.84 H 520.559 Z" style="fill:none;stroke:#231f20;stroke-width:10;stroke-linecap:butt;stroke-linejoin:miter;stroke-miterlimit:10;stroke-dasharray:none;stroke-opacity:1"/><g id="g90" transform="scale(10)"><text id="text94" transform="matrix(1,0,0,-1,11.548,88.1449)" style="font-style:italic;font-variant:normal;font-size:10.0298996px;font-family:'Times New Roman';-inkscape-font-specification:Times-Italic;writing-mode:lr-tb;fill:#231f20;fill-opacity:1;fill-rule:nonzero;stroke:none"><tspan id="tspan92" x="0" y="0">r</tspan></text><text id="text112" transform="matrix(1,0,0,-1,34.8812,87.1449)" style="font-variant:normal;font-weight:400;font-size:10.0298996px;font-family:'Times New Roman';-inkscape-font-specification:Times-Roman;writing-mode:lr-tb;fill:#231f20;fill-opacity:1;fill-rule:nonzero;stroke:none"><tspan id="tspan96" x="0 3.3" y="0">-1</tspan><tspan id="tspan98" x="0 3.3" y="25.666">-1</tspan><tspan id="tspan100" x="-.25 3.05" y="50.75">-1</tspan><tspan id="tspan102" x="22.25 27.866 32.841" y="0">+10</tspan><tspan id="tspan104" x="26.25 29.55" y="25.666">-1</tspan><tspan id="tspan106" x="26 29.3" y="50.75">-1</tspan><tspan id="tspan108" x="-25.5 -22.2" y="25.666">-1</tspan><tspan id="tspan110" x="-25.75 -22.45" y="50.75">-1</tspan></text></g><path id="path114" d="M 744.98,806.656 H 561.641 v 183.34 H 744.98 Z" style="fill:none;stroke:#231f20;stroke-width:10;stroke-linecap:butt;stroke-linejoin:miter;stroke-miterlimit:10;stroke-dasharray:none;stroke-opacity:1"/><g id="g116" transform="scale(10)"><text id="text122" transform="matrix(1,0,0,-1,35.0004,9.58789)" style="font-variant:normal;font-weight:400;font-size:10px;font-family:'Times New Roman';-inkscape-font-specification:Times-Roman;writing-mode:lr-tb;fill:#231f20;fill-opacity:1;fill-rule:nonzero;stroke:none"><tspan id="tspan118" x="0 3.33 7.77" y="0">(a)</tspan><tspan id="tspan120" x="192.75 196.08 201.08" y=".084">(b)</tspan></text></g></g></g></svg>