<svg xmlns="http://www.w3.org/2000/svg" xmlns:svg="http://www.w3.org/2000/svg" id="svg2" width="141.827" height="161.2" version="1.1" viewBox="0 0 141.827 161.2" xml:space="preserve"><metadata id="metadata8"/><g id="g10" transform="matrix(1.3333333,0,0,-1.3333333,0,161.2)"><g id="g12" transform="scale(0.1)"><path id="path14" d="M 194.555,667.418 401.891,242.109" style="fill:none;stroke:#231f20;stroke-width:5;stroke-linecap:butt;stroke-linejoin:miter;stroke-miterlimit:10;stroke-dasharray:none;stroke-opacity:1"/><path id="path16" d="m 406.461,266.77 16.98,-72.481 -46.628,58.027" style="fill:#231f20;fill-opacity:1;fill-rule:evenodd;stroke:none"/><path id="path18" d="M 876.383,664.918 669.047,239.609" style="fill:none;stroke:#231f20;stroke-width:5;stroke-linecap:butt;stroke-linejoin:miter;stroke-miterlimit:10;stroke-dasharray:none;stroke-opacity:1"/><path id="path20" d="m 664.477,264.27 -16.981,-72.481 46.629,58.027" style="fill:#231f20;fill-opacity:1;fill-rule:evenodd;stroke:none"/><path id="path22" d="M 537.953,420.852 V 265.41" style="fill:none;stroke:#231f20;stroke-width:5;stroke-linecap:butt;stroke-linejoin:miter;stroke-miterlimit:10;stroke-dasharray:none;stroke-opacity:1"/><path id="path24" d="M 552.867,285.566 536.371,212.98 519.879,285.566" style="fill:#231f20;fill-opacity:1;fill-rule:evenodd;stroke:none"/><path id="path26" d="m 365.215,674.715 c 0,60.066 -81.25,108.812 -181.36,108.812 C 83.75,783.527 2.5,734.781 2.5,674.715 c 0,-60.067 81.25,-108.817 181.355,-108.817 100.11,0 181.36,48.75 181.36,108.817 v 0" style="fill:#fff;fill-opacity:1;fill-rule:evenodd;stroke:none"/><path id="path28" d="m 365.215,674.715 c 0,60.066 -81.25,108.812 -181.36,108.812 C 83.75,783.527 2.5,734.781 2.5,674.715 c 0,-60.067 81.25,-108.817 181.355,-108.817 100.11,0 181.36,48.75 181.36,108.817 z" style="fill:none;stroke:#231f20;stroke-width:5;stroke-linecap:butt;stroke-linejoin:miter;stroke-miterlimit:10;stroke-dasharray:none;stroke-opacity:1"/><g id="g30" transform="scale(10)"><text id="text34" transform="matrix(1,0,0,-1,4.37188,65.832)" style="font-style:italic;font-variant:normal;font-size:10.15600014px;font-family:'Times New Roman';-inkscape-font-specification:Times-Italic;writing-mode:lr-tb;fill:#231f20;fill-opacity:1;fill-rule:nonzero;stroke:none"><tspan id="tspan32" x="0" y="0">H</tspan></text><text id="text38" transform="matrix(1,0,0,-1,11.98946,62.94919)" style="font-style:italic;font-variant:normal;font-size:7.10921001px;font-family:'Times New Roman';-inkscape-font-specification:Times-Italic;writing-mode:lr-tb;fill:#231f20;fill-opacity:1;fill-rule:nonzero;stroke:none"><tspan id="tspan36" x="0 5.134 8.688 10.663 14.218 17.373" y="0">mother</tspan></text></g><path id="path40" d="m 1061.21,674.715 c 0,60.066 -81.245,108.812 -181.362,108.812 -100.106,0 -181.348,-48.746 -181.348,-108.812 0,-60.067 81.242,-108.817 181.348,-108.817 100.117,0 181.362,48.75 181.362,108.817 v 0" style="fill:#fff;fill-opacity:1;fill-rule:evenodd;stroke:none"/><path id="path42" d="m 1061.21,674.715 c 0,60.066 -81.245,108.812 -181.362,108.812 -100.106,0 -181.348,-48.746 -181.348,-108.812 0,-60.067 81.242,-108.817 181.348,-108.817 100.117,0 181.362,48.75 181.362,108.817 z" style="fill:none;stroke:#231f20;stroke-width:5;stroke-linecap:butt;stroke-linejoin:miter;stroke-miterlimit:10;stroke-dasharray:none;stroke-opacity:1"/><g id="g44" transform="scale(10)"><text id="text48" transform="matrix(1,0,0,-1,75.7859,66.082)" style="font-style:italic;font-variant:normal;font-size:10.15600014px;font-family:'Times New Roman';-inkscape-font-specification:Times-Italic;writing-mode:lr-tb;fill:#231f20;fill-opacity:1;fill-rule:nonzero;stroke:none"><tspan id="tspan46" x="0" y="0">H</tspan></text><text id="text52" transform="matrix(1,0,0,-1,83.39528,63.19919)" style="font-style:italic;font-variant:normal;font-size:7.10921001px;font-family:'Times New Roman';-inkscape-font-specification:Times-Italic;writing-mode:lr-tb;fill:#231f20;fill-opacity:1;fill-rule:nonzero;stroke:none"><tspan id="tspan50" x="0 1.976 5.53 7.506 11.06 14.216" y="0">father</tspan></text></g><path id="path54" d="m 713.207,111.32 c 0,60.071 -81.25,108.817 -181.352,108.817 -100.109,0 -181.351,-48.746 -181.351,-108.817 0,-60.07 81.242,-108.82 181.351,-108.82 100.102,0 181.352,48.75 181.352,108.82 v 0" style="fill:#fff;fill-opacity:1;fill-rule:evenodd;stroke:none"/><path id="path56" d="m 713.207,111.32 c 0,60.071 -81.25,108.817 -181.352,108.817 -100.109,0 -181.351,-48.746 -181.351,-108.817 0,-60.07 81.242,-108.82 181.351,-108.82 100.102,0 181.352,48.75 181.352,108.82 z" style="fill:none;stroke:#231f20;stroke-width:5;stroke-linecap:butt;stroke-linejoin:miter;stroke-miterlimit:10;stroke-dasharray:none;stroke-opacity:1"/><g id="g58" transform="scale(10)"><text id="text62" transform="matrix(1,0,0,-1,42.4895,8.99609)" style="font-style:italic;font-variant:normal;font-size:10.15600014px;font-family:'Times New Roman';-inkscape-font-specification:Times-Italic;writing-mode:lr-tb;fill:#231f20;fill-opacity:1;fill-rule:nonzero;stroke:none"><tspan id="tspan60" x="0" y="0">H</tspan></text><text id="text66" transform="matrix(1,0,0,-1,49.34848,6.85586)" style="font-style:italic;font-variant:normal;font-size:7.10921001px;font-family:'Times New Roman';-inkscape-font-specification:Times-Italic;writing-mode:lr-tb;fill:#231f20;fill-opacity:1;fill-rule:nonzero;stroke:none"><tspan id="tspan64" x="0 3.156 6.711 8.686 10.662" y="0">child</tspan></text></g><path id="path68" d="m 365.215,1097.71 c 0,60.07 -81.25,108.82 -181.36,108.82 C 83.75,1206.53 2.5,1157.78 2.5,1097.71 c 0,-60.06 81.25,-108.812 181.355,-108.812 100.11,0 181.36,48.752 181.36,108.812 v 0" style="fill:#fff;fill-opacity:1;fill-rule:evenodd;stroke:none"/><path id="path70" d="m 365.215,1097.71 c 0,60.07 -81.25,108.82 -181.36,108.82 C 83.75,1206.53 2.5,1157.78 2.5,1097.71 c 0,-60.06 81.25,-108.812 181.355,-108.812 100.11,0 181.36,48.752 181.36,108.812 z" style="fill:none;stroke:#231f20;stroke-width:5;stroke-linecap:butt;stroke-linejoin:miter;stroke-miterlimit:10;stroke-dasharray:none;stroke-opacity:1"/><g id="g72" transform="scale(10)"><text id="text76" transform="matrix(1,0,0,-1,11.9895,105.52)" style="font-style:italic;font-variant:normal;font-size:7.10921001px;font-family:'Times New Roman';-inkscape-font-specification:Times-Italic;writing-mode:lr-tb;fill:#231f20;fill-opacity:1;fill-rule:nonzero;stroke:none"><tspan id="tspan74" x="0 5.134 8.688 10.663 14.218 17.373" y="0">mother</tspan></text><text id="text80" transform="matrix(1,0,0,-1,4.37192,108.395)" style="font-style:italic;font-variant:normal;font-size:10.15600014px;font-family:'Times New Roman';-inkscape-font-specification:Times-Italic;writing-mode:lr-tb;fill:#231f20;fill-opacity:1;fill-rule:nonzero;stroke:none"><tspan id="tspan78" x="0" y="0">G</tspan></text></g><path id="path82" d="m 1061.21,1097.71 c 0,60.07 -81.245,108.82 -181.362,108.82 -100.106,0 -181.348,-48.75 -181.348,-108.82 0,-60.06 81.242,-108.812 181.348,-108.812 100.117,0 181.362,48.752 181.362,108.812 v 0" style="fill:#fff;fill-opacity:1;fill-rule:evenodd;stroke:none"/><path id="path84" d="m 1061.21,1097.71 c 0,60.07 -81.245,108.82 -181.362,108.82 -100.106,0 -181.348,-48.75 -181.348,-108.82 0,-60.06 81.242,-108.812 181.348,-108.812 100.117,0 181.362,48.752 181.362,108.812 z" style="fill:none;stroke:#231f20;stroke-width:5;stroke-linecap:butt;stroke-linejoin:miter;stroke-miterlimit:10;stroke-dasharray:none;stroke-opacity:1"/><g id="g86" transform="scale(10)"><text id="text90" transform="matrix(1,0,0,-1,82.8953,105.77)" style="font-style:italic;font-variant:normal;font-size:7.10921001px;font-family:'Times New Roman';-inkscape-font-specification:Times-Italic;writing-mode:lr-tb;fill:#231f20;fill-opacity:1;fill-rule:nonzero;stroke:none"><tspan id="tspan88" x="0 1.976 5.53 7.506 11.06 14.216" y="0">father</tspan></text><text id="text94" transform="matrix(1,0,0,-1,75.28592,108.645)" style="font-style:italic;font-variant:normal;font-size:10.15600014px;font-family:'Times New Roman';-inkscape-font-specification:Times-Italic;writing-mode:lr-tb;fill:#231f20;fill-opacity:1;fill-rule:nonzero;stroke:none"><tspan id="tspan92" x="0" y="0">G</tspan></text></g><path id="path96" d="m 713.207,459.316 c 0,60.071 -81.25,108.821 -181.352,108.821 -100.109,0 -181.351,-48.75 -181.351,-108.821 0,-60.066 81.242,-108.808 181.351,-108.808 100.102,0 181.352,48.742 181.352,108.808 v 0" style="fill:#fff;fill-opacity:1;fill-rule:evenodd;stroke:none"/><path id="path98" d="m 713.207,459.316 c 0,60.071 -81.25,108.821 -181.352,108.821 -100.109,0 -181.351,-48.75 -181.351,-108.821 0,-60.066 81.242,-108.808 181.351,-108.808 100.102,0 181.352,48.742 181.352,108.808 z" style="fill:none;stroke:#231f20;stroke-width:5;stroke-linecap:butt;stroke-linejoin:miter;stroke-miterlimit:10;stroke-dasharray:none;stroke-opacity:1"/><g id="g100" transform="scale(10)"><text id="text104" transform="matrix(1,0,0,-1,49.0984,42.184)" style="font-style:italic;font-variant:normal;font-size:7.10921001px;font-family:'Times New Roman';-inkscape-font-specification:Times-Italic;writing-mode:lr-tb;fill:#231f20;fill-opacity:1;fill-rule:nonzero;stroke:none"><tspan id="tspan102" x="0 3.156 6.711 8.686 10.662" y="0">child</tspan></text><text id="text108" transform="matrix(1,0,0,-1,42.23942,43.81681)" style="font-style:italic;font-variant:normal;font-size:10.15600014px;font-family:'Times New Roman';-inkscape-font-specification:Times-Italic;writing-mode:lr-tb;fill:#231f20;fill-opacity:1;fill-rule:nonzero;stroke:none"><tspan id="tspan106" x="0" y="0">G</tspan></text></g><path id="path110" d="M 183.379,991.398 V 835.965" style="fill:none;stroke:#231f20;stroke-width:5;stroke-linecap:butt;stroke-linejoin:miter;stroke-miterlimit:10;stroke-dasharray:none;stroke-opacity:1"/><path id="path112" d="m 198.297,856.109 -16.488,-72.582 -16.5,72.582" style="fill:#231f20;fill-opacity:1;fill-rule:evenodd;stroke:none"/><path id="path114" d="M 881.43,988.898 V 833.461" style="fill:none;stroke:#231f20;stroke-width:5;stroke-linecap:butt;stroke-linejoin:miter;stroke-miterlimit:10;stroke-dasharray:none;stroke-opacity:1"/><path id="path116" d="m 896.344,853.613 -16.496,-72.586 -16.493,72.586" style="fill:#231f20;fill-opacity:1;fill-rule:evenodd;stroke:none"/></g></g></svg>