<svg xmlns="http://www.w3.org/2000/svg" xmlns:svg="http://www.w3.org/2000/svg" id="svg2" width="141.827" height="161.2" version="1.1" viewBox="0 0 141.827 161.2" xml:space="preserve"><metadata id="metadata8"/><g id="g10" transform="matrix(1.3333333,0,0,-1.3333333,0,161.2)"><g id="g12" transform="scale(0.1)"><path id="path14" d="M 194.555,667.418 401.891,242.109" style="fill:none;stroke:#231f20;stroke-width:5;stroke-linecap:butt;stroke-linejoin:miter;stroke-miterlimit:10;stroke-dasharray:none;stroke-opacity:1"/><path id="path16" d="m 406.461,266.77 16.98,-72.481 -46.628,58.027" style="fill:#231f20;fill-opacity:1;fill-rule:evenodd;stroke:none"/><path id="path18" d="M 876.383,664.918 669.047,239.609" style="fill:none;stroke:#231f20;stroke-width:5;stroke-linecap:butt;stroke-linejoin:miter;stroke-miterlimit:10;stroke-dasharray:none;stroke-opacity:1"/><path id="path20" d="m 664.477,264.27 -16.981,-72.481 46.629,58.027" style="fill:#231f20;fill-opacity:1;fill-rule:evenodd;stroke:none"/><path id="path22" d="M 537.953,420.852 V 265.41" style="fill:none;stroke:#231f20;stroke-width:5;stroke-linecap:butt;stroke-linejoin:miter;stroke-miterlimit:10;stroke-dasharray:none;stroke-opacity:1"/><path id="path24" d="M 552.867,285.566 536.371,212.98 519.879,285.566" style="fill:#231f20;fill-opacity:1;fill-rule:evenodd;stroke:none"/><path id="path26" d="M 792.094,1035.05 584.762,609.738" style="fill:none;stroke:#231f20;stroke-width:5;stroke-linecap:butt;stroke-linejoin:miter;stroke-miterlimit:10;stroke-dasharray:none;stroke-opacity:1"/><path id="path28" d="m 580.191,634.395 -16.984,-72.477 46.633,58.023" style="fill:#231f20;fill-opacity:1;fill-rule:evenodd;stroke:none"/><path id="path30" d="M 298.707,1037.55 506.039,612.238" style="fill:none;stroke:#231f20;stroke-width:5;stroke-linecap:butt;stroke-linejoin:miter;stroke-miterlimit:10;stroke-dasharray:none;stroke-opacity:1"/><path id="path32" d="m 510.609,636.895 16.985,-72.477 -46.633,58.023" style="fill:#231f20;fill-opacity:1;fill-rule:evenodd;stroke:none"/><path id="path34" d="m 365.215,674.715 c 0,60.066 -81.25,108.812 -181.36,108.812 C 83.75,783.527 2.5,734.781 2.5,674.715 c 0,-60.067 81.25,-108.817 181.355,-108.817 100.11,0 181.36,48.75 181.36,108.817 v 0" style="fill:#fff;fill-opacity:1;fill-rule:evenodd;stroke:none"/><path id="path36" d="m 365.215,674.715 c 0,60.066 -81.25,108.812 -181.36,108.812 C 83.75,783.527 2.5,734.781 2.5,674.715 c 0,-60.067 81.25,-108.817 181.355,-108.817 100.11,0 181.36,48.75 181.36,108.817 z" style="fill:none;stroke:#231f20;stroke-width:5;stroke-linecap:butt;stroke-linejoin:miter;stroke-miterlimit:10;stroke-dasharray:none;stroke-opacity:1"/><g id="g38" transform="scale(10)"><text id="text42" transform="matrix(1,0,0,-1,4.37188,65.832)" style="font-style:italic;font-variant:normal;font-size:10.15600014px;font-family:'Times New Roman';-inkscape-font-specification:Times-Italic;writing-mode:lr-tb;fill:#231f20;fill-opacity:1;fill-rule:nonzero;stroke:none"><tspan id="tspan40" x="0" y="0">H</tspan></text><text id="text46" transform="matrix(1,0,0,-1,11.98946,62.94919)" style="font-style:italic;font-variant:normal;font-size:7.10921001px;font-family:'Times New Roman';-inkscape-font-specification:Times-Italic;writing-mode:lr-tb;fill:#231f20;fill-opacity:1;fill-rule:nonzero;stroke:none"><tspan id="tspan44" x="0 5.134 8.688 10.663 14.218 17.373" y="0">mother</tspan></text></g><path id="path48" d="m 1061.21,674.715 c 0,60.066 -81.245,108.812 -181.362,108.812 -100.106,0 -181.348,-48.746 -181.348,-108.812 0,-60.067 81.242,-108.817 181.348,-108.817 100.117,0 181.362,48.75 181.362,108.817 v 0" style="fill:#fff;fill-opacity:1;fill-rule:evenodd;stroke:none"/><path id="path50" d="m 1061.21,674.715 c 0,60.066 -81.245,108.812 -181.362,108.812 -100.106,0 -181.348,-48.746 -181.348,-108.812 0,-60.067 81.242,-108.817 181.348,-108.817 100.117,0 181.362,48.75 181.362,108.817 z" style="fill:none;stroke:#231f20;stroke-width:5;stroke-linecap:butt;stroke-linejoin:miter;stroke-miterlimit:10;stroke-dasharray:none;stroke-opacity:1"/><g id="g52" transform="scale(10)"><text id="text56" transform="matrix(1,0,0,-1,75.7859,66.082)" style="font-style:italic;font-variant:normal;font-size:10.15600014px;font-family:'Times New Roman';-inkscape-font-specification:Times-Italic;writing-mode:lr-tb;fill:#231f20;fill-opacity:1;fill-rule:nonzero;stroke:none"><tspan id="tspan54" x="0" y="0">H</tspan></text><text id="text60" transform="matrix(1,0,0,-1,83.39528,63.19919)" style="font-style:italic;font-variant:normal;font-size:7.10921001px;font-family:'Times New Roman';-inkscape-font-specification:Times-Italic;writing-mode:lr-tb;fill:#231f20;fill-opacity:1;fill-rule:nonzero;stroke:none"><tspan id="tspan58" x="0 1.976 5.53 7.506 11.06 14.216" y="0">father</tspan></text></g><path id="path62" d="m 713.207,111.32 c 0,60.071 -81.25,108.817 -181.352,108.817 -100.109,0 -181.351,-48.746 -181.351,-108.817 0,-60.07 81.242,-108.82 181.351,-108.82 100.102,0 181.352,48.75 181.352,108.82 v 0" style="fill:#fff;fill-opacity:1;fill-rule:evenodd;stroke:none"/><path id="path64" d="m 713.207,111.32 c 0,60.071 -81.25,108.817 -181.352,108.817 -100.109,0 -181.351,-48.746 -181.351,-108.817 0,-60.07 81.242,-108.82 181.351,-108.82 100.102,0 181.352,48.75 181.352,108.82 z" style="fill:none;stroke:#231f20;stroke-width:5;stroke-linecap:butt;stroke-linejoin:miter;stroke-miterlimit:10;stroke-dasharray:none;stroke-opacity:1"/><g id="g66" transform="scale(10)"><text id="text70" transform="matrix(1,0,0,-1,42.4895,8.99609)" style="font-style:italic;font-variant:normal;font-size:10.15600014px;font-family:'Times New Roman';-inkscape-font-specification:Times-Italic;writing-mode:lr-tb;fill:#231f20;fill-opacity:1;fill-rule:nonzero;stroke:none"><tspan id="tspan68" x="0" y="0">H</tspan></text><text id="text74" transform="matrix(1,0,0,-1,49.34848,6.85586)" style="font-style:italic;font-variant:normal;font-size:7.10921001px;font-family:'Times New Roman';-inkscape-font-specification:Times-Italic;writing-mode:lr-tb;fill:#231f20;fill-opacity:1;fill-rule:nonzero;stroke:none"><tspan id="tspan72" x="0 3.156 6.711 8.686 10.662" y="0">child</tspan></text></g><path id="path76" d="m 365.215,1097.71 c 0,60.07 -81.25,108.82 -181.36,108.82 C 83.75,1206.53 2.5,1157.78 2.5,1097.71 c 0,-60.06 81.25,-108.812 181.355,-108.812 100.11,0 181.36,48.752 181.36,108.812 v 0" style="fill:#fff;fill-opacity:1;fill-rule:evenodd;stroke:none"/><path id="path78" d="m 365.215,1097.71 c 0,60.07 -81.25,108.82 -181.36,108.82 C 83.75,1206.53 2.5,1157.78 2.5,1097.71 c 0,-60.06 81.25,-108.812 181.355,-108.812 100.11,0 181.36,48.752 181.36,108.812 z" style="fill:none;stroke:#231f20;stroke-width:5;stroke-linecap:butt;stroke-linejoin:miter;stroke-miterlimit:10;stroke-dasharray:none;stroke-opacity:1"/><g id="g80" transform="scale(10)"><text id="text84" transform="matrix(1,0,0,-1,11.9895,105.52)" style="font-style:italic;font-variant:normal;font-size:7.10921001px;font-family:'Times New Roman';-inkscape-font-specification:Times-Italic;writing-mode:lr-tb;fill:#231f20;fill-opacity:1;fill-rule:nonzero;stroke:none"><tspan id="tspan82" x="0 5.134 8.688 10.663 14.218 17.373" y="0">mother</tspan></text><text id="text88" transform="matrix(1,0,0,-1,4.37192,108.395)" style="font-style:italic;font-variant:normal;font-size:10.15600014px;font-family:'Times New Roman';-inkscape-font-specification:Times-Italic;writing-mode:lr-tb;fill:#231f20;fill-opacity:1;fill-rule:nonzero;stroke:none"><tspan id="tspan86" x="0" y="0">G</tspan></text></g><path id="path90" d="m 1061.21,1097.71 c 0,60.07 -81.245,108.82 -181.362,108.82 -100.106,0 -181.348,-48.75 -181.348,-108.82 0,-60.06 81.242,-108.812 181.348,-108.812 100.117,0 181.362,48.752 181.362,108.812 v 0" style="fill:#fff;fill-opacity:1;fill-rule:evenodd;stroke:none"/><path id="path92" d="m 1061.21,1097.71 c 0,60.07 -81.245,108.82 -181.362,108.82 -100.106,0 -181.348,-48.75 -181.348,-108.82 0,-60.06 81.242,-108.812 181.348,-108.812 100.117,0 181.362,48.752 181.362,108.812 z" style="fill:none;stroke:#231f20;stroke-width:5;stroke-linecap:butt;stroke-linejoin:miter;stroke-miterlimit:10;stroke-dasharray:none;stroke-opacity:1"/><g id="g94" transform="scale(10)"><text id="text98" transform="matrix(1,0,0,-1,82.8953,105.77)" style="font-style:italic;font-variant:normal;font-size:7.10921001px;font-family:'Times New Roman';-inkscape-font-specification:Times-Italic;writing-mode:lr-tb;fill:#231f20;fill-opacity:1;fill-rule:nonzero;stroke:none"><tspan id="tspan96" x="0 1.976 5.53 7.506 11.06 14.216" y="0">father</tspan></text><text id="text102" transform="matrix(1,0,0,-1,75.28592,108.645)" style="font-style:italic;font-variant:normal;font-size:10.15600014px;font-family:'Times New Roman';-inkscape-font-specification:Times-Italic;writing-mode:lr-tb;fill:#231f20;fill-opacity:1;fill-rule:nonzero;stroke:none"><tspan id="tspan100" x="0" y="0">G</tspan></text></g><path id="path104" d="m 713.207,459.316 c 0,60.071 -81.25,108.821 -181.352,108.821 -100.109,0 -181.351,-48.75 -181.351,-108.821 0,-60.066 81.242,-108.808 181.351,-108.808 100.102,0 181.352,48.742 181.352,108.808 v 0" style="fill:#fff;fill-opacity:1;fill-rule:evenodd;stroke:none"/><path id="path106" d="m 713.207,459.316 c 0,60.071 -81.25,108.821 -181.352,108.821 -100.109,0 -181.351,-48.75 -181.351,-108.821 0,-60.066 81.242,-108.808 181.351,-108.808 100.102,0 181.352,48.742 181.352,108.808 z" style="fill:none;stroke:#231f20;stroke-width:5;stroke-linecap:butt;stroke-linejoin:miter;stroke-miterlimit:10;stroke-dasharray:none;stroke-opacity:1"/><g id="g108" transform="scale(10)"><text id="text112" transform="matrix(1,0,0,-1,49.0984,42.184)" style="font-style:italic;font-variant:normal;font-size:7.10921001px;font-family:'Times New Roman';-inkscape-font-specification:Times-Italic;writing-mode:lr-tb;fill:#231f20;fill-opacity:1;fill-rule:nonzero;stroke:none"><tspan id="tspan110" x="0 3.156 6.711 8.686 10.662" y="0">child</tspan></text><text id="text116" transform="matrix(1,0,0,-1,42.23942,43.81681)" style="font-style:italic;font-variant:normal;font-size:10.15600014px;font-family:'Times New Roman';-inkscape-font-specification:Times-Italic;writing-mode:lr-tb;fill:#231f20;fill-opacity:1;fill-rule:nonzero;stroke:none"><tspan id="tspan114" x="0" y="0">G</tspan></text></g><path id="path118" d="M 183.379,991.398 V 835.965" style="fill:none;stroke:#231f20;stroke-width:5;stroke-linecap:butt;stroke-linejoin:miter;stroke-miterlimit:10;stroke-dasharray:none;stroke-opacity:1"/><path id="path120" d="m 198.297,856.109 -16.488,-72.582 -16.5,72.582" style="fill:#231f20;fill-opacity:1;fill-rule:evenodd;stroke:none"/><path id="path122" d="M 881.43,988.898 V 833.461" style="fill:none;stroke:#231f20;stroke-width:5;stroke-linecap:butt;stroke-linejoin:miter;stroke-miterlimit:10;stroke-dasharray:none;stroke-opacity:1"/><path id="path124" d="m 896.344,853.613 -16.496,-72.586 -16.493,72.586" style="fill:#231f20;fill-opacity:1;fill-rule:evenodd;stroke:none"/></g></g></svg>