<svg xmlns="http://www.w3.org/2000/svg" xmlns:svg="http://www.w3.org/2000/svg" id="svg2" width="143.093" height="54.707" version="1.1" viewBox="0 0 143.093 54.707" xml:space="preserve"><metadata id="metadata8"/><g id="g10" transform="matrix(1.3333333,0,0,-1.3333333,0,54.706667)"><g id="g12" transform="scale(0.1)"><path id="path14" d="M 270.57,139.73 V 405.766 H 536.602 V 139.73 Z m 266.032,0 V 405.766 H 802.641 V 139.73 Z m 266.039,0 V 405.766 H 1068.67 V 139.73 Z m -798.10584,0 V 405.766 H 270.57 V 139.73 Z" style="fill:none;stroke:#231f20;stroke-width:9.06900024;stroke-linecap:butt;stroke-linejoin:miter;stroke-miterlimit:10;stroke-dasharray:none;stroke-opacity:1"/><path id="path16" d="m 236.992,272.441 c 0,53.403 -43.336,96.743 -96.738,96.743 -53.3985,0 -96.7384,-43.34 -96.7384,-96.743 0,-53.398 43.3399,-96.734 96.7384,-96.734 53.402,0 96.738,43.336 96.738,96.734 v 0" style="fill:#a7a5a6;fill-opacity:1;fill-rule:evenodd;stroke:none"/><g id="g18" transform="scale(10)"><text id="text22" transform="matrix(1,0,0,-1,9.44063,22.4195)" style="font-variant:normal;font-weight:700;font-size:12.69709969px;font-family:Helvetica;-inkscape-font-specification:Helvetica-Bold;writing-mode:lr-tb;fill:#fff;fill-opacity:1;fill-rule:nonzero;stroke:none"><tspan id="tspan20" x="0" y="0">A</tspan></text></g><path id="path24" d="m 1032.6,272.441 c 0,53.403 -43.338,96.743 -96.737,96.743 -53.406,0 -96.738,-43.34 -96.738,-96.743 0,-53.398 43.332,-96.734 96.738,-96.734 53.399,0 96.737,43.336 96.737,96.734 v 0" style="fill:#a7a5a6;fill-opacity:1;fill-rule:evenodd;stroke:none"/><g id="g26" transform="scale(10)"><text id="text30" transform="matrix(1,0,0,-1,89.4848,22.4195)" style="font-variant:normal;font-weight:700;font-size:12.69709969px;font-family:Helvetica;-inkscape-font-specification:Helvetica-Bold;writing-mode:lr-tb;fill:#fff;fill-opacity:1;fill-rule:nonzero;stroke:none"><tspan id="tspan28" x="0" y="0">B</tspan></text></g><g id="g32" transform="scale(10)"><text id="text36" transform="matrix(1,0,0,-1,11.5023,3.84766)" style="font-variant:normal;font-weight:400;font-size:8px;font-family:Helvetica;-inkscape-font-specification:Helvetica;writing-mode:lr-tb;fill:#231f20;fill-opacity:1;fill-rule:nonzero;stroke:none"><tspan id="tspan34" x="0 79.75 53.166 26.584" y="0">1432</tspan></text></g></g></g></svg>