<svg xmlns="http://www.w3.org/2000/svg" xmlns:svg="http://www.w3.org/2000/svg" id="svg2" width="205.853" height="210.987" version="1.1" viewBox="0 0 205.853 210.987" xml:space="preserve"><metadata id="metadata8"/><g id="g10" transform="matrix(1.3333333,0,0,-1.3333333,0,210.98667)"><g id="g12" transform="scale(0.1)"><path id="path14" d="M 838.074,899.094 V 736.16" style="fill:none;stroke:#231f20;stroke-width:5;stroke-linecap:butt;stroke-linejoin:miter;stroke-miterlimit:10;stroke-dasharray:none;stroke-opacity:1"/><path id="path16" d="m 851.555,779.266 -13.481,-59.297 -13.472,59.297" style="fill:#231f20;fill-opacity:1;fill-rule:evenodd;stroke:none"/><path id="path18" d="M 484.691,969.469 H 750.172" style="fill:none;stroke:#231f20;stroke-width:5;stroke-linecap:butt;stroke-linejoin:miter;stroke-miterlimit:10;stroke-dasharray:none;stroke-opacity:1"/><path id="path20" d="m 707.074,982.945 59.309,-13.476 -59.309,-13.477" style="fill:#231f20;fill-opacity:1;fill-rule:evenodd;stroke:none"/><path id="path22" d="M 1199.27,969.469 H 948.484" style="fill:none;stroke:#231f20;stroke-width:5;stroke-linecap:butt;stroke-linejoin:miter;stroke-miterlimit:10;stroke-dasharray:none;stroke-opacity:1"/><path id="path24" d="m 966.57,955.992 -59.304,13.477 59.304,13.476" style="fill:#231f20;fill-opacity:1;fill-rule:evenodd;stroke:none"/><path id="path26" d="M 414.691,969.469 781.625,715.438" style="fill:none;stroke:#231f20;stroke-width:5;stroke-linecap:butt;stroke-linejoin:miter;stroke-miterlimit:10;stroke-dasharray:none;stroke-opacity:1"/><path id="path28" d="m 753.855,751.051 41.09,-44.844 -56.429,22.688" style="fill:#231f20;fill-opacity:1;fill-rule:evenodd;stroke:none"/><path id="path30" d="M 1261.46,969.469 894.531,715.438 m -140.277,29.871 27.371,-29.871 -37.598,15.105" style="fill:none;stroke:#231f20;stroke-width:5;stroke-linecap:butt;stroke-linejoin:miter;stroke-miterlimit:10;stroke-dasharray:none;stroke-opacity:1"/><path id="path32" d="m 937.637,728.895 -56.438,-22.688 41.098,44.844" style="fill:#231f20;fill-opacity:1;fill-rule:evenodd;stroke:none"/><path id="path34" d="M 838.074,630.77 V 404.949 m 94.043,325.594 -37.586,-15.105 27.371,29.871" style="fill:none;stroke:#231f20;stroke-width:5;stroke-linecap:butt;stroke-linejoin:miter;stroke-miterlimit:10;stroke-dasharray:none;stroke-opacity:1"/><path id="path36" d="m 851.555,448.051 -13.481,-59.289 -13.472,59.289" style="fill:#231f20;fill-opacity:1;fill-rule:evenodd;stroke:none"/><path id="path38" d="m 847.063,444.461 -8.989,-39.512 -8.972,39.512" style="fill:none;stroke:#231f20;stroke-width:5;stroke-linecap:butt;stroke-linejoin:miter;stroke-miterlimit:10;stroke-dasharray:none;stroke-opacity:1"/><path id="path40" d="m 486.371,978.453 c 0,38.847 -31.527,70.367 -70.375,70.367 -38.848,0 -70.375,-31.52 -70.375,-70.367 0,-38.851 31.527,-70.375 70.375,-70.375 38.848,0 70.375,31.524 70.375,70.375 v 0" style="fill:#fff;fill-opacity:1;fill-rule:evenodd;stroke:none"/><path id="path42" d="m 486.371,978.453 c 0,38.847 -31.527,70.367 -70.375,70.367 -38.848,0 -70.375,-31.52 -70.375,-70.367 0,-38.851 31.527,-70.375 70.375,-70.375 38.848,0 70.375,31.524 70.375,70.375 z" style="fill:none;stroke:#231f20;stroke-width:5;stroke-linecap:butt;stroke-linejoin:miter;stroke-miterlimit:10;stroke-dasharray:none;stroke-opacity:1"/><g id="g44" transform="scale(10)"><text id="text48" transform="matrix(1,0,0,-1,38.384,94.2496)" style="font-style:italic;font-variant:normal;font-size:10.05650043px;font-family:'Times New Roman';-inkscape-font-specification:Times-Italic;writing-mode:lr-tb;fill:#231f20;fill-opacity:1;fill-rule:nonzero;stroke:none"><tspan id="tspan46" x="0" y="0">B</tspan></text></g><path id="path50" d="m 907.688,969.469 c 0,38.851 -31.536,70.381 -70.383,70.381 -38.848,0 -70.375,-31.53 -70.375,-70.381 0,-38.848 31.527,-70.375 70.375,-70.375 38.847,0 70.383,31.527 70.383,70.375 v 0" style="fill:#fff;fill-opacity:1;fill-rule:evenodd;stroke:none"/><path id="path52" d="m 907.688,969.469 c 0,38.851 -31.536,70.381 -70.383,70.381 -38.848,0 -70.375,-31.53 -70.375,-70.381 0,-38.848 31.527,-70.375 70.375,-70.375 38.847,0 70.383,31.527 70.383,70.375 z" style="fill:none;stroke:#231f20;stroke-width:5;stroke-linecap:butt;stroke-linejoin:miter;stroke-miterlimit:10;stroke-dasharray:none;stroke-opacity:1"/><g id="g54" transform="scale(10)"><text id="text58" transform="matrix(1,0,0,-1,81.8422,93.8063)" style="font-style:italic;font-variant:normal;font-size:10.05650043px;font-family:'Times New Roman';-inkscape-font-specification:Times-Italic;writing-mode:lr-tb;fill:#231f20;fill-opacity:1;fill-rule:nonzero;stroke:none"><tspan id="tspan56" x="0" y="0">I</tspan></text></g><path id="path60" d="m 1340.02,970.645 c 0,38.845 -31.52,70.375 -70.37,70.375 -38.85,0 -70.38,-31.53 -70.38,-70.375 0,-38.844 31.53,-70.375 70.38,-70.375 38.85,0 70.37,31.531 70.37,70.375 v 0" style="fill:#fff;fill-opacity:1;fill-rule:evenodd;stroke:none"/><path id="path62" d="m 1340.02,970.645 c 0,38.845 -31.52,70.375 -70.37,70.375 -38.85,0 -70.38,-31.53 -70.38,-70.375 0,-38.844 31.53,-70.375 70.38,-70.375 38.85,0 70.37,31.531 70.37,70.375 z" style="fill:none;stroke:#231f20;stroke-width:5;stroke-linecap:butt;stroke-linejoin:miter;stroke-miterlimit:10;stroke-dasharray:none;stroke-opacity:1"/><g id="g64" transform="scale(10)"><text id="text68" transform="matrix(1,0,0,-1,122.406,94.2336)" style="font-style:italic;font-variant:normal;font-size:10.05650043px;font-family:'Times New Roman';-inkscape-font-specification:Times-Italic;writing-mode:lr-tb;fill:#231f20;fill-opacity:1;fill-rule:nonzero;stroke:none"><tspan id="tspan66" x="0" y="0">M</tspan></text></g><path id="path70" d="m 911.105,649.547 c 0,38.848 -31.542,70.383 -70.39,70.383 -38.844,0 -70.371,-31.535 -70.371,-70.383 0,-38.848 31.527,-70.375 70.371,-70.375 38.848,0 70.39,31.527 70.39,70.375 v 0" style="fill:#fff;fill-opacity:1;fill-rule:evenodd;stroke:none"/><path id="path72" d="m 911.105,649.547 c 0,38.848 -31.542,70.383 -70.39,70.383 -38.844,0 -70.371,-31.535 -70.371,-70.383 0,-38.848 31.527,-70.375 70.371,-70.375 38.848,0 70.39,31.527 70.39,70.375 z" style="fill:none;stroke:#231f20;stroke-width:5;stroke-linecap:butt;stroke-linejoin:miter;stroke-miterlimit:10;stroke-dasharray:none;stroke-opacity:1"/><g id="g74" transform="scale(10)"><text id="text78" transform="matrix(1,0,0,-1,80.1863,61.243)" style="font-style:italic;font-variant:normal;font-size:10.05650043px;font-family:'Times New Roman';-inkscape-font-specification:Times-Italic;writing-mode:lr-tb;fill:#231f20;fill-opacity:1;fill-rule:nonzero;stroke:none"><tspan id="tspan76" x="0" y="0">G</tspan></text></g><path id="path80" d="m 907.688,318.59 c 0,38.851 -31.536,70.379 -70.383,70.379 -38.848,0 -70.375,-31.528 -70.375,-70.379 0,-38.852 31.527,-70.371 70.375,-70.371 38.847,0 70.383,31.519 70.383,70.371 v 0" style="fill:#fff;fill-opacity:1;fill-rule:evenodd;stroke:none"/><path id="path82" d="m 907.688,318.59 c 0,38.851 -31.536,70.379 -70.383,70.379 -38.848,0 -70.375,-31.528 -70.375,-70.379 0,-38.852 31.527,-70.371 70.375,-70.371 38.847,0 70.383,31.519 70.383,70.371 z" style="fill:none;stroke:#231f20;stroke-width:5;stroke-linecap:butt;stroke-linejoin:miter;stroke-miterlimit:10;stroke-dasharray:none;stroke-opacity:1"/><g id="g84" transform="scale(10)"><text id="text88" transform="matrix(1,0,0,-1,81.3926,28.391)" style="font-style:italic;font-variant:normal;font-size:10.05650043px;font-family:'Times New Roman';-inkscape-font-specification:Times-Italic;writing-mode:lr-tb;fill:#231f20;fill-opacity:1;fill-rule:nonzero;stroke:none"><tspan id="tspan86" x="0" y="0">J</tspan></text></g><path id="path90" d="m 150.172,1041.02 v 215.3 h 180.641 v -215.3 H 150.172" style="fill:#fff;fill-opacity:1;fill-rule:evenodd;stroke:none"/><path id="path92" d="m 150.172,1041.02 v 215.3 h 180.641 v -215.3 z" style="fill:none;stroke:#231f20;stroke-width:5;stroke-linecap:butt;stroke-linejoin:miter;stroke-miterlimit:10;stroke-dasharray:none;stroke-opacity:1"/><g id="g94" transform="scale(10)"><text id="text98" transform="matrix(1,0,0,-1,17.4055,119.189)" style="font-style:italic;font-variant:normal;font-size:6.90171003px;font-family:'Times New Roman';-inkscape-font-specification:TimesNewRomanPS-ItalicMT;writing-mode:lr-tb;fill:#231f20;fill-opacity:1;fill-rule:nonzero;stroke:none"><tspan id="tspan96" x="0" y="0">P</tspan></text><text id="text102" transform="matrix(1,0,0,-1,21.62113,119.189)" style="font-variant:normal;font-weight:400;font-size:6.90171003px;font-family:'Times New Roman';-inkscape-font-specification:TimesNewRomanPSMT;writing-mode:lr-tb;fill:#231f20;fill-opacity:1;fill-rule:nonzero;stroke:none"><tspan id="tspan100" x="0" y="0">(</tspan></text><text id="text106" transform="matrix(1,0,0,-1,23.91957,119.189)" style="font-style:italic;font-variant:normal;font-size:6.90171003px;font-family:'Times New Roman';-inkscape-font-specification:TimesNewRomanPS-ItalicMT;writing-mode:lr-tb;fill:#231f20;fill-opacity:1;fill-rule:nonzero;stroke:none"><tspan id="tspan104" x="0" y="0">B</tspan></text><text id="text110" transform="matrix(1,0,0,-1,28.27348,119.189)" style="font-variant:normal;font-weight:400;font-size:6.90171003px;font-family:'Times New Roman';-inkscape-font-specification:TimesNewRomanPSMT;writing-mode:lr-tb;fill:#231f20;fill-opacity:1;fill-rule:nonzero;stroke:none"><tspan id="tspan108" x="0" y="0">)</tspan></text><text id="text114" transform="matrix(1,0,0,-1,20.78051,107.4011)" style="font-variant:normal;font-weight:400;font-size:7.47053003px;font-family:'Times New Roman';-inkscape-font-specification:Times-Roman;writing-mode:lr-tb;fill:#231f20;fill-opacity:1;fill-rule:nonzero;stroke:none"><tspan id="tspan112" x="0 1.868" y="0">.9</tspan></text></g><path id="path116" d="m 613.594,1115.72 v 464.15 H 1061.08 V 1115.72 H 613.594" style="fill:#fff;fill-opacity:1;fill-rule:evenodd;stroke:none"/><path id="path118" d="m 613.594,1115.72 v 464.15 h 447.486 v -464.15 z" style="fill:none;stroke:#231f20;stroke-width:5;stroke-linecap:butt;stroke-linejoin:miter;stroke-miterlimit:10;stroke-dasharray:none;stroke-opacity:1"/><g id="g120" transform="scale(10)"><text id="text124" transform="matrix(1,0,0,-1,65.484,149.777)" style="font-style:italic;font-variant:normal;font-size:6.90171003px;font-family:'Times New Roman';-inkscape-font-specification:TimesNewRomanPS-ItalicMT;writing-mode:lr-tb;fill:#231f20;fill-opacity:1;fill-rule:nonzero;stroke:none"><tspan id="tspan122" x="0 4.217 7.668 13.417 23.768" y="0">B M P</tspan></text><text id="text128" transform="matrix(1,0,0,-1,93.468,149.777)" style="font-variant:normal;font-weight:400;font-size:6.90171003px;font-family:'Times New Roman';-inkscape-font-specification:TimesNewRomanPSMT;writing-mode:lr-tb;fill:#231f20;fill-opacity:1;fill-rule:nonzero;stroke:none"><tspan id="tspan126" x="0" y="0">(</tspan></text><text id="text132" transform="matrix(1,0,0,-1,96.18089,149.777)" style="font-style:italic;font-variant:normal;font-size:6.90171003px;font-family:'Times New Roman';-inkscape-font-specification:TimesNewRomanPS-ItalicMT;writing-mode:lr-tb;fill:#231f20;fill-opacity:1;fill-rule:nonzero;stroke:none"><tspan id="tspan130" x="0" y="0">I</tspan></text><text id="text136" transform="matrix(1,0,0,-1,99.30667,149.777)" style="font-variant:normal;font-weight:400;font-size:6.90171003px;font-family:'Times New Roman';-inkscape-font-specification:TimesNewRomanPSMT;writing-mode:lr-tb;fill:#231f20;fill-opacity:1;fill-rule:nonzero;stroke:none"><tspan id="tspan134" x="0" y="0">)</tspan></text><text id="text146" transform="matrix(1,0,0,-1,91.595555,138.2997)" style="font-variant:normal;font-weight:400;font-size:7.47053003px;font-family:'Times New Roman';-inkscape-font-specification:Times-Roman;writing-mode:lr-tb;fill:#231f20;fill-opacity:1;fill-rule:nonzero;stroke:none"><tspan id="tspan138" x="0 1.868" y="0">.9</tspan><tspan id="tspan140" x="-33.617 0 1.868" y="7.478"> .5</tspan><tspan id="tspan142" x="-33.617 0 1.868" y="14.949"> .5</tspan><tspan id="tspan144" x="-33.617 0 1.868" y="22.421"> .1</tspan></text></g><path id="path148" d="M 613.594,1465.35 H 1061.08" style="fill:none;stroke:#231f20;stroke-width:5;stroke-linecap:butt;stroke-linejoin:miter;stroke-miterlimit:10;stroke-dasharray:none;stroke-opacity:1"/><path id="path150" d="M 839.395,1577.37 V 1118.32" style="fill:none;stroke:#231f20;stroke-width:5;stroke-linecap:butt;stroke-linejoin:miter;stroke-miterlimit:10;stroke-dasharray:none;stroke-opacity:1"/><path id="path152" d="M 1323.49,154.328 V 424.699 H 973.484 V 154.328 h 350.006" style="fill:#fff;fill-opacity:1;fill-rule:evenodd;stroke:none"/><path id="path154" d="M 1323.49,154.328 V 424.699 H 973.484 V 154.328 Z" style="fill:none;stroke:#231f20;stroke-width:5;stroke-linecap:butt;stroke-linejoin:miter;stroke-miterlimit:10;stroke-dasharray:none;stroke-opacity:1"/><path id="path156" d="M 1116.67,424.699 V 154.328" style="fill:none;stroke:#231f20;stroke-width:5;stroke-linecap:butt;stroke-linejoin:miter;stroke-miterlimit:10;stroke-dasharray:none;stroke-opacity:1"/><path id="path158" d="M 973.484,334.68 H 1323.49" style="fill:none;stroke:#231f20;stroke-width:5;stroke-linecap:butt;stroke-linejoin:miter;stroke-miterlimit:10;stroke-dasharray:none;stroke-opacity:1"/><g id="g160" transform="scale(10)"><text id="text164" transform="matrix(1,0,0,-1,101.247,36.148)" style="font-style:italic;font-variant:normal;font-size:6.90171003px;font-family:'Times New Roman';-inkscape-font-specification:TimesNewRomanPS-ItalicMT;writing-mode:lr-tb;fill:#231f20;fill-opacity:1;fill-rule:nonzero;stroke:none"><tspan id="tspan162" x="0 15.09" y="0">GP</tspan></text><text id="text168" transform="matrix(1,0,0,-1,120.5532,36.148)" style="font-variant:normal;font-weight:400;font-size:6.90171003px;font-family:'Times New Roman';-inkscape-font-specification:TimesNewRomanPSMT;writing-mode:lr-tb;fill:#231f20;fill-opacity:1;fill-rule:nonzero;stroke:none"><tspan id="tspan166" x="0" y="0">(</tspan></text><text id="text172" transform="matrix(1,0,0,-1,122.85125,36.148)" style="font-style:italic;font-variant:normal;font-size:6.90171003px;font-family:'Times New Roman';-inkscape-font-specification:TimesNewRomanPS-ItalicMT;writing-mode:lr-tb;fill:#231f20;fill-opacity:1;fill-rule:nonzero;stroke:none"><tspan id="tspan170" x="0" y="0">J</tspan></text><text id="text176" transform="matrix(1,0,0,-1,125.91414,36.148)" style="font-variant:normal;font-weight:400;font-size:6.90171003px;font-family:'Times New Roman';-inkscape-font-specification:TimesNewRomanPSMT;writing-mode:lr-tb;fill:#231f20;fill-opacity:1;fill-rule:nonzero;stroke:none"><tspan id="tspan174" x="0" y="0">)</tspan></text><text id="text182" transform="matrix(1,0,0,-1,118.61805,25.9878)" style="font-variant:normal;font-weight:400;font-size:7.47053003px;font-family:'Times New Roman';-inkscape-font-specification:Times-Roman;writing-mode:lr-tb;fill:#231f20;fill-opacity:1;fill-rule:nonzero;stroke:none"><tspan id="tspan178" x="0 1.868" y="0">.9</tspan><tspan id="tspan180" x="0 1.868" y="7.457">.0</tspan></text></g><path id="path184" d="M 605.258,5.55078 V 761.277 H 2.5 V 5.55078 h 602.758" style="fill:#fff;fill-opacity:1;fill-rule:evenodd;stroke:none"/><path id="path186" d="M 605.258,5.55078 V 761.277 H 2.5 V 5.55078 Z" style="fill:none;stroke:#231f20;stroke-width:5;stroke-linecap:butt;stroke-linejoin:miter;stroke-miterlimit:10;stroke-dasharray:none;stroke-opacity:1"/><g id="g188" transform="scale(10)"><text id="text192" transform="matrix(1,0,0,-1,5.03281,60.0777)" style="font-style:italic;font-variant:normal;font-size:7.47053003px;font-family:'Times New Roman';-inkscape-font-specification:TimesNewRomanPS-ItalicMT;writing-mode:lr-tb;fill:#231f20;fill-opacity:1;fill-rule:nonzero;stroke:none"><tspan id="tspan190" x="0" y="0">t</tspan></text><text id="text196" transform="matrix(1,0,0,-1,45.47811,59.8277)" style="font-variant:normal;font-weight:400;font-size:7.47053003px;font-family:'Times New Roman';-inkscape-font-specification:Times-Roman;writing-mode:lr-tb;fill:#231f20;fill-opacity:1;fill-rule:nonzero;stroke:none"><tspan id="tspan194" x="0 1.868" y="0">.9</tspan></text><text id="text202" transform="matrix(1,0,0,-1,4.42151,69.61286)" style="font-style:italic;font-variant:normal;font-size:6.90171003px;font-family:'Times New Roman';-inkscape-font-specification:TimesNewRomanPS-ItalicMT;writing-mode:lr-tb;fill:#231f20;fill-opacity:1;fill-rule:nonzero;stroke:none"><tspan id="tspan198" x="0 21.596" y="0">BM</tspan><tspan id="tspan200" x="37.643" y="-.5">P</tspan></text><text id="text206" transform="matrix(1,0,0,-1,46.27974,70.11286)" style="font-variant:normal;font-weight:400;font-size:6.90171003px;font-family:'Times New Roman';-inkscape-font-specification:TimesNewRomanPSMT;writing-mode:lr-tb;fill:#231f20;fill-opacity:1;fill-rule:nonzero;stroke:none"><tspan id="tspan204" x="0" y="0">(</tspan></text><text id="text210" transform="matrix(1,0,0,-1,48.57818,70.11286)" style="font-style:italic;font-variant:normal;font-size:6.90171003px;font-family:'Times New Roman';-inkscape-font-specification:TimesNewRomanPS-ItalicMT;writing-mode:lr-tb;fill:#231f20;fill-opacity:1;fill-rule:nonzero;stroke:none"><tspan id="tspan208" x="0" y="0">G</tspan></text><text id="text214" transform="matrix(1,0,0,-1,53.56256,70.11286)" style="font-variant:normal;font-weight:400;font-size:6.90171003px;font-family:'Times New Roman';-inkscape-font-specification:TimesNewRomanPSMT;writing-mode:lr-tb;fill:#231f20;fill-opacity:1;fill-rule:nonzero;stroke:none"><tspan id="tspan212" x="0" y="0">)</tspan></text><text id="text230" transform="matrix(1,0,0,-1,45.47819,36.41406)" style="font-variant:normal;font-weight:400;font-size:7.47053003px;font-family:'Times New Roman';-inkscape-font-specification:Times-Roman;writing-mode:lr-tb;fill:#231f20;fill-opacity:1;fill-rule:nonzero;stroke:none"><tspan id="tspan216" x="0 1.868" y="0">.0</tspan><tspan id="tspan218" x="0 1.868" y="24.871">.0</tspan><tspan id="tspan220" x="0 1.868" y="33.215">.0</tspan><tspan id="tspan222" x="0 1.868" y="-8.101">.0</tspan><tspan id="tspan224" x="0 1.868" y="-15.816">.8</tspan><tspan id="tspan226" x="0 1.868" y="8.303">.2</tspan><tspan id="tspan228" x="0 1.868" y="16.653">.1</tspan></text></g><path id="path232" d="M 150.172,1156.29 H 330.813" style="fill:none;stroke:#231f20;stroke-width:5;stroke-linecap:butt;stroke-linejoin:miter;stroke-miterlimit:10;stroke-dasharray:none;stroke-opacity:1"/><path id="path234" d="M 2.30078,674.969 H 605.258" style="fill:none;stroke:#231f20;stroke-width:5;stroke-linecap:butt;stroke-linejoin:miter;stroke-miterlimit:10;stroke-dasharray:none;stroke-opacity:1"/><path id="path236" d="M 378.652,758.641 V 5.55078" style="fill:none;stroke:#231f20;stroke-width:5;stroke-linecap:butt;stroke-linejoin:miter;stroke-miterlimit:10;stroke-dasharray:none;stroke-opacity:1"/><g id="g238" transform="scale(10)"><text id="text242" transform="matrix(1,0,0,-1,16.6266,69.6203)" style="font-style:italic;font-variant:normal;font-size:6.90171003px;font-family:'Times New Roman';-inkscape-font-specification:TimesNewRomanPS-ItalicMT;writing-mode:lr-tb;fill:#231f20;fill-opacity:1;fill-rule:nonzero;stroke:none"><tspan id="tspan240" x="0" y="0">I</tspan></text><text id="text300" transform="matrix(1,0,0,-1,16.53285,59.99374)" style="font-style:italic;font-variant:normal;font-size:7.47053003px;font-family:'Times New Roman';-inkscape-font-specification:TimesNewRomanPS-ItalicMT;writing-mode:lr-tb;fill:#231f20;fill-opacity:1;fill-rule:nonzero;stroke:none"><tspan id="tspan244" x="0 10.877" y="0">tt</tspan><tspan id="tspan246" x="11" y="7.18">f</tspan><tspan id="tspan248" x="-11.5" y="7.176">t</tspan><tspan id="tspan250" x="0" y="7.26">t</tspan><tspan id="tspan252" x="-.123" y="14.755">f</tspan><tspan id="tspan254" x="-11.689" y="14.776">t</tspan><tspan id="tspan256" x="10.689" y="14.86">t</tspan><tspan id="tspan258" x="-.25" y="23.003">f</tspan><tspan id="tspan260" x="10.623" y="22.974">f</tspan><tspan id="tspan262" x="-11.689" y="22.939">t</tspan><tspan id="tspan264" x="-11.5" y="31.114">f</tspan><tspan id="tspan266" x="-.53 10.347" y="31.291">tt</tspan><tspan id="tspan268" x="-11.623" y="39.128">f</tspan><tspan id="tspan270" x="10.877" y="39.127">f</tspan><tspan id="tspan272" x="-.53" y="39.291">t</tspan><tspan id="tspan274" x="-.061" y="47.296">f</tspan><tspan id="tspan276" x="-11.689" y="47.268">f</tspan><tspan id="tspan278" x="10.439" y="47.291">t</tspan><tspan id="tspan280" x="-.153" y="56.06">f</tspan><tspan id="tspan282" x="-11.78" y="56.031">f</tspan><tspan id="tspan284" x="10.72" y="56.03">f</tspan><tspan id="tspan286" x="49.043 59.921" y="-79.006">tt</tspan><tspan id="tspan288" x="60.043" y="-71.828">f</tspan><tspan id="tspan290" x="49.043" y="-71.747">t</tspan><tspan id="tspan292" x="48.921" y="-64.252">f</tspan><tspan id="tspan294" x="59.732" y="-64.147">t</tspan><tspan id="tspan296" x="48.793" y="-56.004">f</tspan><tspan id="tspan298" x="59.666" y="-56.034">f</tspan></text></g><path id="path302" d="m 1360.78,1038.25 v 215.3 h 180.65 v -215.3 h -180.65" style="fill:#fff;fill-opacity:1;fill-rule:evenodd;stroke:none"/><path id="path304" d="m 1360.78,1038.25 v 215.3 h 180.65 v -215.3 z" style="fill:none;stroke:#231f20;stroke-width:5;stroke-linecap:butt;stroke-linejoin:miter;stroke-miterlimit:10;stroke-dasharray:none;stroke-opacity:1"/><g id="g306" transform="scale(10)"><text id="text310" transform="matrix(1,0,0,-1,137.717,118.662)" style="font-style:italic;font-variant:normal;font-size:6.90171003px;font-family:'Times New Roman';-inkscape-font-specification:TimesNewRomanPS-ItalicMT;writing-mode:lr-tb;fill:#231f20;fill-opacity:1;fill-rule:nonzero;stroke:none"><tspan id="tspan308" x="0" y="0">P</tspan></text><text id="text314" transform="matrix(1,0,0,-1,141.93263,118.662)" style="font-variant:normal;font-weight:400;font-size:6.90171003px;font-family:'Times New Roman';-inkscape-font-specification:TimesNewRomanPSMT;writing-mode:lr-tb;fill:#231f20;fill-opacity:1;fill-rule:nonzero;stroke:none"><tspan id="tspan312" x="0" y="0">(</tspan></text><text id="text318" transform="matrix(1,0,0,-1,144.23068,118.662)" style="font-style:italic;font-variant:normal;font-size:6.90171003px;font-family:'Times New Roman';-inkscape-font-specification:TimesNewRomanPS-ItalicMT;writing-mode:lr-tb;fill:#231f20;fill-opacity:1;fill-rule:nonzero;stroke:none"><tspan id="tspan316" x="0" y="0">M</tspan></text><text id="text322" transform="matrix(1,0,0,-1,149.9799,118.662)" style="font-variant:normal;font-weight:400;font-size:6.90171003px;font-family:'Times New Roman';-inkscape-font-specification:TimesNewRomanPSMT;writing-mode:lr-tb;fill:#231f20;fill-opacity:1;fill-rule:nonzero;stroke:none"><tspan id="tspan320" x="0" y="0">)</tspan></text><text id="text326" transform="matrix(1,0,0,-1,141.84201,107.1241)" style="font-variant:normal;font-weight:400;font-size:7.47053003px;font-family:'Times New Roman';-inkscape-font-specification:Times-Roman;writing-mode:lr-tb;fill:#231f20;fill-opacity:1;fill-rule:nonzero;stroke:none"><tspan id="tspan324" x="0 1.868" y="0">.1</tspan></text></g><path id="path328" d="m 1360.78,1153.52 h 180.65" style="fill:none;stroke:#231f20;stroke-width:5;stroke-linecap:butt;stroke-linejoin:miter;stroke-miterlimit:10;stroke-dasharray:none;stroke-opacity:1"/><g id="g330" transform="scale(10)"><text id="text336" transform="matrix(1,0,0,-1,102.858,27.1281)" style="font-style:italic;font-variant:normal;font-size:7.47053003px;font-family:'Times New Roman';-inkscape-font-specification:TimesNewRomanPS-ItalicMT;writing-mode:lr-tb;fill:#231f20;fill-opacity:1;fill-rule:nonzero;stroke:none"><tspan id="tspan332" x="0" y="0">t</tspan><tspan id="tspan334" x=".122" y="7.179">f</tspan></text></g></g></g></svg>