<svg xmlns="http://www.w3.org/2000/svg" xmlns:svg="http://www.w3.org/2000/svg" id="svg2" width="480.24" height="384.8" version="1.1" viewBox="0 0 480.24 384.8" xml:space="preserve"><metadata id="metadata8"/><g id="g10" transform="matrix(1.3333333,0,0,-1.3333333,0,384.8)"><g id="g12" transform="scale(0.1)"><path id="path14" d="m 2218.3,2521.01 360,-270" style="fill:none;stroke:#231f20;stroke-width:10;stroke-linecap:butt;stroke-linejoin:miter;stroke-miterlimit:4;stroke-dasharray:none;stroke-opacity:1"/><path id="path16" d="m 2218.3,2521.01 360,270" style="fill:none;stroke:#231f20;stroke-width:10;stroke-linecap:butt;stroke-linejoin:miter;stroke-miterlimit:4;stroke-dasharray:none;stroke-opacity:1"/><path id="path18" d="M 868.301,2521.01 H 2218.3" style="fill:none;stroke:#231f20;stroke-width:10;stroke-linecap:butt;stroke-linejoin:miter;stroke-miterlimit:4;stroke-dasharray:none;stroke-opacity:1"/><g id="g20" transform="scale(10)"><text id="text26" transform="matrix(1,0,0,-1,0,99.1012)" style="font-variant:normal;font-weight:400;font-size:10px;font-family:'Times New Roman';-inkscape-font-specification:Times-Roman;writing-mode:lr-tb;fill:#231f20;fill-opacity:1;fill-rule:nonzero;stroke:none"><tspan id="tspan22" x="0 3.33 8.33" y="0">(b)</tspan><tspan id="tspan24" x=".281 3.611 8.051" y="-150.815">(a)</tspan></text></g><path id="path28" d="m 958.301,2521.01 c 0,-49.71 -40.293,-90 -90,-90 -49.707,0 -90,40.29 -90,90 0,49.71 40.293,90 90,90 49.707,0 90,-40.29 90,-90" style="fill:#fff;fill-opacity:1;fill-rule:nonzero;stroke:none"/><path id="path30" d="m 958.301,2521.01 c 0,-49.71 -40.293,-90 -90,-90 -49.707,0 -90,40.29 -90,90 0,49.71 40.293,90 90,90 49.707,0 90,-40.29 90,-90 z" style="fill:none;stroke:#231f20;stroke-width:10;stroke-linecap:butt;stroke-linejoin:miter;stroke-miterlimit:4;stroke-dasharray:none;stroke-opacity:1"/><g id="g32" transform="scale(10)"><text id="text36" transform="matrix(1,0,0,-1,84.0801,249.734)" style="font-variant:normal;font-weight:700;font-size:11px;font-family:'Times New Roman';-inkscape-font-specification:Times-Bold;writing-mode:lr-tb;fill:#231f20;fill-opacity:1;fill-rule:nonzero;stroke:none"><tspan id="tspan34" x="0" y="0">a</tspan></text></g><path id="path38" d="m 2668.3,2251.01 c 0,-49.71 -40.29,-90 -90,-90 -49.71,0 -90,40.29 -90,90 0,49.71 40.29,90 90,90 49.71,0 90,-40.29 90,-90" style="fill:#fff;fill-opacity:1;fill-rule:nonzero;stroke:none"/><path id="path40" d="m 2668.3,2251.01 c 0,-49.71 -40.29,-90 -90,-90 -49.71,0 -90,40.29 -90,90 0,49.71 40.29,90 90,90 49.71,0 90,-40.29 90,-90 z" style="fill:none;stroke:#231f20;stroke-width:10;stroke-linecap:butt;stroke-linejoin:miter;stroke-miterlimit:4;stroke-dasharray:none;stroke-opacity:1"/><g id="g42" transform="scale(10)"><text id="text46" transform="matrix(1,0,0,-1,255.696,222.734)" style="font-variant:normal;font-weight:700;font-size:11px;font-family:'Times New Roman';-inkscape-font-specification:Times-Bold;writing-mode:lr-tb;fill:#231f20;fill-opacity:1;fill-rule:nonzero;stroke:none"><tspan id="tspan44" x="0" y="0">f</tspan></text></g><path id="path48" d="m 2668.3,2791.01 c 0,-49.71 -40.29,-90 -90,-90 -49.71,0 -90,40.29 -90,90 0,49.71 40.29,90 90,90 49.71,0 90,-40.29 90,-90" style="fill:#fff;fill-opacity:1;fill-rule:nonzero;stroke:none"/><path id="path50" d="m 2668.3,2791.01 c 0,-49.71 -40.29,-90 -90,-90 -49.71,0 -90,40.29 -90,90 0,49.71 40.29,90 90,90 49.71,0 90,-40.29 90,-90 z" style="fill:none;stroke:#231f20;stroke-width:10;stroke-linecap:butt;stroke-linejoin:miter;stroke-miterlimit:4;stroke-dasharray:none;stroke-opacity:1"/><g id="g52" transform="scale(10)"><text id="text56" transform="matrix(1,0,0,-1,255.08,276.734)" style="font-variant:normal;font-weight:700;font-size:11px;font-family:'Times New Roman';-inkscape-font-specification:Times-Bold;writing-mode:lr-tb;fill:#231f20;fill-opacity:1;fill-rule:nonzero;stroke:none"><tspan id="tspan54" x="0" y="0">e</tspan></text></g><path id="path58" d="m 2308.3,2521.01 c 0,-49.71 -40.29,-90 -90,-90 -49.71,0 -90,40.29 -90,90 0,49.71 40.29,90 90,90 49.71,0 90,-40.29 90,-90" style="fill:#fff;fill-opacity:1;fill-rule:nonzero;stroke:none"/><path id="path60" d="m 2308.3,2521.01 c 0,-49.71 -40.29,-90 -90,-90 -49.71,0 -90,40.29 -90,90 0,49.71 40.29,90 90,90 49.71,0 90,-40.29 90,-90 z" style="fill:none;stroke:#231f20;stroke-width:10;stroke-linecap:butt;stroke-linejoin:miter;stroke-miterlimit:4;stroke-dasharray:none;stroke-opacity:1"/><g id="g62" transform="scale(10)"><text id="text66" transform="matrix(1,0,0,-1,218.771,249.734)" style="font-variant:normal;font-weight:700;font-size:11px;font-family:'Times New Roman';-inkscape-font-specification:Times-Bold;writing-mode:lr-tb;fill:#231f20;fill-opacity:1;fill-rule:nonzero;stroke:none"><tspan id="tspan64" x="0" y="0">d</tspan></text></g><path id="path68" d="m 1858.3,2521.01 c 0,-49.71 -40.29,-90 -90,-90 -49.71,0 -90,40.29 -90,90 0,49.71 40.29,90 90,90 49.71,0 90,-40.29 90,-90" style="fill:#fff;fill-opacity:1;fill-rule:nonzero;stroke:none"/><path id="path70" d="m 1858.3,2521.01 c 0,-49.71 -40.29,-90 -90,-90 -49.71,0 -90,40.29 -90,90 0,49.71 40.29,90 90,90 49.71,0 90,-40.29 90,-90 z" style="fill:none;stroke:#231f20;stroke-width:10;stroke-linecap:butt;stroke-linejoin:miter;stroke-miterlimit:4;stroke-dasharray:none;stroke-opacity:1"/><g id="g72" transform="scale(10)"><text id="text76" transform="matrix(1,0,0,-1,174.08,249.734)" style="font-variant:normal;font-weight:700;font-size:11px;font-family:'Times New Roman';-inkscape-font-specification:Times-Bold;writing-mode:lr-tb;fill:#231f20;fill-opacity:1;fill-rule:nonzero;stroke:none"><tspan id="tspan74" x="0" y="0">c</tspan></text></g><path id="path78" d="m 1408.3,2521.01 c 0,-49.71 -40.29,-90 -90,-90 -49.71,0 -90,40.29 -90,90 0,49.71 40.29,90 90,90 49.71,0 90,-40.29 90,-90" style="fill:#fff;fill-opacity:1;fill-rule:nonzero;stroke:none"/><path id="path80" d="m 1408.3,2521.01 c 0,-49.71 -40.29,-90 -90,-90 -49.71,0 -90,40.29 -90,90 0,49.71 40.29,90 90,90 49.71,0 90,-40.29 90,-90 z" style="fill:none;stroke:#231f20;stroke-width:10;stroke-linecap:butt;stroke-linejoin:miter;stroke-miterlimit:4;stroke-dasharray:none;stroke-opacity:1"/><g id="g82" transform="scale(10)"><text id="text86" transform="matrix(1,0,0,-1,128.771,249.734)" style="font-variant:normal;font-weight:700;font-size:11px;font-family:'Times New Roman';-inkscape-font-specification:Times-Bold;writing-mode:lr-tb;fill:#231f20;fill-opacity:1;fill-rule:nonzero;stroke:none"><tspan id="tspan84" x="0" y="0">b</tspan></text></g><path id="path88" d="M 2015,1802.52 1160,1544" style="fill:none;stroke:#231f20;stroke-width:10;stroke-linecap:butt;stroke-linejoin:miter;stroke-miterlimit:4;stroke-dasharray:none;stroke-opacity:1"/><path id="path90" d="M 2015,1802.52 2870,1544" style="fill:none;stroke:#231f20;stroke-width:10;stroke-linecap:butt;stroke-linejoin:miter;stroke-miterlimit:4;stroke-dasharray:none;stroke-opacity:1"/><path id="path92" d="M 1160,1330.25 561.5,1073.75" style="fill:none;stroke:#231f20;stroke-width:10;stroke-linecap:butt;stroke-linejoin:miter;stroke-miterlimit:4;stroke-dasharray:none;stroke-opacity:1"/><path id="path94" d="m 1160,1330.25 v -256.5" style="fill:none;stroke:#231f20;stroke-width:10;stroke-linecap:butt;stroke-linejoin:miter;stroke-miterlimit:4;stroke-dasharray:none;stroke-opacity:1"/><path id="path96" d="m 1160,1330.25 600.12,-256.5" style="fill:none;stroke:#231f20;stroke-width:10;stroke-linecap:butt;stroke-linejoin:miter;stroke-miterlimit:4;stroke-dasharray:none;stroke-opacity:1"/><path id="path98" d="M 561.5,860 390.496,603.5" style="fill:none;stroke:#231f20;stroke-width:10;stroke-linecap:butt;stroke-linejoin:miter;stroke-miterlimit:4;stroke-dasharray:none;stroke-opacity:1"/><path id="path100" d="M 561.5,860 639.895,731.75" style="fill:none;stroke:#231f20;stroke-width:10;stroke-linecap:butt;stroke-linejoin:miter;stroke-miterlimit:4;stroke-dasharray:none;stroke-opacity:1"/><path id="path102" d="M 1160,860 989,603.5" style="fill:none;stroke:#231f20;stroke-width:10;stroke-linecap:butt;stroke-linejoin:miter;stroke-miterlimit:4;stroke-dasharray:none;stroke-opacity:1"/><path id="path104" d="m 1160,860 78.39,-128.25" style="fill:none;stroke:#231f20;stroke-width:10;stroke-linecap:butt;stroke-linejoin:miter;stroke-miterlimit:4;stroke-dasharray:none;stroke-opacity:1"/><path id="path106" d="m 2869.18,1330.25 -598.5,-256.5" style="fill:none;stroke:#231f20;stroke-width:10;stroke-linecap:butt;stroke-linejoin:miter;stroke-miterlimit:4;stroke-dasharray:none;stroke-opacity:1"/><path id="path108" d="m 2869.18,1330.25 v -256.5" style="fill:none;stroke:#231f20;stroke-width:10;stroke-linecap:butt;stroke-linejoin:miter;stroke-miterlimit:4;stroke-dasharray:none;stroke-opacity:1"/><path id="path110" d="m 2869.18,1330.25 600.14,-256.5" style="fill:none;stroke:#231f20;stroke-width:10;stroke-linecap:butt;stroke-linejoin:miter;stroke-miterlimit:4;stroke-dasharray:none;stroke-opacity:1"/><path id="path112" d="M 390.496,389.75 V 218.762" style="fill:none;stroke:#231f20;stroke-width:10;stroke-linecap:butt;stroke-linejoin:miter;stroke-miterlimit:4;stroke-dasharray:none;stroke-opacity:1"/><path id="path114" d="M 989,389.75 V 218.762" style="fill:none;stroke:#231f20;stroke-width:10;stroke-linecap:butt;stroke-linejoin:miter;stroke-miterlimit:4;stroke-dasharray:none;stroke-opacity:1"/><g id="g116" transform="scale(10)"><text id="text120" transform="matrix(1,0,0,-1,195.688,183.942)" style="font-variant:normal;font-weight:700;font-size:10.44999981px;font-family:'Times New Roman';-inkscape-font-specification:Times-Bold;writing-mode:lr-tb;fill:#231f20;fill-opacity:1;fill-rule:nonzero;stroke:none"><tspan id="tspan118" x="0 5.812" y="0">bd</tspan></text></g><path id="path122" d="M 1886.75,1802.52 2015,2016.27" style="fill:none;stroke:#231f20;stroke-width:10;stroke-linecap:butt;stroke-linejoin:miter;stroke-miterlimit:4;stroke-dasharray:none;stroke-opacity:1"/><path id="path124" d="m 2015,2016.27 128.24,-213.75" style="fill:none;stroke:#231f20;stroke-width:10;stroke-linecap:butt;stroke-linejoin:miter;stroke-miterlimit:4;stroke-dasharray:none;stroke-opacity:1"/><path id="path126" d="M 2143.24,1802.52 H 1886.75" style="fill:none;stroke:#231f20;stroke-width:10;stroke-linecap:butt;stroke-linejoin:miter;stroke-miterlimit:4;stroke-dasharray:none;stroke-opacity:1"/><path id="path128" d="M 1031.75,1544 1160,1330.25" style="fill:none;stroke:#231f20;stroke-width:10;stroke-linecap:butt;stroke-linejoin:miter;stroke-miterlimit:4;stroke-dasharray:none;stroke-opacity:1"/><path id="path130" d="M 1160,1330.25 1288.25,1544" style="fill:none;stroke:#231f20;stroke-width:10;stroke-linecap:butt;stroke-linejoin:miter;stroke-miterlimit:4;stroke-dasharray:none;stroke-opacity:1"/><path id="path132" d="m 1288.25,1544 h -256.5" style="fill:none;stroke:#231f20;stroke-width:10;stroke-linecap:butt;stroke-linejoin:miter;stroke-miterlimit:4;stroke-dasharray:none;stroke-opacity:1"/><g id="g134" transform="scale(10)"><text id="text138" transform="matrix(1,0,0,-1,110.775,144.314)" style="font-variant:normal;font-weight:700;font-size:10.44999981px;font-family:'Times New Roman';-inkscape-font-specification:Times-Bold;writing-mode:lr-tb;fill:#231f20;fill-opacity:1;fill-rule:nonzero;stroke:none"><tspan id="tspan136" x="0 4.638" y="0">cd</tspan></text></g><path id="path140" d="M 2741.74,1544 2870,1330.25" style="fill:none;stroke:#231f20;stroke-width:10;stroke-linecap:butt;stroke-linejoin:miter;stroke-miterlimit:4;stroke-dasharray:none;stroke-opacity:1"/><path id="path142" d="M 2870,1330.25 2998.24,1544" style="fill:none;stroke:#231f20;stroke-width:10;stroke-linecap:butt;stroke-linejoin:miter;stroke-miterlimit:4;stroke-dasharray:none;stroke-opacity:1"/><path id="path144" d="m 2998.24,1544 h -256.5" style="fill:none;stroke:#231f20;stroke-width:10;stroke-linecap:butt;stroke-linejoin:miter;stroke-miterlimit:4;stroke-dasharray:none;stroke-opacity:1"/><g id="g146" transform="scale(10)"><text id="text150" transform="matrix(1,0,0,-1,281.481,144.314)" style="font-variant:normal;font-weight:700;font-size:10.44999981px;font-family:'Times New Roman';-inkscape-font-specification:Times-Bold;writing-mode:lr-tb;fill:#231f20;fill-opacity:1;fill-rule:nonzero;stroke:none"><tspan id="tspan148" x="0 5.225" y="0">ad</tspan></text></g><path id="path152" d="M 433.246,860 561.5,1073.75" style="fill:none;stroke:#231f20;stroke-width:10;stroke-linecap:butt;stroke-linejoin:miter;stroke-miterlimit:4;stroke-dasharray:none;stroke-opacity:1"/><path id="path154" d="M 561.5,1073.75 689.746,860" style="fill:none;stroke:#231f20;stroke-width:10;stroke-linecap:butt;stroke-linejoin:miter;stroke-miterlimit:4;stroke-dasharray:none;stroke-opacity:1"/><path id="path156" d="m 689.746,860 h -256.5" style="fill:none;stroke:#231f20;stroke-width:10;stroke-linecap:butt;stroke-linejoin:miter;stroke-miterlimit:4;stroke-dasharray:none;stroke-opacity:1"/><g id="g158" transform="scale(10)"><text id="text162" transform="matrix(1,0,0,-1,51.5117,89.6891)" style="font-variant:normal;font-weight:700;font-size:10.44999981px;font-family:'Times New Roman';-inkscape-font-specification:Times-Bold;writing-mode:lr-tb;fill:#231f20;fill-opacity:1;fill-rule:nonzero;stroke:none"><tspan id="tspan160" x="0 4.638" y="0">ce</tspan></text></g><path id="path164" d="M 1031.75,860 1160,1073.75" style="fill:none;stroke:#231f20;stroke-width:10;stroke-linecap:butt;stroke-linejoin:miter;stroke-miterlimit:4;stroke-dasharray:none;stroke-opacity:1"/><path id="path166" d="M 1160,1073.75 1288.25,860" style="fill:none;stroke:#231f20;stroke-width:10;stroke-linecap:butt;stroke-linejoin:miter;stroke-miterlimit:4;stroke-dasharray:none;stroke-opacity:1"/><path id="path168" d="m 1288.25,860 h -256.5" style="fill:none;stroke:#231f20;stroke-width:10;stroke-linecap:butt;stroke-linejoin:miter;stroke-miterlimit:4;stroke-dasharray:none;stroke-opacity:1"/><g id="g170" transform="scale(10)"><text id="text176" transform="matrix(1,0,0,-1,111.653,89.6891)" style="font-variant:normal;font-weight:700;font-size:10.44999981px;font-family:'Times New Roman';-inkscape-font-specification:Times-Bold;writing-mode:lr-tb;fill:#231f20;fill-opacity:1;fill-rule:nonzero;stroke:none"><tspan id="tspan172" x="0 4.638" y="0">cf</tspan><tspan id="tspan174" x="59.721 64.359" y="-.27">cc</tspan></text></g><path id="path178" d="m 1631.87,862.699 128.25,213.751" style="fill:none;stroke:#231f20;stroke-width:10;stroke-linecap:butt;stroke-linejoin:miter;stroke-miterlimit:4;stroke-dasharray:none;stroke-opacity:1"/><path id="path180" d="M 1760.12,1076.45 1888.37,862.699" style="fill:none;stroke:#231f20;stroke-width:10;stroke-linecap:butt;stroke-linejoin:miter;stroke-miterlimit:4;stroke-dasharray:none;stroke-opacity:1"/><path id="path182" d="m 1888.37,862.699 h -256.5" style="fill:none;stroke:#231f20;stroke-width:10;stroke-linecap:butt;stroke-linejoin:miter;stroke-miterlimit:4;stroke-dasharray:none;stroke-opacity:1"/><path id="path184" d="M 2142.44,858.652 2270.68,1072.4" style="fill:none;stroke:#231f20;stroke-width:10;stroke-linecap:butt;stroke-linejoin:miter;stroke-miterlimit:4;stroke-dasharray:none;stroke-opacity:1"/><path id="path186" d="M 2270.68,1072.4 2398.93,858.652" style="fill:none;stroke:#231f20;stroke-width:10;stroke-linecap:butt;stroke-linejoin:miter;stroke-miterlimit:4;stroke-dasharray:none;stroke-opacity:1"/><path id="path188" d="M 2398.93,858.652 H 2142.44" style="fill:none;stroke:#231f20;stroke-width:10;stroke-linecap:butt;stroke-linejoin:miter;stroke-miterlimit:4;stroke-dasharray:none;stroke-opacity:1"/><g id="g190" transform="scale(10)"><text id="text194" transform="matrix(1,0,0,-1,222.138,89.5539)" style="font-variant:normal;font-weight:700;font-size:10.44999981px;font-family:'Times New Roman';-inkscape-font-specification:Times-Bold;writing-mode:lr-tb;fill:#231f20;fill-opacity:1;fill-rule:nonzero;stroke:none"><tspan id="tspan192" x="0 5.225" y="0">ae</tspan></text></g><path id="path196" d="M 2740.93,858.652 2869.18,1072.4" style="fill:none;stroke:#231f20;stroke-width:10;stroke-linecap:butt;stroke-linejoin:miter;stroke-miterlimit:4;stroke-dasharray:none;stroke-opacity:1"/><path id="path198" d="M 2869.18,1072.4 2997.42,858.652" style="fill:none;stroke:#231f20;stroke-width:10;stroke-linecap:butt;stroke-linejoin:miter;stroke-miterlimit:4;stroke-dasharray:none;stroke-opacity:1"/><path id="path200" d="M 2997.42,858.652 H 2740.93" style="fill:none;stroke:#231f20;stroke-width:10;stroke-linecap:butt;stroke-linejoin:miter;stroke-miterlimit:4;stroke-dasharray:none;stroke-opacity:1"/><g id="g202" transform="scale(10)"><text id="text206" transform="matrix(1,0,0,-1,282.279,89.5539)" style="font-variant:normal;font-weight:700;font-size:10.44999981px;font-family:'Times New Roman';-inkscape-font-specification:Times-Bold;writing-mode:lr-tb;fill:#231f20;fill-opacity:1;fill-rule:nonzero;stroke:none"><tspan id="tspan204" x="0 5.225" y="0">af</tspan></text></g><path id="path208" d="M 3341.05,861.352 3469.32,1075.1" style="fill:none;stroke:#231f20;stroke-width:10;stroke-linecap:butt;stroke-linejoin:miter;stroke-miterlimit:4;stroke-dasharray:none;stroke-opacity:1"/><path id="path210" d="M 3469.32,1075.1 3597.56,861.352" style="fill:none;stroke:#231f20;stroke-width:10;stroke-linecap:butt;stroke-linejoin:miter;stroke-miterlimit:4;stroke-dasharray:none;stroke-opacity:1"/><path id="path212" d="M 3597.56,861.352 H 3341.05" style="fill:none;stroke:#231f20;stroke-width:10;stroke-linecap:butt;stroke-linejoin:miter;stroke-miterlimit:4;stroke-dasharray:none;stroke-opacity:1"/><g id="g214" transform="scale(10)"><text id="text218" transform="matrix(1,0,0,-1,341.999,89.825)" style="font-variant:normal;font-weight:700;font-size:10.44999981px;font-family:'Times New Roman';-inkscape-font-specification:Times-Bold;writing-mode:lr-tb;fill:#231f20;fill-opacity:1;fill-rule:nonzero;stroke:none"><tspan id="tspan216" x="0 5.225" y="0">ac</tspan></text></g><path id="path220" d="M 262.246,603.5 390.496,389.75" style="fill:none;stroke:#231f20;stroke-width:10;stroke-linecap:butt;stroke-linejoin:miter;stroke-miterlimit:4;stroke-dasharray:none;stroke-opacity:1"/><path id="path222" d="M 390.496,389.75 518.75,603.5" style="fill:none;stroke:#231f20;stroke-width:10;stroke-linecap:butt;stroke-linejoin:miter;stroke-miterlimit:4;stroke-dasharray:none;stroke-opacity:1"/><path id="path224" d="M 518.75,603.5 H 262.246" style="fill:none;stroke:#231f20;stroke-width:10;stroke-linecap:butt;stroke-linejoin:miter;stroke-miterlimit:4;stroke-dasharray:none;stroke-opacity:1"/><g id="g226" transform="scale(10)"><text id="text230" transform="matrix(1,0,0,-1,33.8246,50.2641)" style="font-variant:normal;font-weight:700;font-size:10.44999981px;font-family:'Times New Roman';-inkscape-font-specification:Times-Bold;writing-mode:lr-tb;fill:#231f20;fill-opacity:1;fill-rule:nonzero;stroke:none"><tspan id="tspan228" x="0 5.812" y="0">de</tspan></text></g><path id="path232" d="M 860.746,603.5 989,389.75" style="fill:none;stroke:#231f20;stroke-width:10;stroke-linecap:butt;stroke-linejoin:miter;stroke-miterlimit:4;stroke-dasharray:none;stroke-opacity:1"/><path id="path234" d="M 989,389.75 1117.25,603.5" style="fill:none;stroke:#231f20;stroke-width:10;stroke-linecap:butt;stroke-linejoin:miter;stroke-miterlimit:4;stroke-dasharray:none;stroke-opacity:1"/><path id="path236" d="M 1117.25,603.5 H 860.746" style="fill:none;stroke:#231f20;stroke-width:10;stroke-linecap:butt;stroke-linejoin:miter;stroke-miterlimit:4;stroke-dasharray:none;stroke-opacity:1"/><g id="g238" transform="scale(10)"><text id="text242" transform="matrix(1,0,0,-1,93.6746,50.2652)" style="font-variant:normal;font-weight:700;font-size:10.44999981px;font-family:'Times New Roman';-inkscape-font-specification:Times-Bold;writing-mode:lr-tb;fill:#231f20;fill-opacity:1;fill-rule:nonzero;stroke:none"><tspan id="tspan240" x="0 5.812" y="0">df</tspan></text></g><path id="path244" d="m 262.246,5 128.25,213.75" style="fill:none;stroke:#231f20;stroke-width:10;stroke-linecap:butt;stroke-linejoin:miter;stroke-miterlimit:4;stroke-dasharray:none;stroke-opacity:1"/><path id="path246" d="M 390.496,218.75 518.75,5" style="fill:none;stroke:#231f20;stroke-width:10;stroke-linecap:butt;stroke-linejoin:miter;stroke-miterlimit:4;stroke-dasharray:none;stroke-opacity:1"/><path id="path248" d="M 518.75,5 H 262.246" style="fill:none;stroke:#231f20;stroke-width:10;stroke-linecap:butt;stroke-linejoin:miter;stroke-miterlimit:4;stroke-dasharray:none;stroke-opacity:1"/><g id="g250" transform="scale(10)"><text id="text254" transform="matrix(1,0,0,-1,33.2379,5.14023)" style="font-variant:normal;font-weight:700;font-size:10.44999981px;font-family:'Times New Roman';-inkscape-font-specification:Times-Bold;writing-mode:lr-tb;fill:#231f20;fill-opacity:1;fill-rule:nonzero;stroke:none"><tspan id="tspan252" x="0 5.812" y="0">dd</tspan></text></g><path id="path256" d="M 860.746,5 989,218.75" style="fill:none;stroke:#231f20;stroke-width:10;stroke-linecap:butt;stroke-linejoin:miter;stroke-miterlimit:4;stroke-dasharray:none;stroke-opacity:1"/><path id="path258" d="M 989,218.75 1117.25,5" style="fill:none;stroke:#231f20;stroke-width:10;stroke-linecap:butt;stroke-linejoin:miter;stroke-miterlimit:4;stroke-dasharray:none;stroke-opacity:1"/><path id="path260" d="M 1117.25,5 H 860.746" style="fill:none;stroke:#231f20;stroke-width:10;stroke-linecap:butt;stroke-linejoin:miter;stroke-miterlimit:4;stroke-dasharray:none;stroke-opacity:1"/><g id="g262" transform="scale(10)"><text id="text266" transform="matrix(1,0,0,-1,93.0883,5.14023)" style="font-variant:normal;font-weight:700;font-size:10.44999981px;font-family:'Times New Roman';-inkscape-font-specification:Times-Bold;writing-mode:lr-tb;fill:#231f20;fill-opacity:1;fill-rule:nonzero;stroke:none"><tspan id="tspan264" x="0 5.812" y="0">dd</tspan></text></g><path id="path268" d="M 2270.68,861.352 V 731.75" style="fill:none;stroke:#231f20;stroke-width:10;stroke-linecap:butt;stroke-linejoin:miter;stroke-miterlimit:4;stroke-dasharray:none;stroke-opacity:1"/><path id="path270" d="M 2869.18,858.652 V 731.75" style="fill:none;stroke:#231f20;stroke-width:10;stroke-linecap:butt;stroke-linejoin:miter;stroke-miterlimit:4;stroke-dasharray:none;stroke-opacity:1"/><path id="path272" d="M 3469.32,861.352 V 731.75" style="fill:none;stroke:#231f20;stroke-width:10;stroke-linecap:butt;stroke-linejoin:miter;stroke-miterlimit:4;stroke-dasharray:none;stroke-opacity:1"/><g id="g274" transform="scale(10)"><text id="text278" transform="matrix(1,0,0,-1,62.3246,64.625)" style="font-variant:normal;font-weight:700;font-size:10.44999981px;font-family:'Times New Roman';-inkscape-font-specification:Times-Bold;writing-mode:lr-tb;fill:#231f20;fill-opacity:1;fill-rule:nonzero;stroke:none"><tspan id="tspan276" x="0 282.15 222.3 162.45 59.85" y="0">?????</tspan></text><text id="text282" transform="matrix(1,0,0,-1,127.82968,232.101)" style="font-style:italic;font-variant:normal;font-size:11px;font-family:'Times New Roman';-inkscape-font-specification:TimesNewRomanPS-ItalicMT;writing-mode:lr-tb;fill:#231f20;fill-opacity:1;fill-rule:nonzero;stroke:none"><tspan id="tspan280" x="0 90.334" y="0">PE</tspan></text></g></g></g></svg>