<svg xmlns="http://www.w3.org/2000/svg" xmlns:svg="http://www.w3.org/2000/svg" id="svg2" width="364.133" height="436.133" version="1.1" viewBox="0 0 364.133 436.133" xml:space="preserve"><metadata id="metadata8"/><g id="g10" transform="matrix(1.3333333,0,0,-1.3333333,0,436.13333)"><g id="g12" transform="scale(0.1)"><path id="path14" d="m 4.33594,2452.95 v 0 H 1905.53 v 0 z" style="fill:none;stroke:#231f20;stroke-width:8.67500019;stroke-linecap:butt;stroke-linejoin:miter;stroke-miterlimit:10;stroke-dasharray:none;stroke-opacity:1"/><path id="path16" d="M 4.33594,1639.22 H 1905.53" style="fill:none;stroke:#231f20;stroke-width:8.67500019;stroke-linecap:butt;stroke-linejoin:miter;stroke-miterlimit:10;stroke-dasharray:none;stroke-opacity:1"/><path id="path18" d="M 4.33594,818.082 H 1905.53" style="fill:none;stroke:#231f20;stroke-width:8.67500019;stroke-linecap:butt;stroke-linejoin:miter;stroke-miterlimit:10;stroke-dasharray:none;stroke-opacity:1"/><path id="path20" d="M 4.33594,4.33984 V 3266.68 H 2726.65 V 4.33984 Z" style="fill:none;stroke:#231f20;stroke-width:8.67500019;stroke-linecap:butt;stroke-linejoin:miter;stroke-miterlimit:10;stroke-dasharray:none;stroke-opacity:1"/><path id="path22" d="M 1905.53,3266.68 V 2992.97" style="fill:none;stroke:#231f20;stroke-width:8.67500019;stroke-linecap:butt;stroke-linejoin:miter;stroke-miterlimit:10;stroke-dasharray:none;stroke-opacity:1"/><path id="path24" d="M 1905.53,2726.66 V 2179.24" style="fill:none;stroke:#231f20;stroke-width:8.67500019;stroke-linecap:butt;stroke-linejoin:miter;stroke-miterlimit:10;stroke-dasharray:none;stroke-opacity:1"/><path id="path26" d="M 1905.53,1905.53 V 1365.5" style="fill:none;stroke:#231f20;stroke-width:8.67500019;stroke-linecap:butt;stroke-linejoin:miter;stroke-miterlimit:10;stroke-dasharray:none;stroke-opacity:1"/><path id="path28" d="M 1905.53,1091.8 V 551.77" style="fill:none;stroke:#231f20;stroke-width:8.67500019;stroke-linecap:butt;stroke-linejoin:miter;stroke-miterlimit:10;stroke-dasharray:none;stroke-opacity:1"/><path id="path30" d="M 1905.53,278.07 V 4.33984" style="fill:none;stroke:#231f20;stroke-width:8.67500019;stroke-linecap:butt;stroke-linejoin:miter;stroke-miterlimit:10;stroke-dasharray:none;stroke-opacity:1"/><g id="g32" transform="scale(10)"><text id="text42" transform="matrix(1,0,0,-1,61.7727,275.55)" style="font-variant:normal;font-weight:400;font-size:12.81000042px;font-family:'Times New Roman';-inkscape-font-specification:Times-Roman;writing-mode:lr-tb;fill:#231f20;fill-opacity:1;fill-rule:nonzero;stroke:none"><tspan id="tspan34" x="0 8.544 14.949 21.354 31.32 34.523" y="0">Room 4</tspan><tspan id="tspan36" x="0 8.544 14.949 21.354 31.32 34.523" y="81.374">Room 3</tspan><tspan id="tspan38" x="0 8.544 14.949 21.354 31.32 34.523" y="163.488">Room 2</tspan><tspan id="tspan40" x="0 8.544 14.949 21.354 31.32 34.523" y="244.86">Room 1</tspan></text><text id="text58" transform="matrix(1,0,0,-1,177.8677,38.65113)" style="font-variant:normal;font-weight:400;font-size:8.87709999px;font-family:'Times New Roman';-inkscape-font-specification:Times-Roman;writing-mode:lr-tb;fill:#231f20;fill-opacity:1;fill-rule:nonzero;stroke:none"><tspan id="tspan44" x="0 6.409 10.848 15.286 18.242 20.462" y="0">Door 1</tspan><tspan id="tspan46" x="-.334 6.075 10.514 14.952 17.908 20.128" y="-82.706">Door 2</tspan><tspan id="tspan48" x="-.667 5.742 10.181 14.619 17.575 19.795" y="-163.154">Door 3</tspan><tspan id="tspan50" x="-1.667 4.742 9.181 13.619 16.575 18.795" y="-245.525">Door 4</tspan><tspan id="tspan52" x="-28.002 -22.081 -17.643 -13.204 -10.985" y="23.641">Box 1</tspan><tspan id="tspan54" x="-47.976 -42.055 -37.617 -33.178 -30.959" y="-17.046">Box 2</tspan><tspan id="tspan56" x="-98.844 -92.923 -88.485 -84.046 -81.827" y="-23.008">Box 3</tspan></text></g><path id="path60" d="M 1261.93,485.199 V 692.32 h 273.7 V 485.199 Z" style="fill:none;stroke:#231f20;stroke-width:8.67500019;stroke-linecap:butt;stroke-linejoin:miter;stroke-miterlimit:10;stroke-dasharray:none;stroke-opacity:1"/><path id="path62" d="M 1461.65,78.3203 V 285.449 h 273.71 V 78.3203 Z" style="fill:none;stroke:#231f20;stroke-width:8.67500019;stroke-linecap:butt;stroke-linejoin:miter;stroke-miterlimit:10;stroke-dasharray:none;stroke-opacity:1"/><path id="path64" d="m 753.238,544.801 v 207.14 h 273.702 v -207.14 z" style="fill:none;stroke:#231f20;stroke-width:8.67500019;stroke-linecap:butt;stroke-linejoin:miter;stroke-miterlimit:10;stroke-dasharray:none;stroke-opacity:1"/><g id="g66" transform="scale(10)"><text id="text70" transform="matrix(1,0,0,-1,17.818,183.895)" style="font-variant:normal;font-weight:400;font-size:8.87709999px;font-family:'Times New Roman';-inkscape-font-specification:Times-Roman;writing-mode:lr-tb;fill:#231f20;fill-opacity:1;fill-rule:nonzero;stroke:none"><tspan id="tspan68" x="0 4.936 9.374 13.316 17.754 21.696" y="0">Shakey</tspan></text></g><path id="path72" d="m 429.77,2030.24 c 0,16.33 -16.567,29.58 -36.993,29.58 -20.41,0 -36.98,-13.25 -36.98,-29.58 0,-16.34 16.57,-29.59 36.98,-29.59 20.426,0 36.993,13.25 36.993,29.59" style="fill:#231f20;fill-opacity:1;fill-rule:evenodd;stroke:none"/><path id="path74" d="m 429.77,2030.24 c 0,16.33 -16.567,29.58 -36.993,29.58 -20.41,0 -36.98,-13.25 -36.98,-29.58 0,-16.34 16.57,-29.59 36.98,-29.59 20.426,0 36.993,13.25 36.993,29.59" style="fill:none;stroke:#231f20;stroke-width:17.34900093;stroke-linecap:butt;stroke-linejoin:miter;stroke-miterlimit:10;stroke-dasharray:none;stroke-opacity:1"/><path id="path76" d="m 303.902,2030.24 c 0,16.33 -16.574,29.58 -36.988,29.58 -20.414,0 -36.992,-13.25 -36.992,-29.58 0,-16.34 16.578,-29.59 36.992,-29.59 20.414,0 36.988,13.25 36.988,29.59" style="fill:#231f20;fill-opacity:1;fill-rule:evenodd;stroke:none"/><path id="path78" d="m 303.902,2030.24 c 0,16.33 -16.574,29.58 -36.988,29.58 -20.414,0 -36.992,-13.25 -36.992,-29.58 0,-16.34 16.578,-29.59 36.992,-29.59 20.414,0 36.988,13.25 36.988,29.59" style="fill:none;stroke:#231f20;stroke-width:17.34900093;stroke-linecap:butt;stroke-linejoin:miter;stroke-miterlimit:10;stroke-dasharray:none;stroke-opacity:1"/><path id="path80" d="m 226.266,2060.87 v 199.74 h 207.125 v -199.74 z" style="fill:none;stroke:#231f20;stroke-width:17.34900093;stroke-linecap:butt;stroke-linejoin:miter;stroke-miterlimit:10;stroke-dasharray:none;stroke-opacity:1"/><path id="path82" d="m 300.234,2260.61 v 73.98 h 66.586 v -73.98 z" style="fill:none;stroke:#231f20;stroke-width:17.34900093;stroke-linecap:butt;stroke-linejoin:miter;stroke-miterlimit:10;stroke-dasharray:none;stroke-opacity:1"/><path id="path84" d="m 433.391,2194.03 h 66.582" style="fill:none;stroke:#231f20;stroke-width:17.34900093;stroke-linecap:butt;stroke-linejoin:miter;stroke-miterlimit:10;stroke-dasharray:none;stroke-opacity:1"/><path id="path86" d="m 159.684,2194.03 h 66.582" style="fill:none;stroke:#231f20;stroke-width:17.34900093;stroke-linecap:butt;stroke-linejoin:miter;stroke-miterlimit:10;stroke-dasharray:none;stroke-opacity:1"/><g id="g88" transform="scale(10)"><text id="text98" transform="matrix(1,0,0,-1,156.361,72.427)" style="font-variant:normal;font-weight:400;font-size:8.87709999px;font-family:'Times New Roman';-inkscape-font-specification:Times-Roman;writing-mode:lr-tb;fill:#231f20;fill-opacity:1;fill-rule:nonzero;stroke:none"><tspan id="tspan90" x="0 4.936 11.345 13.813 16.281 20.222 24.661 26.88" y="0">Switch 1</tspan><tspan id="tspan92" x="0 4.936 11.345 13.813 16.281 20.222 24.661 26.88" y="-82.29">Switch 2</tspan><tspan id="tspan94" x="0 4.936 11.345 13.813 16.281 20.222 24.661 26.88" y="-163.248">Switch 3</tspan><tspan id="tspan96" x="0 4.936 11.345 13.813 16.281 20.222 24.661 26.88" y="-245.777">Switch 4</tspan></text></g><path id="path100" d="m 1905.53,2205.82 v -66.58" style="fill:none;stroke:#231f20;stroke-width:8.67500019;stroke-linecap:butt;stroke-linejoin:miter;stroke-miterlimit:10;stroke-dasharray:none;stroke-opacity:1"/><path id="path102" d="m 115.297,115.309 v 207.14 h 273.711 v -207.14 z" style="fill:none;stroke:#231f20;stroke-width:8.67500019;stroke-linecap:butt;stroke-linejoin:miter;stroke-miterlimit:10;stroke-dasharray:none;stroke-opacity:1"/><g id="g104" transform="scale(10)"><text id="text108" transform="matrix(1,0,0,-1,15.2285,18.707)" style="font-variant:normal;font-weight:400;font-size:8.87709999px;font-family:'Times New Roman';-inkscape-font-specification:Times-Roman;writing-mode:lr-tb;fill:#231f20;fill-opacity:1;fill-rule:nonzero;stroke:none"><tspan id="tspan106" x="0 5.921 10.36 14.798 17.017" y="0">Box 4</tspan></text><text id="text112" transform="matrix(1,0,0,-1,207.7125,159.814)" style="font-variant:normal;font-weight:400;font-size:12.81000042px;font-family:'Times New Roman';-inkscape-font-specification:Times-Roman;writing-mode:lr-tb;fill:#231f20;fill-opacity:1;fill-rule:nonzero;stroke:none"><tspan id="tspan110" x="0 8.544 14.949 19.215 23.481 27.042 33.447 39.852" y="0">Corridor</tspan></text></g><path id="path114" d="m 1900.01,3154.52 c 0,0 -12.93,-9.05 -15.52,-19.4 l -43.96,15.52 c 0,0 -12.93,-7.76 -15.52,-31.03 l 47.84,-23.28 c 0,0 0,-20.69 23.28,-36.21" style="fill:none;stroke:#231f20;stroke-width:5;stroke-linecap:butt;stroke-linejoin:miter;stroke-miterlimit:4;stroke-dasharray:none;stroke-opacity:1"/><path id="path116" d="m 1906.26,3027.62 h -12.5 v 152.5 h 12.5 v -152.5" style="fill:#fff;fill-opacity:1;fill-rule:nonzero;stroke:none"/><path id="path118" d="m 1906.26,3027.62 h -12.5 v 152.5 h 12.5 z" style="fill:none;stroke:#231f20;stroke-width:5;stroke-linecap:butt;stroke-linejoin:miter;stroke-miterlimit:4;stroke-dasharray:none;stroke-opacity:1"/><path id="path120" d="m 1900.01,701.191 c 0,0 -12.93,-9.062 -15.52,-19.402 l -43.96,15.52 c 0,0 -12.93,-7.75 -15.52,-31.039 l 47.84,-23.282 c 0,0 0,-20.679 23.28,-36.199" style="fill:none;stroke:#231f20;stroke-width:5;stroke-linecap:butt;stroke-linejoin:miter;stroke-miterlimit:4;stroke-dasharray:none;stroke-opacity:1"/><path id="path122" d="m 1906.26,574.289 h -12.5 v 152.5 h 12.5 v -152.5" style="fill:#fff;fill-opacity:1;fill-rule:nonzero;stroke:none"/><path id="path124" d="m 1906.26,574.289 h -12.5 v 152.5 h 12.5 z" style="fill:none;stroke:#231f20;stroke-width:5;stroke-linecap:butt;stroke-linejoin:miter;stroke-miterlimit:4;stroke-dasharray:none;stroke-opacity:1"/><path id="path126" d="m 1900.01,1424.53 c 0,0 -12.93,9.05 -15.52,19.39 l -43.96,-15.52 c 0,0 -12.93,7.76 -15.52,31.04 l 47.84,23.28 c 0,0 0,20.68 23.28,36.2" style="fill:none;stroke:#231f20;stroke-width:5;stroke-linecap:butt;stroke-linejoin:miter;stroke-miterlimit:4;stroke-dasharray:none;stroke-opacity:1"/><path id="path128" d="m 1906.26,1551.42 h -12.5 v -152.5 h 12.5 v 152.5" style="fill:#fff;fill-opacity:1;fill-rule:nonzero;stroke:none"/><path id="path130" d="m 1906.26,1551.42 h -12.5 v -152.5 h 12.5 z" style="fill:none;stroke:#231f20;stroke-width:5;stroke-linecap:butt;stroke-linejoin:miter;stroke-miterlimit:4;stroke-dasharray:none;stroke-opacity:1"/><path id="path132" d="m 1900.01,2226.98 c 0,0 -12.93,9.05 -15.52,19.39 l -43.96,-15.52 c 0,0 -12.93,7.76 -15.52,31.04 l 47.84,23.28 c 0,0 0,20.69 23.28,36.2" style="fill:none;stroke:#231f20;stroke-width:5;stroke-linecap:butt;stroke-linejoin:miter;stroke-miterlimit:4;stroke-dasharray:none;stroke-opacity:1"/><path id="path134" d="m 1906.26,2353.87 h -12.5 v -152.5 h 12.5 v 152.5" style="fill:#fff;fill-opacity:1;fill-rule:nonzero;stroke:none"/><path id="path136" d="m 1906.26,2353.87 h -12.5 v -152.5 h 12.5 z" style="fill:none;stroke:#231f20;stroke-width:5;stroke-linecap:butt;stroke-linejoin:miter;stroke-miterlimit:4;stroke-dasharray:none;stroke-opacity:1"/></g></g></svg>