<svg xmlns="http://www.w3.org/2000/svg" xmlns:svg="http://www.w3.org/2000/svg" id="svg2" width="529.533" height="186.773" version="1.1" viewBox="0 0 529.533 186.773" xml:space="preserve"><metadata id="metadata8"/><g id="g10" transform="matrix(1.3333333,0,0,-1.3333333,0,186.77333)"><g id="g12" transform="scale(0.1)"><path id="path14" d="M 3164.1,1186.85 V 516.902" style="fill:none;stroke:#231f20;stroke-width:6.87099981;stroke-linecap:butt;stroke-linejoin:miter;stroke-miterlimit:10;stroke-dasharray:none;stroke-opacity:1"/><path id="path16" d="m 3185.68,589.063 -21.58,-86.333 -21.57,86.333" style="fill:#231f20;fill-opacity:1;fill-rule:evenodd;stroke:none"/><path id="path18" d="m 3181.29,585.621 -17.19,-68.719 -17.17,68.719" style="fill:none;stroke:#231f20;stroke-width:6.87099981;stroke-linecap:butt;stroke-linejoin:miter;stroke-miterlimit:10;stroke-dasharray:none;stroke-opacity:1"/><path id="path20" d="M 3220.21,1189.02 3449.25,944.633" style="fill:none;stroke:#231f20;stroke-width:6.27099991;stroke-linecap:butt;stroke-linejoin:miter;stroke-miterlimit:10;stroke-dasharray:none;stroke-opacity:1"/><path id="path22" d="m 3407.75,1007.47 52.37,-71.919 -80.05,38.816" style="fill:#231f20;fill-opacity:1;fill-rule:evenodd;stroke:none"/><path id="path24" d="m 3407.57,1001.9 41.68,-57.267 -63.71,30.906" style="fill:none;stroke:#231f20;stroke-width:6.87099981;stroke-linecap:butt;stroke-linejoin:miter;stroke-miterlimit:10;stroke-dasharray:none;stroke-opacity:1"/><path id="path26" d="M 3791.09,1188.56 3584.96,948.07" style="fill:none;stroke:#231f20;stroke-width:6.87099981;stroke-linecap:butt;stroke-linejoin:miter;stroke-miterlimit:10;stroke-dasharray:none;stroke-opacity:1"/><path id="path28" d="m 3648.3,988.809 -72.56,-51.493 39.79,79.574" style="fill:#231f20;fill-opacity:1;fill-rule:evenodd;stroke:none"/><path id="path30" d="m 3642.72,989.063 -57.76,-40.993 31.68,63.35" style="fill:none;stroke:#231f20;stroke-width:6.87099981;stroke-linecap:butt;stroke-linejoin:miter;stroke-miterlimit:10;stroke-dasharray:none;stroke-opacity:1"/><path id="path32" d="M 3481.89,755.676 3284.35,468.809" style="fill:none;stroke:#231f20;stroke-width:6.87099981;stroke-linecap:butt;stroke-linejoin:miter;stroke-miterlimit:10;stroke-dasharray:none;stroke-opacity:1"/><path id="path34" d="m 3343.05,515.992 -66.73,-58.847 31.18,83.324" style="fill:#231f20;fill-opacity:1;fill-rule:evenodd;stroke:none"/><path id="path36" d="m 3337.46,515.66 -53.11,-46.851 24.82,66.328" style="fill:none;stroke:#231f20;stroke-width:6.87099981;stroke-linecap:butt;stroke-linejoin:miter;stroke-miterlimit:10;stroke-dasharray:none;stroke-opacity:1"/><path id="path38" d="M 3825.45,1202.31 V 499.727" style="fill:none;stroke:#231f20;stroke-width:6.87099981;stroke-linecap:butt;stroke-linejoin:miter;stroke-miterlimit:10;stroke-dasharray:none;stroke-opacity:1"/><path id="path40" d="m 3847.03,571.871 -21.58,-86.308 -21.56,86.308" style="fill:#231f20;fill-opacity:1;fill-rule:evenodd;stroke:none"/><path id="path42" d="m 3842.64,568.438 -17.19,-68.711 -17.17,68.711" style="fill:none;stroke:#231f20;stroke-width:6.87099981;stroke-linecap:butt;stroke-linejoin:miter;stroke-miterlimit:10;stroke-dasharray:none;stroke-opacity:1"/><path id="path44" d="M 3578.09,755.676 3768.77,480.84" style="fill:none;stroke:#231f20;stroke-width:6.87099981;stroke-linecap:butt;stroke-linejoin:miter;stroke-miterlimit:10;stroke-dasharray:none;stroke-opacity:1"/><path id="path46" d="m 3745.37,552.41 31.47,-83.215 -66.93,58.618" style="fill:#231f20;fill-opacity:1;fill-rule:evenodd;stroke:none"/><path id="path48" d="m 3743.72,547.09 25.05,-66.25 -53.28,46.656" style="fill:none;stroke:#231f20;stroke-width:6.87099981;stroke-linecap:butt;stroke-linejoin:miter;stroke-miterlimit:10;stroke-dasharray:none;stroke-opacity:1"/><path id="path50" d="m 3239.68,1241.81 h 443.2" style="fill:none;stroke:#231f20;stroke-width:6.87099981;stroke-linecap:butt;stroke-linejoin:miter;stroke-miterlimit:10;stroke-dasharray:none;stroke-opacity:1"/><path id="path52" d="m 3610.72,1263.39 86.32,-21.58 -86.32,-21.57" style="fill:#231f20;fill-opacity:1;fill-rule:evenodd;stroke:none"/><path id="path54" d="m 3614.16,1258.99 68.72,-17.18 -68.72,-17.17" style="fill:none;stroke:#231f20;stroke-width:6.87099981;stroke-linecap:butt;stroke-linejoin:miter;stroke-miterlimit:10;stroke-dasharray:none;stroke-opacity:1"/><path id="path56" d="m 3310.47,1254.26 c 0,72.07 -58.5,130.55 -130.55,130.55 -72.07,0 -130.54,-58.48 -130.54,-130.55 0,-72.06 58.47,-130.55 130.54,-130.55 72.05,0 130.55,58.49 130.55,130.55" style="fill:#fff;fill-opacity:1;fill-rule:evenodd;stroke:none"/><path id="path58" d="m 3310.47,1254.26 c 0,72.07 -58.5,130.55 -130.55,130.55 -72.07,0 -130.54,-58.48 -130.54,-130.55 0,-72.06 58.47,-130.55 130.54,-130.55 72.05,0 130.55,58.49 130.55,130.55" style="fill:none;stroke:#231f20;stroke-width:6.87099981;stroke-linecap:butt;stroke-linejoin:miter;stroke-miterlimit:10;stroke-dasharray:none;stroke-opacity:1"/><path id="path60" d="m 3968.04,1256.76 c 0,72.07 -58.49,130.55 -130.56,130.55 -72.07,0 -130.56,-58.48 -130.56,-130.55 0,-72.06 58.49,-130.55 130.56,-130.55 72.07,0 130.56,58.49 130.56,130.55" style="fill:#fff;fill-opacity:1;fill-rule:evenodd;stroke:none"/><path id="path62" d="m 3968.04,1256.76 c 0,72.07 -58.49,130.55 -130.56,130.55 -72.07,0 -130.56,-58.48 -130.56,-130.55 0,-72.06 58.49,-130.55 130.56,-130.55 72.07,0 130.56,58.49 130.56,130.55" style="fill:none;stroke:#231f20;stroke-width:6.87099981;stroke-linecap:butt;stroke-linejoin:miter;stroke-miterlimit:10;stroke-dasharray:none;stroke-opacity:1"/><path id="path64" d="m 3316.31,363.43 c 0,72.054 -58.5,130.543 -130.55,130.543 -72.07,0 -130.55,-58.489 -130.55,-130.543 0,-72.059 58.48,-130.559 130.55,-130.559 72.05,0 130.55,58.5 130.55,130.559" style="fill:#fff;fill-opacity:1;fill-rule:evenodd;stroke:none"/><path id="path66" d="m 3316.31,363.43 c 0,72.054 -58.5,130.543 -130.55,130.543 -72.07,0 -130.55,-58.489 -130.55,-130.543 0,-72.059 58.48,-130.559 130.55,-130.559 72.05,0 130.55,58.5 130.55,130.559" style="fill:none;stroke:#231f20;stroke-width:6.87099981;stroke-linecap:butt;stroke-linejoin:miter;stroke-miterlimit:10;stroke-dasharray:none;stroke-opacity:1"/><path id="path68" d="m 3966.37,363.43 c 0,72.054 -58.48,130.543 -130.55,130.543 -72.07,0 -130.57,-58.489 -130.57,-130.543 0,-72.059 58.5,-130.559 130.57,-130.559 72.07,0 130.55,58.5 130.55,130.559" style="fill:#fff;fill-opacity:1;fill-rule:evenodd;stroke:none"/><path id="path70" d="m 3966.37,363.43 c 0,72.054 -58.48,130.543 -130.55,130.543 -72.07,0 -130.57,-58.489 -130.57,-130.543 0,-72.059 58.5,-130.559 130.57,-130.559 72.07,0 130.55,58.5 130.55,130.559" style="fill:none;stroke:#231f20;stroke-width:6.87099981;stroke-linecap:butt;stroke-linejoin:miter;stroke-miterlimit:10;stroke-dasharray:none;stroke-opacity:1"/><path id="path72" d="m 3652.75,815.988 c 0,72.071 -58.49,130.559 -130.55,130.559 -72.07,0 -130.55,-58.488 -130.55,-130.559 0,-72.058 58.48,-130.543 130.55,-130.543 72.06,0 130.55,58.485 130.55,130.543" style="fill:#fff;fill-opacity:1;fill-rule:evenodd;stroke:none"/><path id="path74" d="m 3652.75,815.988 c 0,72.071 -58.49,130.559 -130.55,130.559 -72.07,0 -130.55,-58.488 -130.55,-130.559 0,-72.058 58.48,-130.543 130.55,-130.543 72.06,0 130.55,58.485 130.55,130.543" style="fill:none;stroke:#231f20;stroke-width:6.87099981;stroke-linecap:butt;stroke-linejoin:miter;stroke-miterlimit:10;stroke-dasharray:none;stroke-opacity:1"/><g id="g76" transform="scale(10)"><text id="text80" transform="matrix(1,0,0,-1,348.219,77.7973)" style="font-style:italic;font-variant:normal;font-size:12px;font-family:'Times New Roman';-inkscape-font-specification:Times-Italic;writing-mode:lr-tb;fill:#231f20;fill-opacity:1;fill-rule:nonzero;stroke:none"><tspan id="tspan78" x="0" y="0">N</tspan></text></g><path id="path82" d="M 961.406,1195.43 V 944.633" style="fill:none;stroke:#231f20;stroke-width:6.87099981;stroke-linecap:butt;stroke-linejoin:miter;stroke-miterlimit:10;stroke-dasharray:none;stroke-opacity:1"/><path id="path84" d="m 982.984,1016.79 -21.578,-86.313 -21.578,86.313" style="fill:#231f20;fill-opacity:1;fill-rule:evenodd;stroke:none"/><path id="path86" d="m 978.586,1013.35 -17.18,-68.717 -17.176,68.717" style="fill:none;stroke:#231f20;stroke-width:6.87099981;stroke-linecap:butt;stroke-linejoin:miter;stroke-miterlimit:10;stroke-dasharray:none;stroke-opacity:1"/><path id="path88" d="M 191.836,683.531 432.324,479.117" style="fill:none;stroke:#231f20;stroke-width:6.87099981;stroke-linecap:butt;stroke-linejoin:miter;stroke-miterlimit:10;stroke-dasharray:none;stroke-opacity:1"/><path id="path90" d="m 391.328,542.281 51.793,-72.343 -79.738,39.472" style="fill:#231f20;fill-opacity:1;fill-rule:evenodd;stroke:none"/><path id="path92" d="m 391.094,536.695 41.23,-57.578 -63.476,31.406" style="fill:none;stroke:#231f20;stroke-width:6.87099981;stroke-linecap:butt;stroke-linejoin:miter;stroke-miterlimit:10;stroke-dasharray:none;stroke-opacity:1"/><path id="path94" d="M 906.441,683.531 638.457,479.117" style="fill:none;stroke:#231f20;stroke-width:6.87099981;stroke-linecap:butt;stroke-linejoin:miter;stroke-miterlimit:10;stroke-dasharray:none;stroke-opacity:1"/><path id="path96" d="m 708.906,505.723 -81.711,-35.2 55.543,69.512" style="fill:#231f20;fill-opacity:1;fill-rule:evenodd;stroke:none"/><path id="path98" d="m 703.512,507.129 -65.055,-28.012 44.219,55.332" style="fill:none;stroke:#231f20;stroke-width:6.87099981;stroke-linecap:butt;stroke-linejoin:miter;stroke-miterlimit:10;stroke-dasharray:none;stroke-opacity:1"/><path id="path100" d="M 121.406,1173.1 V 949.789" style="fill:none;stroke:#231f20;stroke-width:6.87099981;stroke-linecap:butt;stroke-linejoin:miter;stroke-miterlimit:10;stroke-dasharray:none;stroke-opacity:1"/><path id="path102" d="M 142.984,1021.94 121.406,935.625 99.8281,1021.94" style="fill:#231f20;fill-opacity:1;fill-rule:evenodd;stroke:none"/><path id="path104" d="M 138.586,1018.5 121.406,949.789 104.23,1018.5" style="fill:none;stroke:#231f20;stroke-width:6.87099981;stroke-linecap:butt;stroke-linejoin:miter;stroke-miterlimit:10;stroke-dasharray:none;stroke-opacity:1"/><path id="path106" d="m 264.539,790.984 c 0,72.063 -58.488,130.559 -130.551,130.559 -72.07,0 -130.5505,-58.496 -130.5505,-130.559 0,-72.07 58.4805,-130.546 130.5505,-130.546 72.063,0 130.551,58.476 130.551,130.546" style="fill:#fff;fill-opacity:1;fill-rule:evenodd;stroke:none"/><path id="path108" d="m 264.539,790.984 c 0,72.063 -58.488,130.559 -130.551,130.559 -72.07,0 -130.5505,-58.496 -130.5505,-130.559 0,-72.07 58.4805,-130.546 130.5505,-130.546 72.063,0 130.551,58.476 130.551,130.546" style="fill:none;stroke:#231f20;stroke-width:6.87099981;stroke-linecap:butt;stroke-linejoin:miter;stroke-miterlimit:10;stroke-dasharray:none;stroke-opacity:1"/><path id="path110" d="m 1100.47,789.91 c 0,72.067 -58.49,130.559 -130.552,130.559 -72.063,0 -130.555,-58.492 -130.555,-130.559 0,-72.058 58.492,-130.566 130.555,-130.566 72.062,0 130.552,58.508 130.552,130.566" style="fill:#fff;fill-opacity:1;fill-rule:evenodd;stroke:none"/><path id="path112" d="m 1100.47,789.91 c 0,72.067 -58.49,130.559 -130.552,130.559 -72.063,0 -130.555,-58.492 -130.555,-130.559 0,-72.058 58.492,-130.566 130.555,-130.566 72.062,0 130.552,58.508 130.552,130.566" style="fill:none;stroke:#231f20;stroke-width:6.87099981;stroke-linecap:butt;stroke-linejoin:miter;stroke-miterlimit:10;stroke-dasharray:none;stroke-opacity:1"/><path id="path114" d="m 267.875,1266.76 c 0,72.07 -58.488,130.55 -130.551,130.55 -72.0701,0 -130.55056,-58.48 -130.55056,-130.55 0,-72.06 58.48046,-130.55 130.55056,-130.55 72.063,0 130.551,58.49 130.551,130.55" style="fill:#fff;fill-opacity:1;fill-rule:evenodd;stroke:none"/><path id="path116" d="m 267.875,1266.76 c 0,72.07 -58.488,130.55 -130.551,130.55 -72.0701,0 -130.55056,-58.48 -130.55056,-130.55 0,-72.06 58.48046,-130.55 130.55056,-130.55 72.063,0 130.551,58.49 130.551,130.55" style="fill:none;stroke:#231f20;stroke-width:6.87099981;stroke-linecap:butt;stroke-linejoin:miter;stroke-miterlimit:10;stroke-dasharray:none;stroke-opacity:1"/><path id="path118" d="m 1103.81,1251.76 c 0,72.07 -58.49,130.55 -130.556,130.55 -72.063,0 -130.555,-58.48 -130.555,-130.55 0,-72.06 58.492,-130.55 130.555,-130.55 72.066,0 130.556,58.49 130.556,130.55" style="fill:#fff;fill-opacity:1;fill-rule:evenodd;stroke:none"/><path id="path120" d="m 1103.81,1251.76 c 0,72.07 -58.49,130.55 -130.556,130.55 -72.063,0 -130.555,-58.48 -130.555,-130.55 0,-72.06 58.492,-130.55 130.555,-130.55 72.066,0 130.556,58.49 130.556,130.55" style="fill:none;stroke:#231f20;stroke-width:6.87099981;stroke-linecap:butt;stroke-linejoin:miter;stroke-miterlimit:10;stroke-dasharray:none;stroke-opacity:1"/><path id="path122" d="m 671.809,369.059 c 0,72.074 -58.489,130.57 -130.547,130.57 -72.074,0 -130.559,-58.496 -130.559,-130.57 0,-72.071 58.485,-130.547 130.559,-130.547 72.058,0 130.547,58.476 130.547,130.547" style="fill:#fff;fill-opacity:1;fill-rule:evenodd;stroke:none"/><path id="path124" d="m 671.809,369.059 c 0,72.074 -58.489,130.57 -130.547,130.57 -72.074,0 -130.559,-58.496 -130.559,-130.57 0,-72.071 58.485,-130.547 130.559,-130.547 72.058,0 130.547,58.476 130.547,130.547" style="fill:none;stroke:#231f20;stroke-width:6.87099981;stroke-linecap:butt;stroke-linejoin:miter;stroke-miterlimit:10;stroke-dasharray:none;stroke-opacity:1"/><g id="g126" transform="scale(10)"><text id="text130" transform="matrix(1,0,0,-1,50.1238,33.1031)" style="font-style:italic;font-variant:normal;font-size:12px;font-family:'Times New Roman';-inkscape-font-specification:Times-Italic;writing-mode:lr-tb;fill:#231f20;fill-opacity:1;fill-rule:nonzero;stroke:none"><tspan id="tspan128" x="0" y="0">N</tspan></text></g><path id="path132" d="m 1627.91,1181.69 54.97,-319.51" style="fill:none;stroke:#231f20;stroke-width:6.87099981;stroke-linecap:butt;stroke-linejoin:miter;stroke-miterlimit:10;stroke-dasharray:none;stroke-opacity:1"/><path id="path134" d="m 1691.91,936.941 -6.63,-88.718 -35.9,81.398" style="fill:#231f20;fill-opacity:1;fill-rule:evenodd;stroke:none"/><path id="path136" d="m 1688.16,932.816 -5.28,-70.636 -28.58,64.808" style="fill:none;stroke:#231f20;stroke-width:6.87099981;stroke-linecap:butt;stroke-linejoin:miter;stroke-miterlimit:10;stroke-dasharray:none;stroke-opacity:1"/><path id="path138" d="M 2079.69,1145.63 1763.61,843.285" style="fill:none;stroke:#231f20;stroke-width:6.87099981;stroke-linecap:butt;stroke-linejoin:miter;stroke-miterlimit:10;stroke-dasharray:none;stroke-opacity:1"/><path id="path140" d="m 1830.66,877.563 -77.28,-44.071 47.46,75.258" style="fill:#231f20;fill-opacity:1;fill-rule:evenodd;stroke:none"/><path id="path142" d="m 1825.14,878.367 -61.53,-35.082 37.79,59.91" style="fill:none;stroke:#231f20;stroke-width:6.87099981;stroke-linecap:butt;stroke-linejoin:miter;stroke-miterlimit:10;stroke-dasharray:none;stroke-opacity:1"/><path id="path144" d="m 2047.05,1149.05 298.9,-312.636" style="fill:none;stroke:#231f20;stroke-width:6.87099981;stroke-linecap:butt;stroke-linejoin:miter;stroke-miterlimit:10;stroke-dasharray:none;stroke-opacity:1"/><path id="path146" d="m 2311.69,903.48 44.05,-77.3 -75.25,47.476" style="fill:#231f20;fill-opacity:1;fill-rule:evenodd;stroke:none"/><path id="path148" d="m 2310.88,897.953 35.07,-61.539 -59.91,37.797" style="fill:none;stroke:#231f20;stroke-width:6.87099981;stroke-linecap:butt;stroke-linejoin:miter;stroke-miterlimit:10;stroke-dasharray:none;stroke-opacity:1"/><path id="path150" d="M 2466.19,1195.43 2435.27,857.027" style="fill:none;stroke:#231f20;stroke-width:6.87099981;stroke-linecap:butt;stroke-linejoin:miter;stroke-miterlimit:10;stroke-dasharray:none;stroke-opacity:1"/><path id="path152" d="m 2463.32,926.91 -29.35,-83.988 -13.62,87.922" style="fill:#231f20;fill-opacity:1;fill-rule:evenodd;stroke:none"/><path id="path154" d="m 2458.62,923.895 -23.35,-66.868 -10.86,69.993" style="fill:none;stroke:#231f20;stroke-width:6.87099981;stroke-linecap:butt;stroke-linejoin:miter;stroke-miterlimit:10;stroke-dasharray:none;stroke-opacity:1"/><path id="path156" d="m 2607.14,1261.76 c 0,72.07 -58.5,130.55 -130.55,130.55 -72.07,0 -130.55,-58.48 -130.55,-130.55 0,-72.06 58.48,-130.55 130.55,-130.55 72.05,0 130.55,58.49 130.55,130.55" style="fill:#fff;fill-opacity:1;fill-rule:evenodd;stroke:none"/><path id="path158" d="m 2607.14,1261.76 c 0,72.07 -58.5,130.55 -130.55,130.55 -72.07,0 -130.55,-58.48 -130.55,-130.55 0,-72.06 58.48,-130.55 130.55,-130.55 72.05,0 130.55,58.49 130.55,130.55" style="fill:none;stroke:#231f20;stroke-width:6.87099981;stroke-linecap:butt;stroke-linejoin:miter;stroke-miterlimit:10;stroke-dasharray:none;stroke-opacity:1"/><path id="path160" d="m 2198.45,1261.76 c 0,72.07 -58.5,130.55 -130.55,130.55 -72.07,0 -130.56,-58.48 -130.56,-130.55 0,-72.06 58.49,-130.55 130.56,-130.55 72.05,0 130.55,58.49 130.55,130.55" style="fill:#fff;fill-opacity:1;fill-rule:evenodd;stroke:none"/><path id="path162" d="m 2198.45,1261.76 c 0,72.07 -58.5,130.55 -130.55,130.55 -72.07,0 -130.56,-58.48 -130.56,-130.55 0,-72.06 58.49,-130.55 130.56,-130.55 72.05,0 130.55,58.49 130.55,130.55" style="fill:none;stroke:#231f20;stroke-width:6.87099981;stroke-linecap:butt;stroke-linejoin:miter;stroke-miterlimit:10;stroke-dasharray:none;stroke-opacity:1"/><path id="path164" d="m 1752.98,1256.76 c 0,72.07 -58.49,130.55 -130.55,130.55 -72.07,0 -130.56,-58.48 -130.56,-130.55 0,-72.06 58.49,-130.55 130.56,-130.55 72.06,0 130.55,58.49 130.55,130.55" style="fill:#fff;fill-opacity:1;fill-rule:evenodd;stroke:none"/><path id="path166" d="m 1752.98,1256.76 c 0,72.07 -58.49,130.55 -130.55,130.55 -72.07,0 -130.56,-58.48 -130.56,-130.55 0,-72.06 58.49,-130.55 130.56,-130.55 72.06,0 130.55,58.49 130.55,130.55" style="fill:none;stroke:#231f20;stroke-width:6.87099981;stroke-linecap:butt;stroke-linejoin:miter;stroke-miterlimit:10;stroke-dasharray:none;stroke-opacity:1"/><path id="path168" d="m 1840.79,698.758 c 0,72.07 -58.49,130.555 -130.56,130.555 -72.07,0 -130.55,-58.485 -130.55,-130.555 0,-72.063 58.48,-130.547 130.55,-130.547 72.07,0 130.56,58.484 130.56,130.547" style="fill:#fff;fill-opacity:1;fill-rule:evenodd;stroke:none"/><path id="path170" d="m 1840.79,698.758 c 0,72.07 -58.49,130.555 -130.56,130.555 -72.07,0 -130.55,-58.485 -130.55,-130.555 0,-72.063 58.48,-130.547 130.55,-130.547 72.07,0 130.56,58.484 130.56,130.547" style="fill:none;stroke:#231f20;stroke-width:6.87099981;stroke-linecap:butt;stroke-linejoin:miter;stroke-miterlimit:10;stroke-dasharray:none;stroke-opacity:1"/><path id="path172" d="m 2559.65,703.758 c 0,72.07 -58.49,130.555 -130.55,130.555 -72.06,0 -130.55,-58.485 -130.55,-130.555 0,-72.063 58.49,-130.547 130.55,-130.547 72.06,0 130.55,58.484 130.55,130.547" style="fill:#fff;fill-opacity:1;fill-rule:evenodd;stroke:none"/><path id="path174" d="m 2559.65,703.758 c 0,72.07 -58.49,130.555 -130.55,130.555 -72.06,0 -130.55,-58.485 -130.55,-130.555 0,-72.063 58.49,-130.547 130.55,-130.547 72.06,0 130.55,58.484 130.55,130.547" style="fill:none;stroke:#231f20;stroke-width:6.87099981;stroke-linecap:butt;stroke-linejoin:miter;stroke-miterlimit:10;stroke-dasharray:none;stroke-opacity:1"/><g id="g176" transform="scale(10)"><text id="text184" transform="matrix(1,0,0,-1,51.1348,5.13789)" style="font-variant:normal;font-weight:400;font-size:12px;font-family:'Times New Roman';-inkscape-font-specification:Times-Roman;writing-mode:lr-tb;fill:#231f20;fill-opacity:1;fill-rule:nonzero;stroke:none"><tspan id="tspan178" x="0 3.996 7.332" y="0">(i)</tspan><tspan id="tspan180" x="151.509 155.505 158.841 162.177" y="-1.374">(ii)</tspan><tspan id="tspan182" x="292.368 296.364 299.7 303.036 306.372" y="-2.061">(iii)</tspan></text><text id="text188" transform="matrix(1,0,0,-1,7.8168,124.37383)" style="font-style:italic;font-variant:normal;font-size:12px;font-family:'Times New Roman';-inkscape-font-specification:Times-Italic;writing-mode:lr-tb;fill:#231f20;fill-opacity:1;fill-rule:nonzero;stroke:none"><tspan id="tspan186" x="0" y="0">F</tspan></text><text id="text192" transform="matrix(1,0,0,-1,15.14727,121.37383)" style="font-variant:normal;font-weight:400;font-size:9px;font-family:'Times New Roman';-inkscape-font-specification:Times-Roman;writing-mode:lr-tb;fill:#231f20;fill-opacity:1;fill-rule:nonzero;stroke:none"><tspan id="tspan190" x="0" y="0">1</tspan></text><text id="text196" transform="matrix(1,0,0,-1,156.32627,123.37383)" style="font-style:italic;font-variant:normal;font-size:12px;font-family:'Times New Roman';-inkscape-font-specification:Times-Italic;writing-mode:lr-tb;fill:#231f20;fill-opacity:1;fill-rule:nonzero;stroke:none"><tspan id="tspan194" x="0" y="0">F</tspan></text><text id="text200" transform="matrix(1,0,0,-1,163.65635,120.37383)" style="font-variant:normal;font-weight:400;font-size:9px;font-family:'Times New Roman';-inkscape-font-specification:Times-Roman;writing-mode:lr-tb;fill:#231f20;fill-opacity:1;fill-rule:nonzero;stroke:none"><tspan id="tspan198" x="0" y="0">1</tspan></text><text id="text204" transform="matrix(1,0,0,-1,312.65935,34.039429)" style="font-style:italic;font-variant:normal;font-size:12px;font-family:'Times New Roman';-inkscape-font-specification:Times-Italic;writing-mode:lr-tb;fill:#231f20;fill-opacity:1;fill-rule:nonzero;stroke:none"><tspan id="tspan202" x="0" y="0">F</tspan></text><text id="text208" transform="matrix(1,0,0,-1,319.98904,31.039429)" style="font-variant:normal;font-weight:400;font-size:9px;font-family:'Times New Roman';-inkscape-font-specification:Times-Roman;writing-mode:lr-tb;fill:#231f20;fill-opacity:1;fill-rule:nonzero;stroke:none"><tspan id="tspan206" x="0" y="0">1</tspan></text><text id="text212" transform="matrix(1,0,0,-1,6.15004,76.796029)" style="font-style:italic;font-variant:normal;font-size:12px;font-family:'Times New Roman';-inkscape-font-specification:Times-Italic;writing-mode:lr-tb;fill:#231f20;fill-opacity:1;fill-rule:nonzero;stroke:none"><tspan id="tspan210" x="0" y="0">M</tspan></text><text id="text216" transform="matrix(1,0,0,-1,16.14613,73.796029)" style="font-variant:normal;font-weight:400;font-size:9px;font-family:'Times New Roman';-inkscape-font-specification:Times-Roman;writing-mode:lr-tb;fill:#231f20;fill-opacity:1;fill-rule:nonzero;stroke:none"><tspan id="tspan214" x="0" y="0">1</tspan></text><text id="text220" transform="matrix(1,0,0,-1,163.77413,67.573369)" style="font-style:italic;font-variant:normal;font-size:12px;font-family:'Times New Roman';-inkscape-font-specification:Times-Italic;writing-mode:lr-tb;fill:#231f20;fill-opacity:1;fill-rule:nonzero;stroke:none"><tspan id="tspan218" x="0" y="0">M</tspan></text><text id="text224" transform="matrix(1,0,0,-1,173.77022,64.573369)" style="font-variant:normal;font-weight:400;font-size:9px;font-family:'Times New Roman';-inkscape-font-specification:Times-Roman;writing-mode:lr-tb;fill:#231f20;fill-opacity:1;fill-rule:nonzero;stroke:none"><tspan id="tspan222" x="0" y="0">1</tspan></text><text id="text228" transform="matrix(1,0,0,-1,310.74322,123.12377)" style="font-style:italic;font-variant:normal;font-size:12px;font-family:'Times New Roman';-inkscape-font-specification:Times-Italic;writing-mode:lr-tb;fill:#231f20;fill-opacity:1;fill-rule:nonzero;stroke:none"><tspan id="tspan226" x="0" y="0">M</tspan></text><text id="text232" transform="matrix(1,0,0,-1,320.73892,120.12377)" style="font-variant:normal;font-weight:400;font-size:9px;font-family:'Times New Roman';-inkscape-font-specification:Times-Roman;writing-mode:lr-tb;fill:#231f20;fill-opacity:1;fill-rule:nonzero;stroke:none"><tspan id="tspan230" x="0" y="0">1</tspan></text><text id="text236" transform="matrix(1,0,0,-1,91.40992,122.87377)" style="font-style:italic;font-variant:normal;font-size:12px;font-family:'Times New Roman';-inkscape-font-specification:Times-Italic;writing-mode:lr-tb;fill:#231f20;fill-opacity:1;fill-rule:nonzero;stroke:none"><tspan id="tspan234" x="0" y="0">F</tspan></text><text id="text240" transform="matrix(1,0,0,-1,98.74,119.87377)" style="font-variant:normal;font-weight:400;font-size:9px;font-family:'Times New Roman';-inkscape-font-specification:Times-Roman;writing-mode:lr-tb;fill:#231f20;fill-opacity:1;fill-rule:nonzero;stroke:none"><tspan id="tspan238" x="0" y="0">2</tspan></text><text id="text244" transform="matrix(1,0,0,-1,241.744,123.87377)" style="font-style:italic;font-variant:normal;font-size:12px;font-family:'Times New Roman';-inkscape-font-specification:Times-Italic;writing-mode:lr-tb;fill:#231f20;fill-opacity:1;fill-rule:nonzero;stroke:none"><tspan id="tspan242" x="0" y="0">F</tspan></text><text id="text248" transform="matrix(1,0,0,-1,249.07369,120.87377)" style="font-variant:normal;font-weight:400;font-size:9px;font-family:'Times New Roman';-inkscape-font-specification:Times-Roman;writing-mode:lr-tb;fill:#231f20;fill-opacity:1;fill-rule:nonzero;stroke:none"><tspan id="tspan246" x="0" y="0">2</tspan></text><text id="text252" transform="matrix(1,0,0,-1,377.66569,34.039369)" style="font-style:italic;font-variant:normal;font-size:12px;font-family:'Times New Roman';-inkscape-font-specification:Times-Italic;writing-mode:lr-tb;fill:#231f20;fill-opacity:1;fill-rule:nonzero;stroke:none"><tspan id="tspan250" x="0" y="0">F</tspan></text><text id="text256" transform="matrix(1,0,0,-1,384.99577,31.039369)" style="font-variant:normal;font-weight:400;font-size:9px;font-family:'Times New Roman';-inkscape-font-specification:Times-Roman;writing-mode:lr-tb;fill:#231f20;fill-opacity:1;fill-rule:nonzero;stroke:none"><tspan id="tspan254" x="0" y="0">2</tspan></text><text id="text260" transform="matrix(1,0,0,-1,89.74377,76.688169)" style="font-style:italic;font-variant:normal;font-size:12px;font-family:'Times New Roman';-inkscape-font-specification:Times-Italic;writing-mode:lr-tb;fill:#231f20;fill-opacity:1;fill-rule:nonzero;stroke:none"><tspan id="tspan258" x="0" y="0">M</tspan></text><text id="text264" transform="matrix(1,0,0,-1,99.73986,73.688169)" style="font-variant:normal;font-weight:400;font-size:9px;font-family:'Times New Roman';-inkscape-font-specification:Times-Roman;writing-mode:lr-tb;fill:#231f20;fill-opacity:1;fill-rule:nonzero;stroke:none"><tspan id="tspan262" x="0" y="0">2</tspan></text><text id="text268" transform="matrix(1,0,0,-1,235.66186,68.073329)" style="font-style:italic;font-variant:normal;font-size:12px;font-family:'Times New Roman';-inkscape-font-specification:Times-Italic;writing-mode:lr-tb;fill:#231f20;fill-opacity:1;fill-rule:nonzero;stroke:none"><tspan id="tspan266" x="0" y="0">M</tspan></text><text id="text272" transform="matrix(1,0,0,-1,245.65795,65.073329)" style="font-variant:normal;font-weight:400;font-size:9px;font-family:'Times New Roman';-inkscape-font-specification:Times-Roman;writing-mode:lr-tb;fill:#231f20;fill-opacity:1;fill-rule:nonzero;stroke:none"><tspan id="tspan270" x="0" y="0">2</tspan></text><text id="text276" transform="matrix(1,0,0,-1,376.49995,123.37373)" style="font-style:italic;font-variant:normal;font-size:12px;font-family:'Times New Roman';-inkscape-font-specification:Times-Italic;writing-mode:lr-tb;fill:#231f20;fill-opacity:1;fill-rule:nonzero;stroke:none"><tspan id="tspan274" x="0" y="0">M</tspan></text><text id="text280" transform="matrix(1,0,0,-1,386.49604,120.37373)" style="font-variant:normal;font-weight:400;font-size:9px;font-family:'Times New Roman';-inkscape-font-specification:Times-Roman;writing-mode:lr-tb;fill:#231f20;fill-opacity:1;fill-rule:nonzero;stroke:none"><tspan id="tspan278" x="0" y="0">2</tspan></text><text id="text284" transform="matrix(1,0,0,-1,202.78804,122.37373)" style="font-style:italic;font-variant:normal;font-size:12px;font-family:'Times New Roman';-inkscape-font-specification:Times-Italic;writing-mode:lr-tb;fill:#231f20;fill-opacity:1;fill-rule:nonzero;stroke:none"><tspan id="tspan282" x="0" y="0">N</tspan></text></g></g></g></svg>